<svg width="46" height="39" viewBox="0 0 46 39" fill="none" xmlns="http://www.w3.org/2000/svg">
<mask id="path-1-outside-1_1626_2100" maskUnits="userSpaceOnUse" x="0" y="0" width="46" height="39" fill="black">
<rect fill="white" width="46" height="39"/>
<path d="M44.802 1.00427C37.56 1.0128 30.3194 1.01138 23.0788 1.01138C15.8382 1.01138 8.55919 1.01138 1.29867 1C1.07111 1 1 1.04551 1 1.28587C1.00711 13.5726 1.00711 25.8593 1.00142 38.146C1.00142 38.3735 1.05547 38.4404 1.29298 38.4404C7.88362 38.4347 14.4743 38.4333 21.0649 38.4418C21.3223 38.4432 21.3735 38.3664 21.3735 38.1275C21.3678 28.0808 21.3678 18.0341 21.3735 7.98602C21.3735 7.75846 21.3166 7.69162 21.0791 7.69162C16.7442 7.70015 12.4063 7.69873 8.06851 7.69304C7.85233 7.69304 7.78265 7.73997 7.78265 7.96753C7.79118 11.1377 7.78976 14.3064 7.78265 17.4752C7.78265 17.6786 7.82958 17.7468 8.04718 17.744C8.99012 17.7312 10.1222 17.7298 11.0637 17.744C11.3041 17.7483 11.3254 17.6928 11.324 17.4382C11.3112 15.403 11.334 13.3422 11.324 11.3069C11.3226 11.0737 11.3581 11.041 11.5928 11.0424C13.6479 11.0524 15.3305 11.0524 17.3856 11.0424C17.6387 11.041 17.653 11.0709 17.653 11.334C17.6444 19.1335 17.6473 26.9572 17.653 34.7554C17.653 35 17.6587 35.0839 17.3856 35.0839C13.0677 35.0739 9.32577 35.0754 5.00786 35.0839C4.75044 35.0839 4.69924 34.9943 4.69924 34.7554C4.70635 24.7172 4.71061 14.6976 4.70493 4.65941C4.70493 4.41194 4.76039 4.35221 5.00786 4.35221C17.2462 4.35932 28.9057 4.35932 41.1426 4.35221C41.3929 4.35221 41.4171 4.41194 41.4171 4.65941C41.41 14.6961 41.4114 24.7357 41.4171 34.7738C41.4171 35.0114 41.4015 35.0867 41.1426 35.0867C36.8247 35.0768 33.1326 35.0782 28.8147 35.0853C28.5772 35.0853 28.4691 35.0142 28.4691 34.7568C28.4776 26.9402 28.4762 19.152 28.4691 11.3354C28.4691 11.0965 28.5857 11.0424 28.8147 11.0438C30.8599 11.0524 32.2039 11.0595 34.2476 11.0438C34.5506 11.041 34.5904 11.0936 34.589 11.3624C34.5776 13.3791 34.5989 15.4585 34.589 17.4752C34.589 17.7099 34.6174 17.7468 34.8521 17.744C35.7865 17.7312 37.0964 17.7312 38.0279 17.7468C38.2768 17.7511 38.3422 17.6857 38.3394 17.4382C38.3309 14.2965 38.3309 11.1562 38.3394 8.01447C38.3408 7.75562 38.2683 7.69589 38.0123 7.69589C33.7043 7.703 29.395 7.70442 25.0856 7.69446C24.8082 7.69446 24.7471 7.76984 24.7471 8.03438C24.7542 18.0555 24.7542 28.0737 24.7471 38.0933C24.7471 38.3693 24.8068 38.4489 25.1012 38.4489C31.662 38.4389 38.2256 38.4389 44.7864 38.4489C45.0879 38.4489 45.132 38.3565 45.132 38.0905C45.1249 25.8408 45.1249 13.5911 45.132 1.34134C45.132 1.07964 45.0779 1.00427 44.7992 1.00427"/>
</mask>
<path d="M44.802 1.00427C37.56 1.0128 30.3194 1.01138 23.0788 1.01138C15.8382 1.01138 8.55919 1.01138 1.29867 1C1.07111 1 1 1.04551 1 1.28587C1.00711 13.5726 1.00711 25.8593 1.00142 38.146C1.00142 38.3735 1.05547 38.4404 1.29298 38.4404C7.88362 38.4347 14.4743 38.4333 21.0649 38.4418C21.3223 38.4432 21.3735 38.3664 21.3735 38.1275C21.3678 28.0808 21.3678 18.0341 21.3735 7.98602C21.3735 7.75846 21.3166 7.69162 21.0791 7.69162C16.7442 7.70015 12.4063 7.69873 8.06851 7.69304C7.85233 7.69304 7.78265 7.73997 7.78265 7.96753C7.79118 11.1377 7.78976 14.3064 7.78265 17.4752C7.78265 17.6786 7.82958 17.7468 8.04718 17.744C8.99012 17.7312 10.1222 17.7298 11.0637 17.744C11.3041 17.7483 11.3254 17.6928 11.324 17.4382C11.3112 15.403 11.334 13.3422 11.324 11.3069C11.3226 11.0737 11.3581 11.041 11.5928 11.0424C13.6479 11.0524 15.3305 11.0524 17.3856 11.0424C17.6387 11.041 17.653 11.0709 17.653 11.334C17.6444 19.1335 17.6473 26.9572 17.653 34.7554C17.653 35 17.6587 35.0839 17.3856 35.0839C13.0677 35.0739 9.32577 35.0754 5.00786 35.0839C4.75044 35.0839 4.69924 34.9943 4.69924 34.7554C4.70635 24.7172 4.71061 14.6976 4.70493 4.65941C4.70493 4.41194 4.76039 4.35221 5.00786 4.35221C17.2462 4.35932 28.9057 4.35932 41.1426 4.35221C41.3929 4.35221 41.4171 4.41194 41.4171 4.65941C41.41 14.6961 41.4114 24.7357 41.4171 34.7738C41.4171 35.0114 41.4015 35.0867 41.1426 35.0867C36.8247 35.0768 33.1326 35.0782 28.8147 35.0853C28.5772 35.0853 28.4691 35.0142 28.4691 34.7568C28.4776 26.9402 28.4762 19.152 28.4691 11.3354C28.4691 11.0965 28.5857 11.0424 28.8147 11.0438C30.8599 11.0524 32.2039 11.0595 34.2476 11.0438C34.5506 11.041 34.5904 11.0936 34.589 11.3624C34.5776 13.3791 34.5989 15.4585 34.589 17.4752C34.589 17.7099 34.6174 17.7468 34.8521 17.744C35.7865 17.7312 37.0964 17.7312 38.0279 17.7468C38.2768 17.7511 38.3422 17.6857 38.3394 17.4382C38.3309 14.2965 38.3309 11.1562 38.3394 8.01447C38.3408 7.75562 38.2683 7.69589 38.0123 7.69589C33.7043 7.703 29.395 7.70442 25.0856 7.69446C24.8082 7.69446 24.7471 7.76984 24.7471 8.03438C24.7542 18.0555 24.7542 28.0737 24.7471 38.0933C24.7471 38.3693 24.8068 38.4489 25.1012 38.4489C31.662 38.4389 38.2256 38.4389 44.7864 38.4489C45.0879 38.4489 45.132 38.3565 45.132 38.0905C45.1249 25.8408 45.1249 13.5911 45.132 1.34134C45.132 1.07964 45.0779 1.00427 44.7992 1.00427" fill="#1F3345"/>
<path d="M1.29867 1L1.29883 0.9H1.29867V1ZM1 1.28587H0.9L0.9 1.28592L1 1.28587ZM1.00142 38.146L0.901423 38.1459V38.146H1.00142ZM1.29298 38.4404V38.5404H1.29307L1.29298 38.4404ZM21.0649 38.4418L21.0655 38.3418H21.065L21.0649 38.4418ZM21.3735 38.1275H21.4735V38.1274L21.3735 38.1275ZM21.3735 7.98602L21.4735 7.98608V7.98602H21.3735ZM21.0791 7.69162V7.59162L21.0789 7.59162L21.0791 7.69162ZM8.06851 7.69304L8.06865 7.59304H8.06851V7.69304ZM7.78265 7.96753H7.68265L7.68265 7.9678L7.78265 7.96753ZM7.78265 17.4752L7.68265 17.475V17.4752H7.78265ZM8.04718 17.744L8.04849 17.844H8.04854L8.04718 17.744ZM11.0637 17.744L11.0655 17.644L11.0653 17.644L11.0637 17.744ZM11.324 17.4382L11.424 17.4376V17.4376L11.324 17.4382ZM11.324 11.3069L11.424 11.3065V11.3063L11.324 11.3069ZM11.5928 11.0424L11.5922 11.1424H11.5923L11.5928 11.0424ZM17.3856 11.0424L17.3861 11.1424H17.3861L17.3856 11.0424ZM17.653 11.334L17.753 11.3341V11.334H17.653ZM17.653 34.7554H17.753V34.7553L17.653 34.7554ZM17.3856 35.0839L17.3854 35.1839H17.3856V35.0839ZM5.00786 35.0839V35.1839H5.00806L5.00786 35.0839ZM4.69924 34.7554L4.59924 34.7553V34.7554H4.69924ZM4.70493 4.65941H4.60493V4.65947L4.70493 4.65941ZM5.00786 4.35221L5.00792 4.25221H5.00786V4.35221ZM41.1426 4.35221V4.25221H41.1426L41.1426 4.35221ZM41.4171 4.65941L41.5171 4.65948V4.65941H41.4171ZM41.4171 34.7738H41.5171V34.7738L41.4171 34.7738ZM41.1426 35.0867L41.1424 35.1867H41.1426V35.0867ZM28.8147 35.0853V35.1853H28.8148L28.8147 35.0853ZM28.4691 34.7568L28.3691 34.7567V34.7568H28.4691ZM28.4691 11.3354H28.3691V11.3355L28.4691 11.3354ZM28.8147 11.0438L28.8141 11.1438L28.8143 11.1438L28.8147 11.0438ZM34.2476 11.0438L34.2484 11.1438L34.2486 11.1438L34.2476 11.0438ZM34.589 11.3624L34.689 11.363V11.3629L34.589 11.3624ZM34.589 17.4752L34.489 17.4747V17.4752H34.589ZM34.8521 17.744L34.8533 17.844L34.8534 17.844L34.8521 17.744ZM38.0279 17.7468L38.0296 17.6468H38.0296L38.0279 17.7468ZM38.3394 17.4382L38.2394 17.4385L38.2394 17.4394L38.3394 17.4382ZM38.3394 8.01447L38.2394 8.01392V8.01419L38.3394 8.01447ZM38.0123 7.69589V7.59589H38.0121L38.0123 7.69589ZM25.0856 7.69446L25.0858 7.59446H25.0856V7.69446ZM24.7471 8.03438H24.6471V8.03445L24.7471 8.03438ZM24.7471 38.0933L24.6471 38.0933V38.0933H24.7471ZM25.1012 38.4489V38.5489H25.1014L25.1012 38.4489ZM44.7864 38.4489L44.7862 38.5489H44.7864V38.4489ZM45.132 38.0905H45.232V38.0904L45.132 38.0905ZM45.132 1.34134L45.232 1.34139V1.34134H45.132ZM44.8019 0.904267C37.56 0.9128 30.3194 0.911376 23.0788 0.911376V1.11138C30.3194 1.11138 37.5601 1.1128 44.8022 1.10427L44.8019 0.904267ZM23.0788 0.911376C15.8382 0.911376 8.55925 0.911378 1.29883 0.9L1.29851 1.1C8.55912 1.11138 15.8382 1.11138 23.0788 1.11138V0.911376ZM1.29867 0.9C1.18793 0.9 1.07526 0.908428 0.997263 0.978327C0.915815 1.05132 0.9 1.16426 0.9 1.28587H1.1C1.1 1.16712 1.11974 1.13713 1.13074 1.12727C1.14518 1.11433 1.18186 1.1 1.29867 1.1V0.9ZM0.9 1.28592C0.907111 13.5726 0.907111 25.8592 0.901423 38.1459L1.10142 38.146C1.10711 25.8593 1.10711 13.5725 1.1 1.28581L0.9 1.28592ZM0.901423 38.146C0.901423 38.2588 0.912437 38.3709 0.985876 38.4476C1.06052 38.5257 1.17314 38.5404 1.29298 38.5404V38.3404C1.1753 38.3404 1.14214 38.3217 1.13039 38.3094C1.11743 38.2958 1.10142 38.2607 1.10142 38.146H0.901423ZM1.29307 38.5404C7.88367 38.5347 14.4742 38.5333 21.0648 38.5418L21.065 38.3418C14.4743 38.3333 7.88358 38.3347 1.29289 38.3404L1.29307 38.5404ZM21.0644 38.5418C21.1948 38.5425 21.3128 38.5257 21.3894 38.4425C21.4635 38.3619 21.4735 38.2448 21.4735 38.1275H21.2735C21.2735 38.2491 21.258 38.2899 21.2422 38.3071C21.2288 38.3216 21.1924 38.3425 21.0655 38.3418L21.0644 38.5418ZM21.4735 38.1274C21.4678 28.0808 21.4678 18.0341 21.4735 7.98608L21.2735 7.98596C21.2678 18.0341 21.2678 28.0808 21.2735 38.1275L21.4735 38.1274ZM21.4735 7.98602C21.4735 7.8724 21.4616 7.76039 21.3871 7.68377C21.3119 7.60641 21.1992 7.59162 21.0791 7.59162V7.79162C21.1966 7.79162 21.2311 7.81024 21.2437 7.8232C21.257 7.83689 21.2735 7.87209 21.2735 7.98602H21.4735ZM21.0789 7.59162C16.7441 7.60015 12.4064 7.59873 8.06865 7.59304L8.06838 7.79304C12.4063 7.79873 16.7442 7.80015 21.0793 7.79162L21.0789 7.59162ZM8.06851 7.59304C7.96222 7.59304 7.85336 7.60215 7.77745 7.67077C7.69846 7.74218 7.68265 7.85137 7.68265 7.96753H7.88265C7.88265 7.85614 7.90168 7.82807 7.91157 7.81913C7.92455 7.8074 7.95863 7.79304 8.06851 7.79304V7.59304ZM7.68265 7.9678C7.69118 11.1378 7.68976 14.3063 7.68265 17.475L7.88265 17.4754C7.88976 14.3066 7.89118 11.1376 7.88265 7.96726L7.68265 7.9678ZM7.68265 17.4752C7.68265 17.5759 7.69193 17.6813 7.75987 17.7548C7.83031 17.831 7.93673 17.8454 8.04849 17.844L8.04588 17.644C7.94004 17.6454 7.91419 17.6271 7.90676 17.6191C7.89683 17.6083 7.88265 17.5779 7.88265 17.4752H7.68265ZM8.04854 17.844C8.99068 17.8312 10.1218 17.8298 11.0622 17.844L11.0653 17.644C10.1226 17.6298 8.98957 17.6312 8.04582 17.644L8.04854 17.844ZM11.062 17.844C11.1241 17.8451 11.1809 17.8427 11.2293 17.8311C11.2803 17.8188 11.3281 17.7949 11.3634 17.7496C11.3967 17.7069 11.4103 17.6559 11.4168 17.6074C11.4234 17.5588 11.4244 17.5013 11.424 17.4376L11.224 17.4388C11.2244 17.5024 11.2232 17.5473 11.2187 17.5805C11.2141 17.6139 11.2076 17.6243 11.2057 17.6267C11.2051 17.6275 11.2042 17.6284 11.2019 17.6297C11.1992 17.6313 11.1935 17.634 11.1827 17.6366C11.1596 17.6421 11.1235 17.645 11.0655 17.644L11.062 17.844ZM11.424 17.4376C11.4112 15.3968 11.434 13.3494 11.424 11.3065L11.224 11.3074C11.2339 13.3349 11.2113 15.4091 11.224 17.4388L11.424 17.4376ZM11.424 11.3063C11.4237 11.249 11.4258 11.2114 11.4307 11.1857C11.433 11.1734 11.4355 11.1663 11.4373 11.1623C11.4382 11.1604 11.4389 11.1594 11.4392 11.1589C11.4395 11.1584 11.4397 11.1583 11.4398 11.1582C11.4398 11.1582 11.44 11.158 11.4406 11.1576C11.4412 11.1572 11.4424 11.1564 11.4445 11.1555C11.4489 11.1536 11.4565 11.1511 11.4693 11.1488C11.4959 11.144 11.5343 11.1421 11.5922 11.1424L11.5934 10.9424C11.534 10.9421 11.4799 10.9437 11.434 10.9519C11.3871 10.9603 11.3388 10.9772 11.3 11.0151C11.261 11.0533 11.2431 11.1013 11.2342 11.1484C11.2254 11.1943 11.2237 11.2483 11.224 11.3076L11.424 11.3063ZM11.5923 11.1424C13.6478 11.1524 15.3306 11.1524 17.3861 11.1424L17.3851 10.9424C15.3303 10.9524 13.6481 10.9524 11.5933 10.9424L11.5923 11.1424ZM17.3861 11.1424C17.4495 11.1421 17.4895 11.1439 17.5163 11.1488C17.5416 11.1534 17.5421 11.1585 17.539 11.1549C17.5374 11.153 17.5434 11.158 17.5477 11.1904C17.5519 11.2226 17.553 11.2673 17.553 11.334H17.753C17.753 11.2691 17.7522 11.2114 17.7459 11.164C17.7396 11.1169 17.7262 11.0651 17.6894 11.0231C17.6511 10.9793 17.6006 10.9608 17.552 10.952C17.505 10.9434 17.4483 10.9421 17.385 10.9424L17.3861 11.1424ZM17.553 11.3339C17.5444 19.1335 17.5473 26.9573 17.553 34.7554L17.753 34.7553C17.7473 26.9572 17.7444 19.1335 17.753 11.3341L17.553 11.3339ZM17.553 34.7554C17.553 34.8188 17.5532 34.8644 17.55 34.9011C17.5467 34.938 17.5407 34.9523 17.5372 34.9578C17.5363 34.9593 17.5243 34.9839 17.3856 34.9839V35.1839C17.5199 35.1839 17.6417 35.1665 17.7061 35.0649C17.7353 35.0189 17.745 34.9663 17.7492 34.9187C17.7534 34.8709 17.753 34.8142 17.753 34.7554H17.553ZM17.3858 34.9839C13.0677 34.9739 9.32568 34.9754 5.00766 34.9839L5.00806 35.1839C9.32586 35.1754 13.0676 35.1739 17.3854 35.1839L17.3858 34.9839ZM5.00786 34.9839C4.88422 34.9839 4.84733 34.9609 4.83281 34.944C4.81441 34.9226 4.79924 34.8761 4.79924 34.7554H4.59924C4.59924 34.8736 4.60967 34.9913 4.68122 35.0745C4.75666 35.1621 4.87408 35.1839 5.00786 35.1839V34.9839ZM4.79924 34.7554C4.80635 24.7173 4.81061 14.6976 4.80493 4.65935L4.60493 4.65947C4.61061 14.6976 4.60635 24.7172 4.59924 34.7553L4.79924 34.7554ZM4.80493 4.65941C4.80493 4.53313 4.82181 4.49652 4.83513 4.48288C4.8477 4.47002 4.88239 4.45221 5.00786 4.45221V4.25221C4.88586 4.25221 4.76909 4.26427 4.69206 4.34313C4.61578 4.42123 4.60493 4.53822 4.60493 4.65941H4.80493ZM5.0078 4.45221C17.2462 4.45932 28.9057 4.45932 41.1427 4.45221L41.1426 4.25221C28.9057 4.25932 17.2462 4.25932 5.00792 4.25221L5.0078 4.45221ZM41.1426 4.45221C41.2028 4.45221 41.2413 4.45598 41.2666 4.46236C41.2898 4.46822 41.2948 4.47449 41.2962 4.47614C41.2989 4.47951 41.3057 4.49021 41.3106 4.52213C41.3155 4.5543 41.3171 4.59771 41.3171 4.65941H41.5171C41.5171 4.59738 41.5157 4.54052 41.5083 4.49189C41.5008 4.44301 41.4859 4.39237 41.4513 4.34988C41.4153 4.30566 41.3674 4.28153 41.3156 4.26846C41.2659 4.25591 41.2076 4.25221 41.1426 4.25221V4.45221ZM41.3171 4.65934C41.31 14.6961 41.3114 24.7357 41.3171 34.7739L41.5171 34.7738C41.5114 24.7357 41.51 14.6961 41.5171 4.65948L41.3171 4.65934ZM41.3171 34.7738C41.3171 34.8336 41.316 34.8765 41.3115 34.9094C41.3071 34.9422 41.3005 34.9546 41.2968 34.9595C41.2929 34.9647 41.2735 34.9867 41.1426 34.9867V35.1867C41.2706 35.1867 41.3884 35.1711 41.457 35.0792C41.4897 35.0355 41.5031 34.9847 41.5097 34.9364C41.5163 34.8884 41.5171 34.8328 41.5171 34.7738H41.3171ZM41.1429 34.9867C36.8248 34.9768 33.1325 34.9782 28.8145 34.9853L28.8148 35.1853C33.1327 35.1782 36.8247 35.1768 41.1424 35.1867L41.1429 34.9867ZM28.8147 34.9853C28.7004 34.9853 28.6466 34.9669 28.6189 34.9425C28.5945 34.921 28.5691 34.8751 28.5691 34.7568H28.3691C28.3691 34.8958 28.3977 35.0142 28.4867 35.0926C28.5725 35.1682 28.6914 35.1853 28.8147 35.1853V34.9853ZM28.5691 34.7569C28.5776 26.9402 28.5762 19.152 28.5691 11.3353L28.3691 11.3355C28.3762 19.152 28.3776 26.9401 28.3691 34.7567L28.5691 34.7569ZM28.5691 11.3354C28.5691 11.2302 28.5946 11.1955 28.6159 11.1796C28.6451 11.1578 28.7013 11.1431 28.8141 11.1438L28.8153 10.9438C28.6991 10.9431 28.5825 10.9548 28.4961 11.0194C28.4019 11.0899 28.3691 11.2017 28.3691 11.3354H28.5691ZM28.8143 11.1438C30.8594 11.1524 32.204 11.1595 34.2484 11.1438L34.2469 10.9438C32.2038 10.9595 30.8603 10.9524 28.8151 10.9438L28.8143 11.1438ZM34.2486 11.1438C34.3228 11.1431 34.3741 11.146 34.4104 11.1529C34.446 11.1596 34.4581 11.1685 34.4627 11.1729C34.4668 11.1769 34.4746 11.1868 34.4806 11.2178C34.4869 11.2502 34.4893 11.2955 34.489 11.3619L34.689 11.3629C34.6893 11.2949 34.6873 11.2328 34.677 11.1798C34.6665 11.1254 34.6457 11.072 34.6022 11.0296C34.5591 10.9876 34.5045 10.9671 34.4475 10.9563C34.3912 10.9457 34.3239 10.9431 34.2467 10.9438L34.2486 11.1438ZM34.489 11.3619C34.4833 12.3707 34.4858 13.3951 34.4884 14.4191C34.4911 15.4432 34.4939 16.4668 34.489 17.4747L34.689 17.4757C34.6939 16.4669 34.6911 15.4425 34.6884 14.4185C34.6858 13.3945 34.6833 12.3709 34.689 11.363L34.489 11.3619ZM34.489 17.4752C34.489 17.5343 34.4906 17.5881 34.4985 17.6337C34.5066 17.68 34.5228 17.7285 34.5601 17.7677C34.598 17.8074 34.6461 17.8255 34.6934 17.8345C34.7394 17.8431 34.7936 17.8447 34.8533 17.844L34.8509 17.644C34.7932 17.6447 34.7558 17.6427 34.7305 17.6379C34.7185 17.6357 34.7117 17.6332 34.7081 17.6315C34.7064 17.6307 34.7056 17.6301 34.7052 17.6299C34.705 17.6298 34.7049 17.6297 34.7049 17.6297C34.7049 17.6297 34.7049 17.6297 34.7049 17.6297C34.7049 17.6297 34.7049 17.6297 34.7049 17.6296C34.7049 17.6296 34.7049 17.6296 34.7048 17.6295C34.7047 17.6294 34.7046 17.6292 34.7044 17.6289C34.704 17.6283 34.7032 17.627 34.7023 17.6249C34.7004 17.6203 34.6979 17.6125 34.6956 17.5995C34.6909 17.5722 34.689 17.5335 34.689 17.4752H34.489ZM34.8534 17.844C35.787 17.8312 37.0958 17.8312 38.0262 17.8468L38.0296 17.6468C37.0969 17.6312 35.786 17.6312 34.8507 17.644L34.8534 17.844ZM38.0262 17.8468C38.1507 17.8489 38.2692 17.8367 38.3485 17.7579C38.4279 17.6791 38.4408 17.5609 38.4394 17.4371L38.2394 17.4394C38.2408 17.563 38.2224 17.6013 38.2076 17.6159C38.1928 17.6307 38.154 17.649 38.0296 17.6468L38.0262 17.8468ZM38.4394 17.4379C38.4309 14.2964 38.4309 11.1563 38.4394 8.01474L38.2394 8.01419C38.2309 11.1561 38.2309 14.2966 38.2394 17.4385L38.4394 17.4379ZM38.4394 8.01502C38.4401 7.88466 38.4246 7.76454 38.3411 7.68549C38.2595 7.60822 38.1389 7.59589 38.0123 7.59589V7.79589C38.1416 7.79589 38.1853 7.81342 38.2036 7.83073C38.22 7.84625 38.2401 7.88542 38.2394 8.01392L38.4394 8.01502ZM38.0121 7.59589C33.7042 7.603 29.395 7.60442 25.0858 7.59446L25.0853 7.79446C29.3949 7.80442 33.7044 7.803 38.0124 7.79589L38.0121 7.59589ZM25.0856 7.59446C24.9466 7.59446 24.8219 7.61107 24.7403 7.69588C24.6597 7.77961 24.6471 7.90361 24.6471 8.03438H24.8471C24.8471 7.90061 24.865 7.85465 24.8844 7.83456C24.9027 7.81554 24.9473 7.79446 25.0856 7.79446V7.59446ZM24.6471 8.03445C24.6542 18.0555 24.6542 28.0737 24.6471 38.0933L24.8471 38.0934C24.8542 28.0737 24.8542 18.0554 24.8471 8.03431L24.6471 8.03445ZM24.6471 38.0933C24.6471 38.2289 24.6591 38.3571 24.7413 38.4435C24.8248 38.5314 24.954 38.5489 25.1012 38.5489V38.3489C24.954 38.3489 24.9061 38.3266 24.8862 38.3057C24.8649 38.2833 24.8471 38.2337 24.8471 38.0933H24.6471ZM25.1014 38.5489C31.662 38.5389 38.2256 38.5389 44.7862 38.5489L44.7865 38.3489C38.2257 38.3389 31.6619 38.3389 25.1011 38.3489L25.1014 38.5489ZM44.7864 38.5489C44.9387 38.5489 45.0676 38.5277 45.1479 38.4348C45.1876 38.389 45.2078 38.334 45.2186 38.2776C45.2293 38.2219 45.232 38.1585 45.232 38.0905H45.032C45.032 38.1555 45.0292 38.2034 45.0222 38.2398C45.0153 38.2755 45.0057 38.2936 44.9966 38.304C44.9795 38.3238 44.9356 38.3489 44.7864 38.3489V38.5489ZM45.232 38.0904C45.2249 25.8408 45.2249 13.5911 45.232 1.34139L45.032 1.34128C45.0249 13.591 45.0249 25.8408 45.032 38.0906L45.232 38.0904ZM45.232 1.34134C45.232 1.21357 45.2216 1.08994 45.1431 1.00626C45.0628 0.920666 44.9384 0.904267 44.7992 0.904267V1.10427C44.9387 1.10427 44.9808 1.12556 44.9972 1.14308C45.0154 1.1625 45.032 1.20741 45.032 1.34134H45.232Z" fill="#1F3345" mask="url(#path-1-outside-1_1626_2100)"/>
</svg>
