<svg width="14" height="17" viewBox="0 0 14 17" fill="none" xmlns="http://www.w3.org/2000/svg">
<g clip-path="url(#clip0_3338_5218)">
<path d="M11.0833 1.41667H10.5V0.708333C10.5 0.317333 10.2387 0 9.91667 0C9.59467 0 9.33333 0.317333 9.33333 0.708333V1.41667H4.66667V0.708333C4.66667 0.317333 4.40533 0 4.08333 0C3.76133 0 3.5 0.317333 3.5 0.708333V1.41667H2.91667C1.30842 1.41667 0 3.00546 0 4.95833V7.08333C0 7.47433 0.261333 7.79167 0.583333 7.79167C0.905333 7.79167 1.16667 7.47433 1.16667 7.08333H12.8333V13.4583C12.8333 14.6299 12.0482 15.5833 11.0833 15.5833H2.4185C1.9915 15.5833 1.58083 15.3949 1.26175 15.0521C1.01967 14.7928 0.651583 14.8212 0.438083 15.1137C0.224583 15.407 0.247917 15.8546 0.488833 16.1139C1.022 16.6855 1.70683 16.9993 2.4185 16.9993H11.0833C12.6916 16.9993 14 15.4105 14 13.4576V4.95833C14 3.00546 12.6916 1.41667 11.0833 1.41667ZM1.16667 5.66667V4.95833C1.16667 3.78675 1.95183 2.83333 2.91667 2.83333H11.0833C12.0482 2.83333 12.8333 3.78675 12.8333 4.95833V5.66667H1.16667ZM2.69675 9.51221L1.78033 10.625H5.83333C6.15533 10.625 6.41667 10.9423 6.41667 11.3333C6.41667 11.7243 6.15533 12.0417 5.83333 12.0417H1.78033L2.69675 13.1545C2.92483 13.4314 2.92483 13.8791 2.69675 14.156C2.583 14.2942 2.43367 14.3636 2.28433 14.3636C2.135 14.3636 1.98567 14.2942 1.87192 14.156L0.320833 12.2726C-0.105583 11.7548 -0.105583 10.9126 0.320833 10.3948L1.87192 8.51133C2.1 8.23438 2.46867 8.23438 2.69675 8.51133C2.92483 8.78829 2.92483 9.23596 2.69675 9.51292V9.51221Z" fill="#1F3345" fill-opacity="0.8"/>
</g>
<defs>
<clipPath id="clip0_3338_5218">
<rect width="14" height="17" fill="white"/>
</clipPath>
</defs>
</svg>
