<svg width="14" height="17" viewBox="0 0 14 17" fill="none" xmlns="http://www.w3.org/2000/svg">
<g clip-path="url(#clip0_3338_5200)">
<path d="M12.25 1.41667H10.5V0H9.33333V1.41667H4.66667V0H3.5V1.41667H1.75C0.785167 1.41667 0 2.37008 0 3.54167V9.20833H1.16667V7.08333H12.8333V15.5833H1.16667V13.4583H0V17H14V3.54167C14 2.37008 13.2148 1.41667 12.25 1.41667ZM1.16667 5.66667V3.54167C1.16667 3.15137 1.42858 2.83333 1.75 2.83333H12.25C12.5714 2.83333 12.8333 3.15137 12.8333 3.54167V5.66667H1.16667ZM4.63633 12.0417H0V10.625H4.63633L3.71992 9.51221L4.54475 8.51062L6.09583 10.3941C6.52225 10.9119 6.52225 11.7541 6.09583 12.2719L4.54475 14.1553L3.71992 13.1537L4.63633 12.0417Z" fill="#1F3345" fill-opacity="0.8"/>
</g>
<defs>
<clipPath id="clip0_3338_5200">
<rect width="14" height="17" fill="white"/>
</clipPath>
</defs>
</svg>
