<svg width="15" height="14" viewBox="0 0 15 14" fill="none" xmlns="http://www.w3.org/2000/svg">
<path d="M10.9375 0C9.4375 0 8.2 0.69307 7.5 1.80198C6.8 0.69307 5.5625 0 4.0625 0C1.825 0 0 1.9784 0 4.41044C0 8.64446 6.85 13.5464 7.1375 13.748L7.5 14L7.8625 13.748C8.15 13.5464 15 8.64446 15 4.41044C15 1.9784 13.175 0 10.9375 0ZM7.5 12.45C5.4625 10.9379 1.25 7.20792 1.25 4.41044C1.25 2.67147 2.5125 1.26013 4.0625 1.26013C5.7125 1.26013 6.875 2.41944 6.875 4.07021V5.0405H8.125V4.07021C8.125 2.41944 9.2875 1.26013 10.9375 1.26013C12.4875 1.26013 13.75 2.67147 13.75 4.41044C13.75 7.20792 9.5375 10.9379 7.5 12.45Z" fill="#1F3345"/>
<path d="M10.9375 0C9.4375 0 8.2 0.69307 7.5 1.80198C6.8 0.69307 5.5625 0 4.0625 0C1.825 0 0 1.9784 0 4.41044C0 8.64446 6.85 13.5464 7.1375 13.748L7.5 14L7.8625 13.748C8.15 13.5464 15 8.64446 15 4.41044C15 1.9784 13.175 0 10.9375 0ZM7.5 12.45C5.4625 10.9379 1.25 7.20792 1.25 4.41044C1.25 2.67147 2.5125 1.26013 4.0625 1.26013C5.7125 1.26013 6.875 2.41944 6.875 4.07021V5.0405H8.125V4.07021C8.125 2.41944 9.2875 1.26013 10.9375 1.26013C12.4875 1.26013 13.75 2.67147 13.75 4.41044C13.75 7.20792 9.5375 10.9379 7.5 12.45Z" stroke="white"/>
</svg>
