<svg width="18" height="18" viewBox="0 0 18 18" fill="none" xmlns="http://www.w3.org/2000/svg">
<g clip-path="url(#clip0_2471_5572)">
<path d="M16.738 3.32326L6.37375 13.6868C6.30407 13.7567 6.22126 13.8122 6.13007 13.8501C6.03888 13.888 5.94111 13.9075 5.84237 13.9075C5.74363 13.9075 5.64586 13.888 5.55468 13.8501C5.46349 13.8122 5.38068 13.7567 5.311 13.6868L1.303 9.67501C1.23332 9.60505 1.15051 9.54954 1.05932 9.51166C0.968132 9.47379 0.870364 9.45429 0.771623 9.45429C0.672883 9.45429 0.575114 9.47379 0.483927 9.51166C0.392741 9.54954 0.30993 9.60505 0.240248 9.67501C0.170291 9.74469 0.114781 9.8275 0.076905 9.91869C0.0390287 10.0099 0.0195312 10.1076 0.0195312 10.2064C0.0195312 10.3051 0.0390287 10.4029 0.076905 10.4941C0.114781 10.5853 0.170291 10.6681 0.240248 10.7378L4.24975 14.7465C4.67271 15.1687 5.2459 15.4058 5.8435 15.4058C6.4411 15.4058 7.01429 15.1687 7.43725 14.7465L17.8007 4.38526C17.8706 4.31559 17.926 4.23282 17.9638 4.14171C18.0016 4.05059 18.0211 3.95291 18.0211 3.85426C18.0211 3.75561 18.0016 3.65792 17.9638 3.56681C17.926 3.47569 17.8706 3.39292 17.8007 3.32326C17.7311 3.2533 17.6483 3.19779 17.5571 3.15991C17.4659 3.12204 17.3681 3.10254 17.2694 3.10254C17.1706 3.10254 17.0729 3.12204 16.9817 3.15991C16.8905 3.19779 16.8077 3.2533 16.738 3.32326Z" fill="#1FB796"/>
</g>
<defs>
<clipPath id="clip0_2471_5572">
<rect width="18" height="18" fill="white"/>
</clipPath>
</defs>
</svg>
