<svg width="31" height="31" viewBox="0 0 31 31" fill="none" xmlns="http://www.w3.org/2000/svg">
<path d="M4.40002 25.057C3.72729 25.057 3.05457 25.0378 2.38313 25.066C2.07945 25.0788 2 25.0224 2 24.6918C2.0141 19.2639 2.00897 13.8373 2.00897 8.40936C2.22424 8.10696 2.51127 7.97754 2.88159 8.00317C3.14042 8.01982 3.40182 8.00573 3.66194 8.00573C4.58838 8.00701 4.78955 8.20819 4.79084 9.15512C4.79212 11.8358 4.79084 14.5151 4.79212 17.1958C4.79212 17.871 4.80878 17.8903 5.44818 17.8915C8.15829 17.8928 10.8697 17.8928 13.5798 17.8915C14.1756 17.8915 14.2077 17.8582 14.2089 17.2637C14.2115 15.4351 14.2064 13.6079 14.2128 11.7794C14.2154 11.0926 14.4819 10.8132 15.1584 10.8119C18.2978 10.8068 21.4372 10.7786 24.5766 10.8196C27.1355 10.8529 29.242 13.071 29.2523 15.6696C29.2638 18.4887 29.251 21.309 29.26 24.128C29.2613 24.5124 29.1767 24.8302 28.8563 25.057C28.1823 25.057 27.5083 25.057 26.8343 25.057C26.523 24.7789 26.4179 24.4253 26.4397 24.0127C26.4563 23.6885 26.4435 23.3617 26.4422 23.0363C26.441 22.2879 26.441 22.2867 25.708 22.2867C18.9821 22.2867 12.2561 22.2867 5.53019 22.2867C5.42255 22.2867 5.3162 22.2918 5.20856 22.2879C4.91769 22.2777 4.79084 22.4174 4.79468 22.7095C4.80109 23.1439 4.78059 23.5783 4.79852 24.0114C4.81262 24.4253 4.70755 24.7777 4.40002 25.057Z" fill="#1F3345"/>
<path d="M6.03322 13.016C6.02682 11.049 7.59138 9.41017 9.48012 9.40504C11.374 9.39992 12.9629 11.0375 12.9603 12.989C12.9578 14.947 11.3766 16.6051 9.50703 16.6102C7.62597 16.6166 6.03963 14.9752 6.03322 13.016Z" fill="#1F3345"/>
</svg>
