<svg width="31" height="31" viewBox="0 0 31 31" fill="none" xmlns="http://www.w3.org/2000/svg">
<path d="M8.59523 9.14016C10.2378 9.14016 11.5694 7.76564 11.5694 6.07008C11.5694 4.37452 10.2378 3 8.59523 3C6.95266 3 5.62109 4.37452 5.62109 6.07008C5.62109 7.76564 6.95266 9.14016 8.59523 9.14016Z" fill="#1F3345"/>
<path d="M21.3042 9.14016C22.9468 9.14016 24.2784 7.76564 24.2784 6.07008C24.2784 4.37452 22.9468 3 21.3042 3C19.6616 3 18.3301 4.37452 18.3301 6.07008C18.3301 7.76564 19.6616 9.14016 21.3042 9.14016Z" fill="#1F3345"/>
<path d="M14.8155 13.8851C16.0102 13.8851 16.9787 12.8854 16.9787 11.6521C16.9787 10.4189 16.0102 9.41919 14.8155 9.41919C13.6208 9.41919 12.6523 10.4189 12.6523 11.6521C12.6523 12.8854 13.6208 13.8851 14.8155 13.8851Z" fill="#1F3345"/>
<path d="M17.0645 15.8384H12.5658C11.5726 15.8384 10.7598 16.6774 10.7598 17.7027V20.3926C10.7598 21.3539 11.474 22.1513 12.3817 22.2473V26.8118C12.3817 27.8371 13.1945 28.6761 14.1877 28.6761H15.442C16.4352 28.6761 17.2481 27.8371 17.2481 26.8118V22.2473C18.1557 22.1513 18.87 21.3539 18.87 20.3926V17.7027C18.8706 16.6774 18.0578 15.8384 17.0645 15.8384Z" fill="#1F3345"/>
<path d="M27.1313 20.1835H27.1325L27.1294 20.1726C27.1102 20.0318 27.0724 19.8917 27.0128 19.756L27.0097 19.7457C27.0097 19.7457 25.3587 13.6056 25.0884 12.2104C24.818 10.8152 23.1955 10.5361 23.1955 10.5361H22.3845L18.8698 10.6405V11.6523V11.6728C18.8691 11.6728 18.8691 11.6734 18.8685 11.6741C18.8623 12.6885 18.4097 13.4731 17.9199 14.2385C19.3844 14.5605 20.4923 15.9096 20.4923 17.5141V20.3051C20.4923 21.5377 19.837 22.6174 18.8704 23.1985V28.3985H23.1961C23.7907 28.3985 24.2774 27.8961 24.2774 27.2824V21.9793H25.611C26.6005 21.9787 27.246 21.0718 27.1313 20.1835Z" fill="#1F3345"/>
<path d="M9.40764 20.3037V17.5127C9.40764 15.8705 10.5695 14.4996 12.0854 14.2199C11.4332 13.1204 10.8708 12.1393 10.9948 10.8145H7.24446C5.4601 10.8145 4 12.3217 4 14.1636V19.4666C4 20.0804 4.4867 20.5828 5.08128 20.5828H5.62192V27.002C5.62192 27.9229 6.35166 28.6762 7.24384 28.6762H11.0289V23.1972C10.0624 22.6161 9.40764 21.5364 9.40764 20.3037Z" fill="#1F3345"/>
</svg>
