<svg width="31" height="31" viewBox="0 0 31 31" fill="none" xmlns="http://www.w3.org/2000/svg">
<path d="M9.66792 2C10.3832 2.32148 11.0792 2.66547 11.6097 3.27469C11.9071 3.61546 12.325 3.6669 12.7526 3.63636C13.6817 3.56724 14.5915 3.59938 15.4305 4.08322C15.662 4.21663 15.9224 4.15234 16.1748 4.13787C16.911 4.09608 17.3948 4.47221 17.7034 5.10232C17.9992 5.7035 17.6391 6.09893 17.2501 6.48792C15.6861 8.04712 14.1269 9.61114 12.5629 11.1703C12.1996 11.5336 11.8074 11.929 11.2432 11.6654C10.6292 11.3793 10.1839 10.9019 10.2 10.1721C10.2096 9.71884 10.1293 9.31377 9.9219 8.91352C9.5538 8.20786 9.61166 7.43952 9.6422 6.68242C9.65989 6.24359 9.55701 5.86585 9.24035 5.5524C9.02013 5.33379 8.76455 5.26467 8.48647 5.40934C8.22928 5.54437 8.05729 5.7469 8.07818 6.06839C8.24857 8.64187 8.11998 11.217 8.14891 13.792C8.16338 15.0732 8.13926 15.0732 9.47182 15.0732C15.6138 15.0732 21.7541 15.0748 27.8961 15.0716C28.4072 15.0716 28.9216 15.0426 29.2672 15.5281C29.2672 16.3559 29.2672 17.1837 29.2672 18.0131C28.8589 18.4311 28.3397 18.4552 27.798 18.4536C20.0728 18.4487 12.3459 18.4504 4.62062 18.4487C4.39076 18.4487 4.15929 18.452 3.93103 18.4262C3.35075 18.3619 2.99712 18.0742 3.00355 17.4457C3.00837 16.9635 3.00998 16.4797 3.00034 15.9974C2.98908 15.4429 3.26074 15.1053 3.80083 15.0667C4.48559 15.0185 4.58525 14.6327 4.57882 14.0428C4.55471 11.6285 4.57079 9.21411 4.56918 6.79976C4.56757 4.11054 5.28127 3.02554 7.73419 2C8.38038 2 9.02335 2 9.66792 2Z" fill="#1F3345"/>
<path d="M16.1325 19.9533C19.627 19.9533 23.1231 19.9517 26.6177 19.9549C27.6175 19.9549 27.7397 20.0546 27.7573 21.0528C27.7798 22.3274 27.4889 23.5491 26.69 24.5473C26.1258 25.2513 25.957 25.9779 25.9844 26.8395C26.0245 28.156 25.8879 28.2669 24.5971 28.2685C24.2982 28.2685 23.9992 28.2604 23.7002 28.2669C23.1328 28.2781 22.7583 28.0499 22.7197 27.4487C22.6811 26.8588 22.3693 26.7012 21.8099 26.7045C18.0389 26.7221 14.2679 26.7189 10.4968 26.7093C9.95032 26.7077 9.54203 26.7832 9.55329 27.4744C9.56132 27.9711 9.23341 28.2219 8.75922 28.2508C8.32361 28.2765 7.88639 28.2701 7.44917 28.2669C6.5024 28.2604 6.1134 27.865 6.25646 26.9504C6.40274 26.01 6.14394 25.2047 5.54116 24.5232C4.44169 23.2806 4.62332 21.797 4.67315 20.3326C4.68441 19.9806 4.98178 19.971 5.23254 19.9645C5.73727 19.9501 6.2436 19.9565 6.74994 19.9565C9.87799 19.9517 13.006 19.9533 16.1325 19.9533Z" fill="#1F3345"/>
</svg>
