<svg width="14" height="14" viewBox="0 0 14 14" fill="none" xmlns="http://www.w3.org/2000/svg">
<g clip-path="url(#clip0_1099_695)">
<path d="M9.91667 11.0834C9.91667 12.6934 8.61 14 7 14H2.91667C1.30667 14 0 12.6934 0 11.0834V7.00005C0 5.39005 1.30667 4.08338 2.91667 4.08338H3.5C3.82083 4.08338 4.08333 4.34588 4.08333 4.66671C4.08333 4.98755 3.82083 5.25005 3.5 5.25005H2.91667C1.95417 5.25005 1.16667 6.03755 1.16667 7.00005V11.0834C1.16667 12.0459 1.95417 12.8334 2.91667 12.8334H7C7.9625 12.8334 8.75 12.0459 8.75 11.0834C8.75 10.7625 9.0125 10.5 9.33333 10.5C9.65417 10.5 9.91667 10.7625 9.91667 11.0834ZM13.4925 3.43588L10.3367 0.175046C10.115 -0.0582873 9.74167 -0.0641207 9.51417 0.163379C9.28667 0.390879 9.275 0.758379 9.5025 0.985879L12.5008 4.07755H7.58333C5.97333 4.07755 4.66667 5.38421 4.66667 6.99421V9.91088C4.66667 10.2317 4.92917 10.4942 5.25 10.4942C5.57083 10.4942 5.83333 10.2317 5.83333 9.91088V6.99421C5.83333 6.03171 6.62083 5.24421 7.58333 5.24421H12.495L9.49667 8.33588C9.275 8.56921 9.275 8.93671 9.50833 9.15838C9.61917 9.26921 9.77083 9.32171 9.91667 9.32171C10.0625 9.32171 10.22 9.26338 10.3367 9.14671L13.4867 5.89755C14.1692 5.21505 14.1692 4.10671 13.4925 3.43005V3.43588Z" fill="#1F3345"/>
</g>
<defs>
<clipPath id="clip0_1099_695">
<rect width="14" height="14" fill="white"/>
</clipPath>
</defs>
</svg>
