<svg width="19" height="17" viewBox="0 0 19 17" fill="none" xmlns="http://www.w3.org/2000/svg">
<path d="M9.02678 0.387063C9.18079 -0.0643426 9.81921 -0.0643437 9.97322 0.387062L11.7419 5.57128C11.811 5.77374 12.0012 5.90983 12.2151 5.90983H17.8848C18.375 5.90983 18.5724 6.54204 18.1693 6.821L13.6251 9.96534C13.4412 10.0926 13.3642 10.3264 13.4364 10.538L15.1819 15.6543C15.3376 16.1107 14.8207 16.5013 14.4242 16.2269L9.7845 13.0165C9.61333 12.8981 9.38667 12.8981 9.2155 13.0165L4.57585 16.2269C4.1793 16.5013 3.66242 16.1107 3.81813 15.6543L5.56365 10.538C5.63584 10.3264 5.55878 10.0926 5.37493 9.96534L0.830725 6.821C0.427579 6.54204 0.624981 5.90983 1.11523 5.90983H6.78489C6.99881 5.90983 7.18903 5.77374 7.25811 5.57128L9.02678 0.387063Z" fill="#1FB796"/>
</svg>
