<svg width="26" height="26" viewBox="0 0 26 26" fill="none" xmlns="http://www.w3.org/2000/svg">
<path d="M13 1C6.383 1 1 6.383 1 13C1 19.617 6.383 25 13 25C19.617 25 25 19.617 25 13C25 6.383 19.617 1 13 1ZM8 22.797V22C8 19.243 10.243 17 13 17C15.757 17 18 19.243 18 22V22.797C16.499 23.566 14.799 24 13 24C11.201 24 9.501 23.566 8 22.797ZM19 22.215V22C19 18.691 16.309 16 13 16C9.691 16 7 18.691 7 22V22.215C3.992 20.25 2 16.853 2 13C2 6.935 6.935 2 13 2C19.065 2 24 6.935 24 13C24 16.853 22.008 20.25 19 22.215ZM13 6C10.794 6 9 7.794 9 10C9 12.206 10.794 14 13 14C15.206 14 17 12.206 17 10C17 7.794 15.206 6 13 6ZM13 13C11.346 13 10 11.654 10 10C10 8.346 11.346 7 13 7C14.654 7 16 8.346 16 10C16 11.654 14.654 13 13 13Z" fill="#1F3345" stroke="#1F3345" stroke-width="0.4"/>
</svg>
