<svg width="17" height="17" viewBox="0 0 17 17" fill="none" xmlns="http://www.w3.org/2000/svg">
<g clip-path="url(#clip0_559_21)">
<path d="M4.95833 4.24992H16.2917C16.4795 4.24992 16.6597 4.17529 16.7925 4.04245C16.9254 3.90961 17 3.72945 17 3.54159C17 3.35372 16.9254 3.17356 16.7925 3.04072C16.6597 2.90788 16.4795 2.83325 16.2917 2.83325H4.95833C4.77047 2.83325 4.5903 2.90788 4.45747 3.04072C4.32463 3.17356 4.25 3.35372 4.25 3.54159C4.25 3.72945 4.32463 3.90961 4.45747 4.04245C4.5903 4.17529 4.77047 4.24992 4.95833 4.24992Z" fill="#1F3345"/>
<path d="M16.2917 7.79175H4.95833C4.77047 7.79175 4.5903 7.86638 4.45747 7.99921C4.32463 8.13205 4.25 8.31222 4.25 8.50008C4.25 8.68794 4.32463 8.86811 4.45747 9.00095C4.5903 9.13379 4.77047 9.20841 4.95833 9.20841H16.2917C16.4795 9.20841 16.6597 9.13379 16.7925 9.00095C16.9254 8.86811 17 8.68794 17 8.50008C17 8.31222 16.9254 8.13205 16.7925 7.99921C16.6597 7.86638 16.4795 7.79175 16.2917 7.79175Z" fill="#1F3345"/>
<path d="M16.2917 12.75H4.95833C4.77047 12.75 4.5903 12.8246 4.45747 12.9575C4.32463 13.0903 4.25 13.2705 4.25 13.4583C4.25 13.6462 4.32463 13.8264 4.45747 13.9592C4.5903 14.092 4.77047 14.1667 4.95833 14.1667H16.2917C16.4795 14.1667 16.6597 14.092 16.7925 13.9592C16.9254 13.8264 17 13.6462 17 13.4583C17 13.2705 16.9254 13.0903 16.7925 12.9575C16.6597 12.8246 16.4795 12.75 16.2917 12.75Z" fill="#1F3345"/>
<path d="M1.41667 4.95833C2.19907 4.95833 2.83333 4.32407 2.83333 3.54167C2.83333 2.75926 2.19907 2.125 1.41667 2.125C0.634263 2.125 0 2.75926 0 3.54167C0 4.32407 0.634263 4.95833 1.41667 4.95833Z" fill="#1F3345"/>
<path d="M1.41667 9.91659C2.19907 9.91659 2.83333 9.28232 2.83333 8.49992C2.83333 7.71752 2.19907 7.08325 1.41667 7.08325C0.634263 7.08325 0 7.71752 0 8.49992C0 9.28232 0.634263 9.91659 1.41667 9.91659Z" fill="#1F3345"/>
<path d="M1.41667 14.8751C2.19907 14.8751 2.83333 14.2408 2.83333 13.4584C2.83333 12.676 2.19907 12.0417 1.41667 12.0417C0.634263 12.0417 0 12.676 0 13.4584C0 14.2408 0.634263 14.8751 1.41667 14.8751Z" fill="#1F3345"/>
</g>
<defs>
<clipPath id="clip0_559_21">
<rect width="17" height="17" fill="white"/>
</clipPath>
</defs>
</svg>
