<svg width="23" height="23" viewBox="0 0 23 23" fill="none" xmlns="http://www.w3.org/2000/svg">
<path d="M11.5 11.483C12.1922 11.483 12.8689 11.2779 13.4445 10.8938C14.0201 10.5096 14.4687 9.9636 14.7336 9.32478C14.9985 8.68595 15.0678 7.98301 14.9327 7.30484C14.7977 6.62667 14.4644 6.00373 13.9749 5.5148C13.4854 5.02586 12.8617 4.6929 12.1828 4.558C11.5039 4.4231 10.8001 4.49234 10.1606 4.75694C9.52107 5.02155 8.97444 5.46965 8.58986 6.04458C8.20527 6.6195 8 7.29543 8 7.98689C8 8.9141 8.36875 9.80334 9.02513 10.459C9.6815 11.1146 10.5717 11.483 11.5 11.483ZM11.5 6.23886C11.8461 6.23886 12.1845 6.34138 12.4722 6.53345C12.76 6.72553 12.9843 6.99853 13.1168 7.31795C13.2492 7.63736 13.2839 7.98883 13.2164 8.32791C13.1489 8.667 12.9822 8.97847 12.7374 9.22294C12.4927 9.4674 12.1809 9.63389 11.8414 9.70134C11.5019 9.76878 11.1501 9.73417 10.8303 9.60186C10.5105 9.46956 10.2372 9.24551 10.0449 8.95805C9.85264 8.67058 9.75 8.33262 9.75 7.98689C9.75 7.52328 9.93437 7.07866 10.2626 6.75084C10.5908 6.42302 11.0359 6.23886 11.5 6.23886ZM15 20.2493L22 21.9519V12.7791C21.9998 12.2161 21.8182 11.6682 21.4821 11.2163C21.146 10.7644 20.6732 10.4325 20.1336 10.2698L18.2961 9.65801C18.4305 9.11285 18.4989 8.55357 18.5 7.99213C18.5 6.1377 17.7625 4.35923 16.4497 3.04795C15.137 1.73667 13.3565 1 11.5 1C9.64349 1 7.86301 1.73667 6.55025 3.04795C5.2375 4.35923 4.5 6.1377 4.5 7.99213C4.50259 8.34693 4.53184 8.70102 4.5875 9.05144C4.19014 8.89321 3.76 8.83464 3.33474 8.88087C2.90947 8.92711 2.50202 9.07673 2.14804 9.31665C1.79406 9.55657 1.50433 9.87948 1.30419 10.2571C1.10405 10.6348 0.999612 11.0557 1 11.483V20.0064L7.98513 22L15 20.2493ZM7.78738 4.28455C8.77371 3.31331 10.1043 2.77073 11.4893 2.77502C12.8744 2.77931 14.2016 3.33012 15.1819 4.30746C16.1622 5.2848 16.7161 6.60949 16.723 7.99294C16.7299 9.3764 16.1892 10.7065 15.2188 11.6936L11.5 15.3286L7.78738 11.7006C6.80289 10.7171 6.24981 9.38333 6.24981 7.99257C6.24981 6.60181 6.80289 5.268 7.78738 4.28455ZM2.75 11.483C2.7489 11.3388 2.78405 11.1967 2.85223 11.0696C2.92042 10.9426 3.01945 10.8347 3.14025 10.7558C3.26661 10.6729 3.41218 10.624 3.56297 10.6136C3.71375 10.6031 3.86468 10.6317 4.00125 10.6963L5.256 11.1491C5.5917 11.8131 6.03088 12.4197 6.55713 12.9461L11.5 17.7759L16.4499 12.9399C16.9366 12.4545 17.3493 11.9003 17.6749 11.295L19.6147 11.9427C19.7975 11.9949 19.9582 12.1051 20.0726 12.2566C20.1871 12.4082 20.249 12.5928 20.2491 12.7826V19.7302L15 18.4489L8.0175 20.1969L2.75 18.6901V11.483Z" fill="#1F3345" stroke="white" stroke-width="0.7"/>
</svg>
