<svg width="16" height="16" viewBox="0 0 16 16" fill="none" xmlns="http://www.w3.org/2000/svg">
<g clip-path="url(#clip0_2509_1744)">
<path d="M13.9993 16.0001H10.666V14.6667H13.9993C14.1762 14.6667 14.3457 14.5965 14.4708 14.4715C14.5958 14.3465 14.666 14.1769 14.666 14.0001V10.6667H15.9993V14.0001C15.9993 14.5305 15.7886 15.0392 15.4136 15.4143C15.0385 15.7894 14.5298 16.0001 13.9993 16.0001Z" fill="#1F3345"/>
<path d="M1.33333 5.33333H0V2C0 1.46957 0.210714 0.960859 0.585787 0.585787C0.960859 0.210714 1.46957 0 2 0L5.33333 0V1.33333H2C1.82319 1.33333 1.65362 1.40357 1.5286 1.5286C1.40357 1.65362 1.33333 1.82319 1.33333 2V5.33333Z" fill="#1F3345"/>
<path d="M5.33333 16.0001H2C1.46957 16.0001 0.960859 15.7894 0.585787 15.4143C0.210714 15.0392 0 14.5305 0 14.0001L0 10.6667H1.33333V14.0001C1.33333 14.1769 1.40357 14.3465 1.5286 14.4715C1.65362 14.5965 1.82319 14.6667 2 14.6667H5.33333V16.0001Z" fill="#1F3345"/>
<path d="M15.9993 5.33333H14.666V2C14.666 1.82319 14.5958 1.65362 14.4708 1.5286C14.3457 1.40357 14.1762 1.33333 13.9993 1.33333H10.666V0H13.9993C14.5298 0 15.0385 0.210714 15.4136 0.585787C15.7886 0.960859 15.9993 1.46957 15.9993 2V5.33333Z" fill="#1F3345"/>
</g>
<defs>
<clipPath id="clip0_2509_1744">
<rect width="16" height="16" fill="white"/>
</clipPath>
</defs>
</svg>
