<svg width="22" height="22" viewBox="0 0 22 22" fill="none" xmlns="http://www.w3.org/2000/svg">
<circle cx="11" cy="11" r="11" fill="#1FB796"/>
<g clip-path="url(#clip0_1099_982)">
<path d="M16.4933 6.88225L9.5838 13.7913C9.53735 13.8379 9.48214 13.8749 9.42135 13.9001C9.36056 13.9254 9.29538 13.9384 9.22955 13.9384C9.16372 13.9384 9.09855 13.9254 9.03775 13.9001C8.97696 13.8749 8.92176 13.8379 8.8753 13.7913L6.2033 11.1168C6.15685 11.0701 6.10164 11.0331 6.04085 11.0079C5.98006 10.9826 5.91488 10.9696 5.84905 10.9696C5.78322 10.9696 5.71804 10.9826 5.65725 11.0079C5.59646 11.0331 5.54126 11.0701 5.4948 11.1168C5.44816 11.1632 5.41116 11.2184 5.38591 11.2792C5.36065 11.34 5.34766 11.4052 5.34766 11.471C5.34766 11.5368 5.36065 11.602 5.38591 11.6628C5.41116 11.7236 5.44816 11.7788 5.4948 11.8253L8.1678 14.4978C8.44978 14.7792 8.8319 14.9373 9.2303 14.9373C9.6287 14.9373 10.0108 14.7792 10.2928 14.4978L17.2018 7.59025C17.2484 7.54381 17.2853 7.48863 17.3105 7.42789C17.3357 7.36714 17.3487 7.30202 17.3487 7.23625C17.3487 7.17048 17.3357 7.10536 17.3105 7.04462C17.2853 6.98387 17.2484 6.9287 17.2018 6.88225C17.1553 6.83561 17.1001 6.79861 17.0393 6.77336C16.9786 6.74811 16.9134 6.73511 16.8476 6.73511C16.7817 6.73511 16.7165 6.74811 16.6558 6.77336C16.595 6.79861 16.5398 6.83561 16.4933 6.88225Z" fill="white"/>
</g>
<defs>
<clipPath id="clip0_1099_982">
<rect width="12" height="12" fill="white" transform="translate(5.33398 4.66675)"/>
</clipPath>
</defs>
</svg>
