<svg width="20" height="18" viewBox="0 0 20 18" fill="none" xmlns="http://www.w3.org/2000/svg">
<path d="M9.40394 0.929465C9.55697 0.475937 10.1984 0.475937 10.3515 0.929466L12.2051 6.42317C12.2737 6.62645 12.4643 6.76331 12.6789 6.76331H18.6361C19.1251 6.76331 19.3234 7.39272 18.9228 7.673L14.1361 11.0219C13.9542 11.1492 13.878 11.3811 13.949 11.5914L15.7849 17.0326C15.9392 17.4899 15.42 17.8788 15.0245 17.6021L10.1643 14.2018C9.99221 14.0814 9.76318 14.0814 9.59107 14.2018L4.73087 17.6021C4.33536 17.8788 3.81616 17.4899 3.97048 17.0326L5.80641 11.5914C5.87738 11.3811 5.80117 11.1492 5.61928 11.0219L0.832625 7.673C0.432018 7.39272 0.630337 6.76331 1.11926 6.76331H7.07652C7.29106 6.76331 7.48168 6.62645 7.55027 6.42317L9.40394 0.929465Z" fill="#1FB796"/>
</svg>
