<svg width="24" height="24" viewBox="0 0 24 24" fill="none" xmlns="http://www.w3.org/2000/svg">
<path d="M23.3182 11.6716C23.392 18.0569 18.0519 23.335 11.6628 23.3325C5.27744 23.33 -0.00185951 18.0507 4.91335e-07 11.6616C0.00186049 5.27689 5.29046 -0.0216336 11.7087 6.64181e-05C18.06 0.0217664 23.3969 5.28123 23.3182 11.6716ZM9.43268 18.7067C9.65464 18.7315 9.82142 18.628 9.97456 18.4742C13.3529 15.0921 16.7338 11.7119 20.1116 8.32915C20.4743 7.96583 20.4693 7.66079 20.1091 7.29065C19.7464 6.91741 19.375 6.55285 19.0067 6.18519C18.4754 5.65509 18.2348 5.65509 17.706 6.18395C15.053 8.83693 12.3975 11.4868 9.75322 14.1485C9.51266 14.3903 9.3806 14.3779 9.15182 14.1423C7.96266 12.919 6.75862 11.7094 5.55582 10.4991C5.16088 10.1017 4.79446 10.1054 4.39394 10.4998C4.00582 10.8817 3.62018 11.2667 3.23888 11.6554C2.86502 12.0367 2.84704 12.3573 3.2147 12.7287C5.12244 14.6544 7.03824 16.5727 8.9497 18.4947C9.08424 18.6292 9.23242 18.721 9.43268 18.7067Z" fill="#1F3345"/>
</svg>
