<svg width="22" height="20" viewBox="0 0 22 20" fill="none" xmlns="http://www.w3.org/2000/svg">
<path d="M19.5917 1.8346C18.1912 0.3434 16.4434 -0.23452 14.4439 0.10532C13.6974 0.23204 13.0036 0.51428 12.3768 0.97508C11.8163 1.38724 11.3172 1.86084 10.8665 2.39332C10.6904 2.60068 10.6551 2.59108 10.4827 2.369C10.3184 2.15844 10.1442 1.95492 9.96065 1.76164C9.24393 1.00964 8.39391 0.4618 7.40811 0.20452C5.60329 -0.26588 3.93549 0.0713998 2.44811 1.2554C2.06185 1.5626 1.69295 1.8954 1.38853 2.28516C0.920434 2.88484 0.586254 3.55428 0.358714 4.3018C0.0183339 5.42052 -0.0752864 6.54436 0.0586336 7.69828C0.129934 8.31332 0.270674 8.92196 0.492634 9.48708C1.05063 10.9053 2.00295 12.056 3.00301 13.1594C3.47483 13.6797 3.97083 14.1751 4.51395 14.6218C4.84565 14.8944 5.12589 15.233 5.44643 15.5223C6.26235 16.2576 7.08695 16.9821 7.90969 17.7098C8.52721 18.2557 9.14473 18.8004 9.76535 19.3424C10.0028 19.5498 10.2731 19.6906 10.5881 19.7239C10.6396 19.7514 10.6916 19.7623 10.7437 19.7252C11.1132 19.6688 11.4474 19.5338 11.7332 19.2752C12.0476 18.9911 12.3588 18.7037 12.6676 18.4125C13.4798 17.6464 14.3627 16.9648 15.1736 16.1962C15.9455 15.464 16.7738 14.7978 17.5197 14.0349C18.3672 13.1677 19.2166 12.3056 19.8937 11.2784C20.7257 10.017 21.3166 8.67428 21.409 7.12484C21.5311 5.09028 20.9613 3.29316 19.5917 1.8346Z" fill="#fff"/>
</svg>
