<svg width="22" height="20" viewBox="0 0 22 20" fill="none" xmlns="http://www.w3.org/2000/svg">
<path d="M19.5917 1.8346C18.1912 0.3434 16.4434 -0.23452 14.4439 0.10532C13.6974 0.23204 13.0036 0.51428 12.3768 0.97508C11.8163 1.38724 11.3172 1.86084 10.8665 2.39332C10.6904 2.60068 10.6551 2.59108 10.4827 2.369C10.3184 2.15844 10.1442 1.95492 9.96065 1.76164C9.24393 1.00964 8.39391 0.4618 7.40811 0.20452C5.60329 -0.26588 3.93549 0.0713998 2.44811 1.2554C2.06185 1.5626 1.69295 1.8954 1.38853 2.28516C0.920434 2.88484 0.586254 3.55428 0.358714 4.3018C0.0183338 5.42052 -0.0752864 6.54436 0.0586336 7.69828C0.129934 8.31332 0.270674 8.92196 0.492634 9.48708C1.05063 10.9053 2.00295 12.056 3.00301 13.1594C3.47483 13.6797 3.97083 14.1751 4.51395 14.6218C4.84565 14.8944 5.12589 15.233 5.44643 15.5223C6.26235 16.2576 7.08695 16.9821 7.90969 17.7098C8.52721 18.2557 9.14473 18.8004 9.76535 19.3424C10.0028 19.5498 10.2731 19.6906 10.5881 19.7239C10.6396 19.7514 10.6916 19.7623 10.7437 19.7252C11.1132 19.6688 11.4474 19.5338 11.7332 19.2752C12.0476 18.9911 12.3588 18.7037 12.6676 18.4125C13.4798 17.6464 14.3627 16.9648 15.1736 16.1962C15.9455 15.464 16.7738 14.7978 17.5197 14.0349C18.3672 13.1677 19.2166 12.3056 19.8937 11.2784C20.7257 10.017 21.3166 8.67428 21.409 7.12484C21.5311 5.09028 20.9613 3.29316 19.5917 1.8346ZM19.8255 8.3274C19.4386 9.76548 18.5898 10.8848 17.64 11.9415C16.8985 12.7664 16.0894 13.5236 15.2679 14.264C14.4067 15.0404 13.5374 15.8071 12.6707 16.5764C12.1028 17.0807 11.5299 17.578 10.9663 18.0874C10.771 18.264 10.6024 18.2871 10.4083 18.0938C10.1634 17.8493 9.91911 17.6023 9.65499 17.3808C9.05917 16.8804 8.45033 16.3952 7.88613 15.8576C7.49119 15.4813 7.10059 15.0986 6.68209 14.7511C6.26979 14.4087 5.85935 14.0656 5.47743 13.6874C5.02793 13.242 4.59579 12.778 4.13761 12.3421C3.73523 11.9594 3.33471 11.5741 3.01293 11.1184C2.14369 9.88836 1.43193 8.5834 1.30359 7.0218C1.19633 5.71684 1.54539 4.54244 2.26955 3.48068C2.48469 3.16516 2.70293 2.84388 2.96643 2.5738C3.60007 1.92548 4.42715 1.69508 5.27221 1.52932C5.54811 1.47492 5.83269 1.46468 6.11293 1.43396C6.68891 1.39812 7.21839 1.51652 7.74229 1.79044C8.74173 2.31396 9.44977 3.13188 10.0165 4.0906C10.2638 4.50916 10.9285 4.68004 11.3346 4.14756C11.5088 3.91908 11.6539 3.66628 11.8306 3.43972C12.0817 3.1178 12.3136 2.7658 12.6167 2.50532C13.8524 1.44356 15.7589 1.03524 17.4403 1.91844C18.5489 2.5002 19.2681 3.38916 19.6916 4.53924C20.1466 5.77188 20.1733 7.03588 19.8255 8.3274Z" fill="#fff"/>
</svg>
