<svg width="15" height="15" viewBox="0 0 15 15" fill="none" xmlns="http://www.w3.org/2000/svg">
<path d="M6.67277 1.67888C6.54175 1.19679 6.25573 0.771215 5.85885 0.467801C5.46197 0.164387 4.97627 0 4.4767 0C3.97712 0 3.49143 0.164387 3.09454 0.467801C2.69766 0.771215 2.41165 1.19679 2.28062 1.67888H0V2.89977H2.28062C2.41165 3.38186 2.69766 3.80744 3.09454 4.11085C3.49143 4.41427 3.97712 4.57865 4.4767 4.57865C4.97627 4.57865 5.46197 4.41427 5.85885 4.11085C6.25573 3.80744 6.54175 3.38186 6.67277 2.89977H14.6507V1.67888H6.67277ZM4.47639 3.3576C4.26511 3.3576 4.05857 3.29495 3.88289 3.17757C3.70721 3.06018 3.57029 2.89334 3.48943 2.69814C3.40858 2.50294 3.38742 2.28814 3.42864 2.08092C3.46986 1.87369 3.5716 1.68334 3.721 1.53394C3.87041 1.38454 4.06076 1.28279 4.26798 1.24157C4.47521 1.20035 4.69 1.22151 4.8852 1.30237C5.08041 1.38322 5.24725 1.52015 5.36463 1.69582C5.48202 1.8715 5.54467 2.07804 5.54467 2.28933C5.54419 2.5725 5.43148 2.84394 5.23124 3.04418C5.03101 3.24442 4.75957 3.35712 4.47639 3.3576Z" fill="#1F3345"/>
<path d="M10.1743 5.03638C9.67522 5.03816 9.19045 5.20321 8.79397 5.50633C8.3975 5.80944 8.11111 6.23397 7.97851 6.7151H0V7.93599H7.97851C8.10932 8.41819 8.39522 8.84392 8.79207 9.14746C9.18892 9.451 9.67466 9.61547 10.1743 9.61547C10.6739 9.61547 11.1596 9.451 11.5565 9.14746C11.9533 8.84392 12.2392 8.41819 12.3701 7.93599H14.6507V6.7151H12.3701C12.2375 6.23397 11.9511 5.80944 11.5546 5.50633C11.1581 5.20321 10.6733 5.03816 10.1743 5.03638ZM10.1743 8.39382C9.963 8.39382 9.75646 8.33117 9.58078 8.21379C9.4051 8.0964 9.26818 7.92956 9.18732 7.73436C9.10647 7.53916 9.08531 7.32436 9.12653 7.11713C9.16775 6.90991 9.2695 6.71956 9.4189 6.57016C9.5683 6.42076 9.75865 6.31901 9.96587 6.27779C10.1731 6.23657 10.3879 6.25773 10.5831 6.33858C10.7783 6.41944 10.9451 6.55636 11.0625 6.73204C11.1799 6.90772 11.2426 7.11426 11.2426 7.32555C11.2422 7.60877 11.1296 7.8803 10.9293 8.08058C10.729 8.28085 10.4575 8.3935 10.1743 8.39382Z" fill="#1F3345"/>
<path d="M4.47639 10.0728C3.97701 10.0741 3.49182 10.239 3.09498 10.5422C2.69814 10.8453 2.41147 11.27 2.27879 11.7515H0V12.9724H2.28062C2.41165 13.4545 2.69766 13.88 3.09454 14.1834C3.49143 14.4869 3.97712 14.6512 4.4767 14.6512C4.97627 14.6512 5.46197 14.4869 5.85885 14.1834C6.25573 13.88 6.54175 13.4545 6.67277 12.9724H14.6507V11.7515H6.67277C6.54015 11.2702 6.25367 10.8456 5.85707 10.5425C5.46047 10.2394 4.97556 10.0744 4.47639 10.0728ZM4.47639 13.4302C4.26511 13.4302 4.05857 13.3675 3.88289 13.2502C3.70721 13.1328 3.57029 12.9659 3.48943 12.7707C3.40858 12.5755 3.38742 12.3607 3.42864 12.1535C3.46986 11.9463 3.5716 11.7559 3.721 11.6065C3.87041 11.4571 4.06076 11.3554 4.26798 11.3142C4.47521 11.273 4.69 11.2941 4.8852 11.375C5.08041 11.4558 5.24725 11.5927 5.36463 11.7684C5.48202 11.9441 5.54467 12.1506 5.54467 12.3619C5.54419 12.6451 5.43148 12.9165 5.23124 13.1168C5.03101 13.317 4.75957 13.4297 4.47639 13.4302Z" fill="#1F3345"/>
</svg>
