<svg width="29" height="29" viewBox="0 0 29 29" fill="none" xmlns="http://www.w3.org/2000/svg">
<path d="M0.260742 7.57847C0.509818 6.27387 0.741883 4.96519 1.4482 3.80477C3.06011 1.1589 5.58083 0.143482 8.48752 0.0722032C12.4509 -0.0255506 16.4199 -0.0231067 20.3832 0.0738325C23.0744 0.139816 25.4692 1.031 27.1078 3.37628C28.1625 4.88617 28.5557 6.61519 28.5824 8.40246C28.6399 12.2336 28.6667 16.0676 28.5792 19.8971C28.5087 22.9816 27.4424 25.614 24.5705 27.1822C23.2441 27.9064 21.7898 28.2212 20.3062 28.2383C16.3927 28.2835 12.4772 28.3222 8.56569 28.2322C5.63065 28.1646 3.07995 27.1683 1.44901 24.4948C0.741478 23.3352 0.510223 22.0257 0.261147 20.7215V7.57847H0.260742ZM14.4584 2.77265C12.5144 2.77265 10.5696 2.73518 8.62684 2.78121C5.59096 2.85289 3.72431 4.28335 3.17189 6.91212C3.05444 7.47013 2.96736 8.04688 2.96453 8.61548C2.94671 12.3171 2.8973 16.0199 2.97263 19.7199C3.04755 23.402 4.89841 25.3713 8.43001 25.502C12.4189 25.6495 16.4142 25.6369 20.4039 25.5045C23.3458 25.4067 25.0942 23.9824 25.6567 21.4257C25.7572 20.9691 25.8523 20.4995 25.8548 20.0356C25.8766 15.8155 26.1063 11.59 25.7276 7.37808C25.5032 4.88291 23.8411 3.25287 21.369 2.91195C19.0722 2.59507 16.7613 2.82031 14.4584 2.77306V2.77265Z" fill="white"/>
<path d="M21.7696 14.1984C21.7578 18.175 18.4769 21.4432 14.4484 21.4917C10.4069 21.5405 7.05469 18.1851 7.06644 14.1031C7.07818 10.0907 10.4834 6.73409 14.4654 6.80985C18.551 6.88765 21.7817 10.1555 21.7696 14.198V14.1984ZM19.0439 14.1622C19.0484 11.6312 16.9768 9.55836 14.4294 9.54492C11.8989 9.53148 9.79655 11.6145 9.79209 14.1394C9.78804 16.6704 11.8596 18.7431 14.4067 18.7566C16.9367 18.77 19.0395 16.6867 19.0439 14.1622Z" fill="white"/>
<path d="M21.9702 4.87905C22.9451 4.86643 23.77 5.67819 23.7648 6.64554C23.7595 7.57258 22.9689 8.36723 22.0245 8.39411C21.0525 8.42222 20.2101 7.62471 20.1927 6.66143C20.1752 5.68796 20.969 4.89209 21.9706 4.87946L21.9702 4.87905Z" fill="white"/>
</svg>
