<svg width="27" height="27" viewBox="0 0 27 27" fill="none" xmlns="http://www.w3.org/2000/svg">
<path d="M6.14034 3.22602C6.14034 4.79925 5.1451 6.08631 3.29625 6.08631C1.58987 6.08631 0.452148 4.79925 0.452148 3.36888C0.452148 1.79565 1.58987 0.365723 3.29625 0.365723C5.00262 0.365723 6.14034 1.65279 6.14034 3.22602Z" fill="white"/>
<path d="M6.14034 7.51611H0.452148V26.1078H6.14034V7.51611Z" fill="white"/>
<path d="M19.7921 7.80273C16.806 7.80273 15.0992 9.51882 14.3885 10.663H14.2464L13.9619 8.23176H8.84277C8.84277 9.80498 8.98483 11.6639 8.98483 13.8095V26.1087H14.673V15.9546C14.673 15.3827 14.673 14.9537 14.8155 14.5247C15.2421 13.5238 15.9532 12.2363 17.5171 12.2363C19.508 12.2363 20.3612 13.9523 20.3612 16.2408V26.1087H26.0494V15.5256C26.0494 10.234 23.3474 7.80273 19.7926 7.80273H19.7921Z" fill="white"/>
</svg>
