<svg width="24" height="28" viewBox="0 0 24 28" fill="none" xmlns="http://www.w3.org/2000/svg">
<path d="M23.7918 9.27214C23.2689 5.5572 20.875 3.05856 17.1384 1.68542C14.2709 0.631648 11.3313 0.701764 8.40053 1.47831C6.30856 2.03275 4.52637 3.05937 3.11897 4.60598C1.67116 6.19717 0.884198 8.04085 0.67153 10.1038C0.443043 12.3212 1.02085 14.3363 2.43264 16.1435C2.89225 16.732 3.46874 17.2058 4.16782 17.5446C4.63797 17.7724 4.76452 17.7177 4.89063 17.2484C5.00794 16.8106 5.0989 16.3648 5.24961 15.9372C5.40296 15.5028 5.38846 15.1311 5.02992 14.7821C4.88579 14.6423 4.7966 14.4506 4.69817 14.2751C3.04955 11.3351 3.92 7.50951 6.80244 5.45872C9.47266 3.5591 12.4592 3.2835 15.5579 4.40698C17.6907 5.18028 19.0832 6.67947 19.61 8.7335C20.2515 11.235 19.8934 13.6647 18.5045 15.9089C17.5813 17.4003 16.2244 18.3848 14.2792 18.4918C12.838 18.5708 11.5247 17.7663 11.276 16.4232C11.1854 15.9336 11.283 15.4582 11.4297 14.9905C11.801 13.8074 12.1851 12.6276 12.5506 11.4429C12.7506 10.7952 12.8679 10.135 12.8218 9.45574C12.7264 8.03883 11.4899 7.17433 9.99335 7.49979C8.96121 7.72432 8.29244 8.36752 7.85392 9.2154C7.09157 10.6895 7.16758 12.1988 7.73045 13.7081C7.81262 13.9282 7.82932 14.1264 7.77176 14.3481C7.23218 16.4337 6.74796 18.5327 6.14818 20.6038C5.56862 22.606 5.31025 24.6199 5.58048 26.6763C5.62178 26.99 5.82259 27.5473 5.82259 27.5473L6.76993 27.7321C6.79761 27.6993 6.93646 27.4655 7.0718 27.2207C8.12064 25.3206 8.9634 23.9422 9.39533 22.0997C9.59921 21.23 9.87691 20.3748 10.1269 19.5144C10.1533 19.4244 10.1384 19.2894 10.2566 19.2602C10.3901 19.2274 10.4196 19.3677 10.4767 19.4414C10.7513 19.7969 11.0993 20.0777 11.4957 20.3092C12.5493 20.9248 13.6997 21.1518 14.9418 21.0865C17.0725 20.9746 18.9149 20.2427 20.4154 18.8631C23.3049 16.2063 24.3028 12.9052 23.7913 9.27174L23.7918 9.27214Z" fill="white"/>
</svg>
