<svg width="22" height="24" viewBox="0 0 22 24" fill="none" xmlns="http://www.w3.org/2000/svg">
<path d="M11.6393 8.96954C11.6393 6.35262 11.6389 3.73532 11.6397 1.1184C11.6397 0.57762 11.6421 0.569537 12.2158 0.580315C13.2561 0.599559 14.2961 0.63805 15.3365 0.649212C15.6275 0.652291 15.7297 0.757368 15.7381 1.02795C15.7792 2.36008 16.2008 3.56866 17.026 4.64329C17.8715 5.7441 19.0812 6.18057 20.4217 6.37187C20.7595 6.41998 21.1024 6.44269 21.4437 6.45193C21.7028 6.45924 21.7907 6.57779 21.7903 6.80796C21.7879 7.95149 21.7843 9.09463 21.7935 10.2382C21.7959 10.5476 21.6426 10.6265 21.3531 10.6208C19.5039 10.5853 17.7553 10.182 16.1313 9.31441C15.7177 9.09348 15.7177 9.09001 15.7177 9.53765C15.7181 11.4814 15.6698 13.4267 15.7389 15.3681C15.7836 16.6298 15.7093 17.8545 15.2574 19.0404C14.2426 21.7016 12.2273 23.2465 9.37091 23.7127C6.9209 24.1122 4.67648 23.5595 2.78857 21.9452C1.25317 20.6323 0.520597 18.9284 0.323781 16.9839C-0.056277 13.2338 2.73427 10.0065 6.22905 9.19163C7.14726 8.97762 8.07544 8.92451 9.01361 9.0496C9.21721 9.07693 9.31542 9.16699 9.31502 9.37253C9.31143 10.5161 9.31063 11.6592 9.31622 12.8027C9.31742 13.0841 9.1729 13.0598 8.95772 13.0164C7.11931 12.6461 5.40306 13.4236 4.69684 14.9936C3.87365 16.8234 4.66451 19.1793 7.06701 19.7894C9.03916 20.2901 10.8109 19.3895 11.4984 17.5651C11.6034 17.2864 11.6421 17.0024 11.6417 16.7064C11.6381 14.1276 11.6397 11.5484 11.6397 8.96954H11.6393Z" fill="white"/>
</svg>
