<svg width="27" height="22" viewBox="0 0 27 22" fill="none" xmlns="http://www.w3.org/2000/svg">
<path d="M18.209 10.9834C18.2204 11.0449 18.2244 11.1064 18.2204 11.1687C18.2338 11.1068 18.2342 11.0445 18.209 10.9834Z" fill="white"/>
<path d="M13.6417 0.942383C0.746498 0.942383 0.520508 2.09588 0.520508 11.1031C0.520508 20.1103 0.746092 21.2638 13.6417 21.2638C26.5373 21.2638 26.7629 20.1103 26.7629 11.1031C26.7629 2.09588 26.5373 0.942383 13.6417 0.942383ZM17.8225 11.7674L11.9018 14.6454C11.426 14.8768 10.8727 14.5281 10.8727 13.9962V8.37086C10.8727 7.84462 11.415 7.49555 11.8901 7.71631L17.8108 10.4632C18.04 10.5695 18.1692 10.7691 18.2093 10.9833C18.2344 11.044 18.234 11.1059 18.2207 11.1674C18.2045 11.409 18.0757 11.644 17.8225 11.767V11.7674Z" fill="white"/>
</svg>
