<svg width="12" height="12" viewBox="0 0 12 12" fill="none" xmlns="http://www.w3.org/2000/svg">
<path d="M5.98079 1.83342C6.53348 1.83523 7.08032 1.94664 7.58967 2.16119C8.09903 2.37575 8.56077 2.68919 8.94818 3.08338H7.64739C7.53689 3.08338 7.43091 3.12727 7.35278 3.20541C7.27464 3.28355 7.23074 3.38952 7.23074 3.50003C7.23074 3.61053 7.27464 3.71651 7.35278 3.79464C7.43091 3.87278 7.53689 3.91668 7.64739 3.91668H9.37358C9.57875 3.91657 9.77549 3.83502 9.92057 3.68994C10.0656 3.54486 10.1472 3.34813 10.1473 3.14296V1.41677C10.1473 1.30626 10.1034 1.20029 10.0253 1.12215C9.94713 1.04401 9.84116 1.00011 9.73065 1.00011C9.62015 1.00011 9.51417 1.04401 9.43604 1.12215C9.3579 1.20029 9.314 1.30626 9.314 1.41677V2.28257C8.62535 1.66236 7.77763 1.24611 6.8658 1.08042C5.95396 0.914738 5.014 1.00616 4.15118 1.34446C3.28836 1.68275 2.53675 2.25456 1.98051 2.99585C1.42428 3.73713 1.08539 4.61863 1.00179 5.54162C0.996412 5.59964 1.00317 5.65815 1.02165 5.71341C1.04013 5.76868 1.06992 5.81949 1.10911 5.86261C1.14831 5.90572 1.19606 5.9402 1.24932 5.96385C1.30258 5.98749 1.36017 5.99978 1.41845 5.99994C1.52035 6.00124 1.61908 5.96446 1.69529 5.8968C1.77151 5.82913 1.81973 5.73546 1.83051 5.63412C1.92327 4.59697 2.40048 3.63198 3.16842 2.92873C3.93635 2.22548 4.9395 1.83479 5.98079 1.83342Z" fill="#1F3345" fill-opacity="0.8"/>
<path d="M8.6993 2.98338C8.36049 2.67785 7.97237 2.43091 7.55086 2.25335C7.05376 2.04396 6.52007 1.93522 5.98068 1.93342C4.96443 1.93482 3.98543 2.31613 3.23595 3.00248C2.48643 3.68888 2.02065 4.63073 1.93012 5.64303L1.92997 5.6447L1.92995 5.6447C1.91653 5.77081 1.85653 5.88738 1.76168 5.97158C1.66696 6.05567 1.54431 6.10143 1.41767 6.09994M8.6993 2.98338L0.926813 5.74512C0.949694 5.81356 0.986579 5.87648 1.03512 5.92987C1.08366 5.98327 1.14279 6.02596 1.20874 6.05524C1.27454 6.08446 1.34569 6.09968 1.41767 6.09994M8.6993 2.98338H7.64739C7.51037 2.98338 7.37896 3.03781 7.28207 3.1347C7.18517 3.23159 7.13074 3.363 7.13074 3.50003C7.13074 3.63705 7.18517 3.76846 7.28207 3.86536C7.37896 3.96225 7.51037 4.01668 7.64739 4.01668H9.37358H9.37364C9.60531 4.01655 9.82746 3.92447 9.99128 3.76065C10.1551 3.59683 10.2472 3.37468 10.2473 3.14301V3.14296V1.41677C10.2473 1.27974 10.1929 1.14833 10.096 1.05144C9.99909 0.954548 9.86768 0.900115 9.73065 0.900115C9.59363 0.900115 9.46222 0.954548 9.36532 1.05144C9.26843 1.14833 9.214 1.27974 9.214 1.41677V2.06435C8.54348 1.51109 7.74139 1.13789 6.88367 0.982035C5.95357 0.81303 4.99478 0.906285 4.11467 1.25136C3.23457 1.59643 2.4679 2.17969 1.90053 2.93583C1.33317 3.69194 0.9875 4.59105 0.902211 5.53249L8.6993 2.98338ZM1.41767 6.09994C1.41751 6.09994 1.41734 6.09993 1.41717 6.09993L1.41845 5.99994L1.41818 6.09994C1.41801 6.09994 1.41784 6.09994 1.41767 6.09994Z" stroke="#1F3345" stroke-opacity="0.8" stroke-width="0.2"/>
<path d="M10.5437 5.99979C10.4418 5.99849 10.3431 6.03527 10.2669 6.10293C10.1907 6.1706 10.1424 6.26427 10.1317 6.36561C10.0628 7.1586 9.76789 7.91518 9.28196 8.54562C8.79603 9.17605 8.13947 9.65387 7.39015 9.92238C6.64084 10.1909 5.83023 10.2388 5.05449 10.0605C4.27874 9.8822 3.57043 9.48511 3.01358 8.91635H4.31437C4.42487 8.91635 4.53085 8.87246 4.60898 8.79432C4.68712 8.71618 4.73102 8.6102 4.73102 8.4997C4.73102 8.3892 4.68712 8.28322 4.60898 8.20508C4.53085 8.12695 4.42487 8.08305 4.31437 8.08305H2.58818C2.48655 8.08299 2.38592 8.10297 2.29202 8.14183C2.19812 8.1807 2.11281 8.23769 2.04095 8.30955C1.96909 8.3814 1.9121 8.46672 1.87324 8.56062C1.83437 8.65451 1.8144 8.75515 1.81445 8.85677V10.583C1.81445 10.6935 1.85835 10.7994 1.93649 10.8776C2.01463 10.9557 2.1206 10.9996 2.23111 10.9996C2.34161 10.9996 2.44759 10.9557 2.52572 10.8776C2.60386 10.7994 2.64776 10.6935 2.64776 10.583V9.71716C3.33641 10.3374 4.18413 10.7536 5.09596 10.9193C6.0078 11.085 6.94776 10.9936 7.81058 10.6553C8.6734 10.317 9.42501 9.74517 9.98125 9.00388C10.5375 8.26259 10.8764 7.3811 10.96 6.45811C10.9653 6.40008 10.9586 6.34158 10.9401 6.28631C10.9216 6.23105 10.8918 6.18024 10.8526 6.13712C10.8134 6.09401 10.7657 6.05953 10.7124 6.03588C10.6592 6.01224 10.602 5.99995 10.5437 5.99979Z" fill="#1F3345" fill-opacity="0.8"/>
<path d="M10.0322 6.35503L10.0322 6.35503C10.0456 6.22891 10.1056 6.11235 10.2005 6.02815C10.2952 5.94406 10.4179 5.8983 10.5445 5.89979C10.6166 5.90005 10.6873 5.91531 10.753 5.94449C10.819 5.97377 10.8781 6.01646 10.9266 6.06986L10.8526 6.13712L10.9266 6.06986C10.9752 6.12325 11.0121 6.18617 11.0349 6.2546C11.0578 6.32297 11.0662 6.39535 11.0596 6.46713C10.9743 7.40861 10.6286 8.30776 10.0612 9.0639C9.49386 9.82004 8.72719 10.4033 7.84708 10.7484C6.96698 11.0934 6.00819 11.1867 5.07809 11.0177C4.22037 10.8618 3.41828 10.4886 2.74776 9.93538V10.583C2.74776 10.72 2.69332 10.8514 2.59643 10.9483C2.49954 11.0452 2.36813 11.0996 2.23111 11.0996C2.09408 11.0996 1.96267 11.0452 1.86578 10.9483C1.76889 10.8514 1.71445 10.72 1.71445 10.583L1.71445 8.85683C1.71445 8.85681 1.71445 8.85679 1.71445 8.85677C1.7144 8.74203 1.73696 8.6284 1.78084 8.52237C1.82473 8.41633 1.88909 8.31998 1.97024 8.23883C2.05139 8.15768 2.14774 8.09333 2.25378 8.04944C2.35982 8.00555 2.47347 7.98299 2.58823 7.98305M10.0322 6.35503L2.58818 8.08305M10.0322 6.35503L10.032 6.35696C9.96482 7.13088 9.67701 7.86929 9.20276 8.48457C8.72851 9.09985 8.08772 9.56618 7.35642 9.82824C6.62511 10.0903 5.83398 10.1371 5.07689 9.96306C4.39963 9.80738 3.77503 9.48084 3.26179 9.01635M10.0322 6.35503L3.11489 9.01635M2.58823 7.98305L2.58818 8.08305M2.58823 7.98305H2.58818V8.08305M2.58823 7.98305H4.31437C4.45139 7.98305 4.5828 8.03748 4.67969 8.13437C4.77658 8.23126 4.83102 8.36268 4.83102 8.4997C4.83102 8.63673 4.77658 8.76814 4.67969 8.86503C4.5828 8.96192 4.45139 9.01635 4.31437 9.01635H3.26179M2.58818 8.08305H4.31437C4.42487 8.08305 4.53085 8.12695 4.60898 8.20508C4.68712 8.28322 4.73102 8.3892 4.73102 8.4997C4.73102 8.6102 4.68712 8.71618 4.60898 8.79432C4.53085 8.87246 4.42487 8.91635 4.31437 8.91635H3.15522C3.19018 8.95036 3.22571 8.9837 3.26179 9.01635M3.26179 9.01635H3.11489M3.11489 9.01635C3.08059 8.98364 3.04682 8.9503 3.01358 8.91635L3.11489 9.01635Z" stroke="#1F3345" stroke-opacity="0.8" stroke-width="0.2"/>
</svg>
