<svg width="31" height="31" viewBox="0 0 31 31" fill="none" xmlns="http://www.w3.org/2000/svg">
<path d="M5.08789 7.56282L5.25033 26.0512L14.4945 23.2941V5.08716L5.08789 7.56282Z" fill="#1F3A56"/>
<path d="M5.24996 27.1388C5.01994 27.1388 4.79302 27.0656 4.60392 26.9261C4.32926 26.7234 4.16558 26.4028 4.16248 26.0606L4.00004 7.57218C3.9957 7.07494 4.32988 6.63784 4.81038 6.51136L14.217 4.0357C14.5431 3.95014 14.8903 4.0202 15.1576 4.22604C15.4248 4.43188 15.581 4.74994 15.581 5.08722V23.2941C15.581 23.7753 15.2654 24.1987 14.8042 24.3364L5.55996 27.0935C5.4589 27.1239 5.35412 27.1388 5.24996 27.1388ZM6.18244 8.39926L6.32442 24.5961L13.4067 22.4838V6.49772L6.18244 8.39926Z" fill="#1F3A56"/>
<path d="M19.6569 14.0927C19.3234 14.0927 19.0531 13.8224 19.0531 13.4889V8.08618H12.9535C12.6199 8.08618 12.3496 7.81586 12.3496 7.4823C12.3496 7.14874 12.6199 6.87842 12.9535 6.87842H19.6569C19.9905 6.87842 20.2608 7.14874 20.2608 7.4823V13.4882C20.2614 13.8224 19.9905 14.0927 19.6569 14.0927Z" fill="#1F3A56"/>
<path d="M5.73673 26.6477C5.40627 26.6477 5.13657 26.3817 5.13285 26.05C5.12913 25.7165 5.39697 25.4431 5.72991 25.4393L19.0798 25.2918V19.4923C19.0798 19.1587 19.3501 18.8884 19.6836 18.8884C20.0172 18.8884 20.2875 19.1587 20.2875 19.4923V25.8895C20.2875 26.2205 20.0209 26.4896 19.6905 26.4933L5.74293 26.6477C5.74107 26.6477 5.73859 26.6477 5.73673 26.6477Z" fill="#1F3A56"/>
<path d="M27.0218 16.4439L22.4542 13.8064C22.3426 13.7419 22.2031 13.8225 22.2031 13.9515V19.2258C22.2031 19.3548 22.3426 19.4354 22.4542 19.3709L27.0218 16.7334C27.1334 16.6689 27.1334 16.5083 27.0218 16.4439Z" fill="#1F3A56"/>
<path d="M23.5758 17.37H17.9611C17.5606 17.37 17.2363 17.0457 17.2363 16.6452C17.2363 16.2447 17.5612 15.9204 17.9611 15.9204H23.5758C23.9763 15.9204 24.3006 16.2447 24.3006 16.6452C24.3012 17.0457 23.9763 17.37 23.5758 17.37Z" fill="#1F3A56"/>
</svg>
