<svg width="26" height="24" viewBox="0 0 26 24" fill="none" xmlns="http://www.w3.org/2000/svg">
<path d="M23.1494 2.94496C21.9765 1.71174 20.3421 1 18.6831 1C17.024 1 15.3896 1.71174 14.2167 2.94496L12.9997 4.5L11.7826 2.94496C10.5981 1.70004 8.99152 1.00065 7.31633 1.00065C5.64113 1.00065 4.03455 1.70004 2.85001 2.94496C1.66547 4.18988 1 5.87836 1 7.63895C1 9.39954 1.22633 11.658 3.49997 14.5C5.77361 17.342 12.9997 23 12.9997 23C12.9997 23 20 17 22.5 14.5C25 12 25 9.40713 25 7.63895C25 5.89532 24.3228 4.1776 23.1494 2.94496Z" stroke="#1F3345" stroke-width="1.5" stroke-linecap="round" stroke-linejoin="round"/>
</svg>
