<svg width="146" height="39" viewBox="0 0 146 39" fill="none" xmlns="http://www.w3.org/2000/svg">
<mask id="path-1-outside-1_1786_491" maskUnits="userSpaceOnUse" x="0" y="0" width="146" height="39" fill="black">
<rect fill="white" width="146" height="39"/>
<path d="M44.802 1.00427C37.56 1.0128 30.3194 1.01138 23.0788 1.01138C15.8382 1.01138 8.55919 1.01138 1.29867 1C1.07111 1 1 1.04551 1 1.28587C1.00711 13.5726 1.00711 25.8593 1.00142 38.146C1.00142 38.3735 1.05547 38.4404 1.29298 38.4404C7.88362 38.4347 14.4743 38.4333 21.0649 38.4418C21.3223 38.4432 21.3735 38.3664 21.3735 38.1275C21.3678 28.0808 21.3678 18.0341 21.3735 7.98602C21.3735 7.75846 21.3166 7.69162 21.0791 7.69162C16.7442 7.70015 12.4063 7.69873 8.06851 7.69304C7.85233 7.69304 7.78265 7.73997 7.78265 7.96753C7.79118 11.1377 7.78976 14.3064 7.78265 17.4752C7.78265 17.6786 7.82958 17.7468 8.04718 17.744C8.99012 17.7312 10.1222 17.7298 11.0637 17.744C11.3041 17.7483 11.3254 17.6928 11.324 17.4382C11.3112 15.403 11.334 13.3422 11.324 11.3069C11.3226 11.0737 11.3581 11.041 11.5928 11.0424C13.6479 11.0524 15.3305 11.0524 17.3856 11.0424C17.6387 11.041 17.653 11.0709 17.653 11.334C17.6444 19.1335 17.6473 26.9572 17.653 34.7554C17.653 35 17.6587 35.0839 17.3856 35.0839C13.0677 35.0739 9.32577 35.0754 5.00786 35.0839C4.75044 35.0839 4.69924 34.9943 4.69924 34.7554C4.70635 24.7172 4.71061 14.6976 4.70493 4.65941C4.70493 4.41194 4.76039 4.35221 5.00786 4.35221C17.2462 4.35932 28.9057 4.35932 41.1426 4.35221C41.3929 4.35221 41.4171 4.41194 41.4171 4.65941C41.41 14.6961 41.4114 24.7357 41.4171 34.7738C41.4171 35.0114 41.4015 35.0867 41.1426 35.0867C36.8247 35.0768 33.1326 35.0782 28.8147 35.0853C28.5772 35.0853 28.4691 35.0142 28.4691 34.7568C28.4776 26.9402 28.4762 19.152 28.4691 11.3354C28.4691 11.0965 28.5857 11.0424 28.8147 11.0438C30.8599 11.0524 32.2039 11.0595 34.2476 11.0438C34.5506 11.041 34.5904 11.0936 34.589 11.3624C34.5776 13.3791 34.5989 15.4585 34.589 17.4752C34.589 17.7099 34.6174 17.7468 34.8521 17.744C35.7865 17.7312 37.0964 17.7312 38.0279 17.7468C38.2768 17.7511 38.3422 17.6857 38.3394 17.4382C38.3309 14.2965 38.3309 11.1562 38.3394 8.01447C38.3408 7.75562 38.2683 7.69589 38.0123 7.69589C33.7043 7.703 29.395 7.70442 25.0856 7.69446C24.8082 7.69446 24.7471 7.76984 24.7471 8.03438C24.7542 18.0555 24.7542 28.0737 24.7471 38.0933C24.7471 38.3693 24.8068 38.4489 25.1012 38.4489C31.662 38.4389 38.2256 38.4389 44.7864 38.4489C45.0879 38.4489 45.132 38.3565 45.132 38.0905C45.1249 25.8408 45.1249 13.5911 45.132 1.34134C45.132 1.07964 45.0779 1.00427 44.7992 1.00427"/>
<path d="M58.1355 26.8733C57.9406 26.9088 57.7458 26.9273 57.5523 26.9273C57.137 26.9273 56.8 26.8263 56.5411 26.6258C56.2823 26.4252 56.1514 26.0384 56.1514 25.4681V18.2303H58.9632V15.1185H56.1514V11.5387H52.0085V15.1185H49.9661V18.2303H52.0085V26.0128C52.0013 27.4777 52.4536 28.57 53.3653 29.2854C54.2755 30.0022 55.4844 30.3279 56.9877 30.2624C57.5267 30.2425 57.9833 30.1899 58.3587 30.1017C58.7342 30.015 59.0272 29.9382 59.2334 29.8727L58.582 26.7893C58.4782 26.8092 58.3289 26.8363 58.134 26.8718"/>
<path d="M68.724 15.6191C68.0826 16.0955 67.6246 16.7981 67.353 17.7254H67.1965V15.1184H63.1787V30.059H67.3231V21.6067C67.3231 20.6865 67.6232 19.9384 68.2234 19.3652C68.8236 18.7906 69.5802 18.5048 70.4947 18.5048C70.7806 18.5048 71.0949 18.5261 71.4376 18.5674C71.7818 18.61 72.0506 18.6641 72.2455 18.7281V15.0516C71.8373 14.9549 71.4021 14.9065 70.9427 14.9065C70.1064 14.9065 69.3669 15.1455 68.7254 15.6219"/>
<path d="M78.5161 15.1185H74.3717V30.0591H78.5161V15.1185Z"/>
<path d="M76.4524 9C75.8423 9 75.3175 9.2048 74.8766 9.61298C74.4357 10.0212 74.2153 10.5147 74.2153 11.0907C74.2153 11.6667 74.4357 12.1616 74.8766 12.5741C75.3175 12.9865 75.8423 13.1913 76.4524 13.1913C77.0626 13.1913 77.5974 12.9851 78.0382 12.5741C78.4791 12.1616 78.6996 11.6681 78.6996 11.0907C78.6996 10.5133 78.4791 10.0212 78.0382 9.61298C77.5974 9.2048 77.0683 9 76.4524 9Z"/>
<path d="M93.4183 15.7755C92.5038 15.2081 91.4983 14.9236 90.4032 14.9236C89.5726 14.9236 88.8757 15.0644 88.3125 15.346C87.7479 15.629 87.2942 15.9775 86.9514 16.3914C86.6072 16.8067 86.3413 17.2177 86.1535 17.6273H85.9686V15.117H81.884V35.6612H86.0269V27.6654H86.1535C86.3484 28.0807 86.6214 28.4903 86.9756 28.8957C87.3297 29.301 87.7863 29.6366 88.348 29.9026C88.9084 30.1686 89.5911 30.3008 90.3946 30.3008C91.5296 30.3008 92.5536 30.0079 93.4681 29.4205C94.3826 28.8331 95.1094 27.9684 95.647 26.8235C96.186 25.6786 96.4548 24.2734 96.4548 22.6065C96.4548 20.9397 96.1775 19.4691 95.6228 18.3313C95.0681 17.1935 94.3342 16.3402 93.4197 15.7727M91.4144 25.7739C90.8754 26.5945 90.0974 27.0041 89.0805 27.0041C88.0636 27.0041 87.3084 26.6002 86.7608 25.7923C86.2133 24.9859 85.9388 23.9164 85.9388 22.588C85.9388 21.2597 86.2104 20.1902 86.7551 19.4022C87.2999 18.6143 88.075 18.2204 89.0805 18.2204C90.086 18.2204 90.8853 18.6243 91.4201 19.4321C91.9548 20.2385 92.2222 21.291 92.2222 22.588C92.2222 23.8851 91.9534 24.9532 91.4144 25.7739Z"/>
<path d="M117.723 17.31L114.453 30H111.723L108.123 17.94L104.493 30H102.003L98.7634 17.31C98.6434 16.85 98.5434 16.53 98.4634 16.35C98.4034 16.15 98.3234 16.02 98.2234 15.96C98.1234 15.9 97.9734 15.86 97.7734 15.84L96.1234 15.63V14.79H104.103V15.63L102.453 15.84C102.133 15.88 101.953 15.97 101.913 16.11C101.873 16.23 101.943 16.63 102.123 17.31L104.463 26.34L107.913 14.79H110.553L114.123 26.85L116.553 17.31C116.733 16.63 116.803 16.23 116.763 16.11C116.723 15.97 116.543 15.88 116.223 15.84L114.573 15.63V14.79H120.363V15.63L118.713 15.84C118.513 15.86 118.363 15.9 118.263 15.96C118.163 16.02 118.073 16.15 117.993 16.35C117.933 16.53 117.843 16.85 117.723 17.31Z"/>
<path d="M124.919 12.21C124.299 12.21 123.799 12.02 123.419 11.64C123.039 11.24 122.849 10.73 122.849 10.11C122.849 9.49 123.039 8.99 123.419 8.61C123.799 8.23 124.299 8.04 124.919 8.04C125.519 8.04 126.019 8.23 126.419 8.61C126.819 8.99 127.019 9.49 127.019 10.11C127.019 10.73 126.819 11.24 126.419 11.64C126.019 12.02 125.519 12.21 124.919 12.21ZM120.899 15.63V14.79H126.659V27.48C126.659 28.16 126.689 28.57 126.749 28.71C126.809 28.83 126.999 28.91 127.319 28.95L128.969 29.16V30H120.899V29.16L122.549 28.95C122.869 28.91 123.059 28.83 123.119 28.71C123.179 28.57 123.209 28.16 123.209 27.48V17.31C123.209 16.63 123.179 16.23 123.119 16.11C123.059 15.97 122.869 15.88 122.549 15.84L120.899 15.63Z"/>
<path d="M135.587 29.16V30H129.587V29.16L131.238 28.95C131.438 28.91 131.587 28.87 131.688 28.83C131.807 28.77 131.947 28.64 132.107 28.44C132.268 28.24 132.497 27.92 132.798 27.48L136.008 22.8L132.798 17.31C132.538 16.85 132.337 16.53 132.197 16.35C132.057 16.15 131.927 16.02 131.807 15.96C131.688 15.9 131.527 15.86 131.327 15.84L129.677 15.63V14.79H137.988V15.63L136.337 15.84C136.017 15.88 135.867 15.96 135.887 16.08C135.908 16.2 136.118 16.61 136.518 17.31L138.527 20.73L140.837 17.31C141.298 16.63 141.527 16.23 141.527 16.11C141.548 15.97 141.398 15.88 141.077 15.84L139.427 15.63V14.79H145.428V15.63L143.777 15.84C143.577 15.86 143.417 15.9 143.298 15.96C143.197 16.02 143.068 16.15 142.908 16.35C142.768 16.53 142.538 16.85 142.217 17.31L139.158 21.81L142.458 27.48C142.738 27.94 142.938 28.27 143.057 28.47C143.197 28.65 143.327 28.77 143.447 28.83C143.567 28.87 143.727 28.91 143.927 28.95L145.577 29.16V30H137.268V29.16L138.917 28.95C139.238 28.91 139.387 28.83 139.367 28.71C139.347 28.57 139.137 28.16 138.738 27.48L136.637 23.85L134.177 27.48C133.717 28.16 133.478 28.57 133.458 28.71C133.458 28.83 133.617 28.91 133.938 28.95L135.587 29.16Z"/>
</mask>
<path d="M44.802 1.00427C37.56 1.0128 30.3194 1.01138 23.0788 1.01138C15.8382 1.01138 8.55919 1.01138 1.29867 1C1.07111 1 1 1.04551 1 1.28587C1.00711 13.5726 1.00711 25.8593 1.00142 38.146C1.00142 38.3735 1.05547 38.4404 1.29298 38.4404C7.88362 38.4347 14.4743 38.4333 21.0649 38.4418C21.3223 38.4432 21.3735 38.3664 21.3735 38.1275C21.3678 28.0808 21.3678 18.0341 21.3735 7.98602C21.3735 7.75846 21.3166 7.69162 21.0791 7.69162C16.7442 7.70015 12.4063 7.69873 8.06851 7.69304C7.85233 7.69304 7.78265 7.73997 7.78265 7.96753C7.79118 11.1377 7.78976 14.3064 7.78265 17.4752C7.78265 17.6786 7.82958 17.7468 8.04718 17.744C8.99012 17.7312 10.1222 17.7298 11.0637 17.744C11.3041 17.7483 11.3254 17.6928 11.324 17.4382C11.3112 15.403 11.334 13.3422 11.324 11.3069C11.3226 11.0737 11.3581 11.041 11.5928 11.0424C13.6479 11.0524 15.3305 11.0524 17.3856 11.0424C17.6387 11.041 17.653 11.0709 17.653 11.334C17.6444 19.1335 17.6473 26.9572 17.653 34.7554C17.653 35 17.6587 35.0839 17.3856 35.0839C13.0677 35.0739 9.32577 35.0754 5.00786 35.0839C4.75044 35.0839 4.69924 34.9943 4.69924 34.7554C4.70635 24.7172 4.71061 14.6976 4.70493 4.65941C4.70493 4.41194 4.76039 4.35221 5.00786 4.35221C17.2462 4.35932 28.9057 4.35932 41.1426 4.35221C41.3929 4.35221 41.4171 4.41194 41.4171 4.65941C41.41 14.6961 41.4114 24.7357 41.4171 34.7738C41.4171 35.0114 41.4015 35.0867 41.1426 35.0867C36.8247 35.0768 33.1326 35.0782 28.8147 35.0853C28.5772 35.0853 28.4691 35.0142 28.4691 34.7568C28.4776 26.9402 28.4762 19.152 28.4691 11.3354C28.4691 11.0965 28.5857 11.0424 28.8147 11.0438C30.8599 11.0524 32.2039 11.0595 34.2476 11.0438C34.5506 11.041 34.5904 11.0936 34.589 11.3624C34.5776 13.3791 34.5989 15.4585 34.589 17.4752C34.589 17.7099 34.6174 17.7468 34.8521 17.744C35.7865 17.7312 37.0964 17.7312 38.0279 17.7468C38.2768 17.7511 38.3422 17.6857 38.3394 17.4382C38.3309 14.2965 38.3309 11.1562 38.3394 8.01447C38.3408 7.75562 38.2683 7.69589 38.0123 7.69589C33.7043 7.703 29.395 7.70442 25.0856 7.69446C24.8082 7.69446 24.7471 7.76984 24.7471 8.03438C24.7542 18.0555 24.7542 28.0737 24.7471 38.0933C24.7471 38.3693 24.8068 38.4489 25.1012 38.4489C31.662 38.4389 38.2256 38.4389 44.7864 38.4489C45.0879 38.4489 45.132 38.3565 45.132 38.0905C45.1249 25.8408 45.1249 13.5911 45.132 1.34134C45.132 1.07964 45.0779 1.00427 44.7992 1.00427" fill="#1F3345"/>
<path d="M58.1355 26.8733C57.9406 26.9088 57.7458 26.9273 57.5523 26.9273C57.137 26.9273 56.8 26.8263 56.5411 26.6258C56.2823 26.4252 56.1514 26.0384 56.1514 25.4681V18.2303H58.9632V15.1185H56.1514V11.5387H52.0085V15.1185H49.9661V18.2303H52.0085V26.0128C52.0013 27.4777 52.4536 28.57 53.3653 29.2854C54.2755 30.0022 55.4844 30.3279 56.9877 30.2624C57.5267 30.2425 57.9833 30.1899 58.3587 30.1017C58.7342 30.015 59.0272 29.9382 59.2334 29.8727L58.582 26.7893C58.4782 26.8092 58.3289 26.8363 58.134 26.8718" fill="#1F3345"/>
<path d="M68.724 15.6191C68.0826 16.0955 67.6246 16.7981 67.353 17.7254H67.1965V15.1184H63.1787V30.059H67.3231V21.6067C67.3231 20.6865 67.6232 19.9384 68.2234 19.3652C68.8236 18.7906 69.5802 18.5048 70.4947 18.5048C70.7806 18.5048 71.0949 18.5261 71.4376 18.5674C71.7818 18.61 72.0506 18.6641 72.2455 18.7281V15.0516C71.8373 14.9549 71.4021 14.9065 70.9427 14.9065C70.1064 14.9065 69.3669 15.1455 68.7254 15.6219" fill="#1F3345"/>
<path d="M78.5161 15.1185H74.3717V30.0591H78.5161V15.1185Z" fill="#1F3345"/>
<path d="M76.4524 9C75.8423 9 75.3175 9.2048 74.8766 9.61298C74.4357 10.0212 74.2153 10.5147 74.2153 11.0907C74.2153 11.6667 74.4357 12.1616 74.8766 12.5741C75.3175 12.9865 75.8423 13.1913 76.4524 13.1913C77.0626 13.1913 77.5974 12.9851 78.0382 12.5741C78.4791 12.1616 78.6996 11.6681 78.6996 11.0907C78.6996 10.5133 78.4791 10.0212 78.0382 9.61298C77.5974 9.2048 77.0683 9 76.4524 9Z" fill="#1F3345"/>
<path d="M93.4183 15.7755C92.5038 15.2081 91.4983 14.9236 90.4032 14.9236C89.5726 14.9236 88.8757 15.0644 88.3125 15.346C87.7479 15.629 87.2942 15.9775 86.9514 16.3914C86.6072 16.8067 86.3413 17.2177 86.1535 17.6273H85.9686V15.117H81.884V35.6612H86.0269V27.6654H86.1535C86.3484 28.0807 86.6214 28.4903 86.9756 28.8957C87.3297 29.301 87.7863 29.6366 88.348 29.9026C88.9084 30.1686 89.5911 30.3008 90.3946 30.3008C91.5296 30.3008 92.5536 30.0079 93.4681 29.4205C94.3826 28.8331 95.1094 27.9684 95.647 26.8235C96.186 25.6786 96.4548 24.2734 96.4548 22.6065C96.4548 20.9397 96.1775 19.4691 95.6228 18.3313C95.0681 17.1935 94.3342 16.3402 93.4197 15.7727M91.4144 25.7739C90.8754 26.5945 90.0974 27.0041 89.0805 27.0041C88.0636 27.0041 87.3084 26.6002 86.7608 25.7923C86.2133 24.9859 85.9388 23.9164 85.9388 22.588C85.9388 21.2597 86.2104 20.1902 86.7551 19.4022C87.2999 18.6143 88.075 18.2204 89.0805 18.2204C90.086 18.2204 90.8853 18.6243 91.4201 19.4321C91.9548 20.2385 92.2222 21.291 92.2222 22.588C92.2222 23.8851 91.9534 24.9532 91.4144 25.7739Z" fill="#1F3345"/>
<path d="M117.723 17.31L114.453 30H111.723L108.123 17.94L104.493 30H102.003L98.7634 17.31C98.6434 16.85 98.5434 16.53 98.4634 16.35C98.4034 16.15 98.3234 16.02 98.2234 15.96C98.1234 15.9 97.9734 15.86 97.7734 15.84L96.1234 15.63V14.79H104.103V15.63L102.453 15.84C102.133 15.88 101.953 15.97 101.913 16.11C101.873 16.23 101.943 16.63 102.123 17.31L104.463 26.34L107.913 14.79H110.553L114.123 26.85L116.553 17.31C116.733 16.63 116.803 16.23 116.763 16.11C116.723 15.97 116.543 15.88 116.223 15.84L114.573 15.63V14.79H120.363V15.63L118.713 15.84C118.513 15.86 118.363 15.9 118.263 15.96C118.163 16.02 118.073 16.15 117.993 16.35C117.933 16.53 117.843 16.85 117.723 17.31Z" fill="#1F3345"/>
<path d="M124.919 12.21C124.299 12.21 123.799 12.02 123.419 11.64C123.039 11.24 122.849 10.73 122.849 10.11C122.849 9.49 123.039 8.99 123.419 8.61C123.799 8.23 124.299 8.04 124.919 8.04C125.519 8.04 126.019 8.23 126.419 8.61C126.819 8.99 127.019 9.49 127.019 10.11C127.019 10.73 126.819 11.24 126.419 11.64C126.019 12.02 125.519 12.21 124.919 12.21ZM120.899 15.63V14.79H126.659V27.48C126.659 28.16 126.689 28.57 126.749 28.71C126.809 28.83 126.999 28.91 127.319 28.95L128.969 29.16V30H120.899V29.16L122.549 28.95C122.869 28.91 123.059 28.83 123.119 28.71C123.179 28.57 123.209 28.16 123.209 27.48V17.31C123.209 16.63 123.179 16.23 123.119 16.11C123.059 15.97 122.869 15.88 122.549 15.84L120.899 15.63Z" fill="#1F3345"/>
<path d="M135.587 29.16V30H129.587V29.16L131.238 28.95C131.438 28.91 131.587 28.87 131.688 28.83C131.807 28.77 131.947 28.64 132.107 28.44C132.268 28.24 132.497 27.92 132.798 27.48L136.008 22.8L132.798 17.31C132.538 16.85 132.337 16.53 132.197 16.35C132.057 16.15 131.927 16.02 131.807 15.96C131.688 15.9 131.527 15.86 131.327 15.84L129.677 15.63V14.79H137.988V15.63L136.337 15.84C136.017 15.88 135.867 15.96 135.887 16.08C135.908 16.2 136.118 16.61 136.518 17.31L138.527 20.73L140.837 17.31C141.298 16.63 141.527 16.23 141.527 16.11C141.548 15.97 141.398 15.88 141.077 15.84L139.427 15.63V14.79H145.428V15.63L143.777 15.84C143.577 15.86 143.417 15.9 143.298 15.96C143.197 16.02 143.068 16.15 142.908 16.35C142.768 16.53 142.538 16.85 142.217 17.31L139.158 21.81L142.458 27.48C142.738 27.94 142.938 28.27 143.057 28.47C143.197 28.65 143.327 28.77 143.447 28.83C143.567 28.87 143.727 28.91 143.927 28.95L145.577 29.16V30H137.268V29.16L138.917 28.95C139.238 28.91 139.387 28.83 139.367 28.71C139.347 28.57 139.137 28.16 138.738 27.48L136.637 23.85L134.177 27.48C133.717 28.16 133.478 28.57 133.458 28.71C133.458 28.83 133.617 28.91 133.938 28.95L135.587 29.16Z" fill="#1F3345"/>
<path d="M1.29867 1L1.29883 0.9H1.29867V1ZM1 1.28587H0.9L0.9 1.28592L1 1.28587ZM1.00142 38.146L0.901423 38.1459V38.146H1.00142ZM1.29298 38.4404V38.5404H1.29307L1.29298 38.4404ZM21.0649 38.4418L21.0655 38.3418H21.065L21.0649 38.4418ZM21.3735 38.1275H21.4735V38.1274L21.3735 38.1275ZM21.3735 7.98602L21.4735 7.98608V7.98602H21.3735ZM21.0791 7.69162V7.59162L21.0789 7.59162L21.0791 7.69162ZM8.06851 7.69304L8.06865 7.59304H8.06851V7.69304ZM7.78265 7.96753H7.68265L7.68265 7.9678L7.78265 7.96753ZM7.78265 17.4752L7.68265 17.475V17.4752H7.78265ZM8.04718 17.744L8.04849 17.844H8.04854L8.04718 17.744ZM11.0637 17.744L11.0655 17.644L11.0653 17.644L11.0637 17.744ZM11.324 17.4382L11.424 17.4376V17.4376L11.324 17.4382ZM11.324 11.3069L11.424 11.3065V11.3063L11.324 11.3069ZM11.5928 11.0424L11.5922 11.1424H11.5923L11.5928 11.0424ZM17.3856 11.0424L17.3861 11.1424H17.3861L17.3856 11.0424ZM17.653 11.334L17.753 11.3341V11.334H17.653ZM17.653 34.7554H17.753V34.7553L17.653 34.7554ZM17.3856 35.0839L17.3854 35.1839H17.3856V35.0839ZM5.00786 35.0839V35.1839H5.00806L5.00786 35.0839ZM4.69924 34.7554L4.59924 34.7553V34.7554H4.69924ZM4.70493 4.65941H4.60493V4.65947L4.70493 4.65941ZM5.00786 4.35221L5.00792 4.25221H5.00786V4.35221ZM41.1426 4.35221V4.25221H41.1426L41.1426 4.35221ZM41.4171 4.65941L41.5171 4.65948V4.65941H41.4171ZM41.4171 34.7738H41.5171V34.7738L41.4171 34.7738ZM41.1426 35.0867L41.1424 35.1867H41.1426V35.0867ZM28.8147 35.0853V35.1853H28.8148L28.8147 35.0853ZM28.4691 34.7568L28.3691 34.7567V34.7568H28.4691ZM28.4691 11.3354H28.3691V11.3355L28.4691 11.3354ZM28.8147 11.0438L28.8141 11.1438L28.8143 11.1438L28.8147 11.0438ZM34.2476 11.0438L34.2484 11.1438L34.2486 11.1438L34.2476 11.0438ZM34.589 11.3624L34.689 11.363V11.3629L34.589 11.3624ZM34.589 17.4752L34.489 17.4747V17.4752H34.589ZM34.8521 17.744L34.8533 17.844L34.8534 17.844L34.8521 17.744ZM38.0279 17.7468L38.0296 17.6468H38.0296L38.0279 17.7468ZM38.3394 17.4382L38.2394 17.4385L38.2394 17.4394L38.3394 17.4382ZM38.3394 8.01447L38.2394 8.01392V8.01419L38.3394 8.01447ZM38.0123 7.69589V7.59589H38.0121L38.0123 7.69589ZM25.0856 7.69446L25.0858 7.59446H25.0856V7.69446ZM24.7471 8.03438H24.6471V8.03445L24.7471 8.03438ZM24.7471 38.0933L24.6471 38.0933V38.0933H24.7471ZM25.1012 38.4489V38.5489H25.1014L25.1012 38.4489ZM44.7864 38.4489L44.7862 38.5489H44.7864V38.4489ZM45.132 38.0905H45.232V38.0904L45.132 38.0905ZM45.132 1.34134L45.232 1.34139V1.34134H45.132ZM56.1514 18.2303V18.1303H56.0514V18.2303H56.1514ZM58.9632 18.2303V18.3303H59.0632V18.2303H58.9632ZM58.9632 15.1185H59.0632V15.0185H58.9632V15.1185ZM56.1514 15.1185H56.0514V15.2185H56.1514V15.1185ZM56.1514 11.5387H56.2514V11.4387H56.1514V11.5387ZM52.0085 11.5387V11.4387H51.9085V11.5387H52.0085ZM52.0085 15.1185V15.2185H52.1085V15.1185H52.0085ZM49.9661 15.1185V15.0185H49.8661V15.1185H49.9661ZM49.9661 18.2303H49.8661V18.3303H49.9661V18.2303ZM52.0085 18.2303H52.1085V18.1303H52.0085V18.2303ZM52.0085 26.0128L52.1085 26.0133V26.0128H52.0085ZM53.3653 29.2854L53.4271 29.2068L53.427 29.2067L53.3653 29.2854ZM56.9877 30.2624L56.984 30.1625L56.9834 30.1625L56.9877 30.2624ZM58.3587 30.1017L58.3362 30.0043L58.3359 30.0044L58.3587 30.1017ZM59.2334 29.8727L59.2637 29.9681L59.35 29.9407L59.3313 29.8521L59.2334 29.8727ZM58.582 26.7893L58.6799 26.7687L58.6596 26.6726L58.5632 26.6911L58.582 26.7893ZM67.353 17.7254V17.8254H67.4279L67.449 17.7535L67.353 17.7254ZM67.1965 17.7254H67.0965V17.8254H67.1965V17.7254ZM67.1965 15.1184H67.2965V15.0184H67.1965V15.1184ZM63.1787 15.1184V15.0184H63.0787V15.1184H63.1787ZM63.1787 30.059H63.0787V30.159H63.1787V30.059ZM67.3231 30.059V30.159H67.4231V30.059H67.3231ZM68.2234 19.3652L68.2924 19.4376L68.2925 19.4375L68.2234 19.3652ZM71.4376 18.5674L71.4499 18.4681L71.4496 18.4681L71.4376 18.5674ZM72.2455 18.7281L72.2143 18.8231L72.3455 18.8662V18.7281H72.2455ZM72.2455 15.0516H72.3455V14.9725L72.2685 14.9543L72.2455 15.0516ZM74.3717 15.1185V15.0185H74.2717V15.1185H74.3717ZM78.5161 15.1185H78.6161V15.0185H78.5161V15.1185ZM78.5161 30.0591V30.1591H78.6161V30.0591H78.5161ZM74.3717 30.0591H74.2717V30.1591H74.3717V30.0591ZM78.0382 12.5741L78.1064 12.6472L78.1066 12.6471L78.0382 12.5741ZM88.3125 15.346L88.2678 15.2566L88.2677 15.2566L88.3125 15.346ZM86.9514 16.3914L87.0284 16.4552L87.0284 16.4551L86.9514 16.3914ZM86.1535 17.6273V17.7273H86.2177L86.2444 17.669L86.1535 17.6273ZM85.9686 17.6273H85.8686V17.7273H85.9686V17.6273ZM85.9686 15.117H86.0686V15.017H85.9686V15.117ZM81.884 15.117V15.017H81.784V15.117H81.884ZM81.884 35.6612H81.784V35.7612H81.884V35.6612ZM86.0269 35.6612V35.7612H86.1269V35.6612H86.0269ZM86.0269 27.6654V27.5654H85.9269V27.6654H86.0269ZM86.1535 27.6654L86.2441 27.6229L86.2171 27.5654H86.1535V27.6654ZM88.348 29.9026L88.3909 29.8123L88.3908 29.8122L88.348 29.9026ZM95.647 26.8235L95.5565 26.7809L95.5564 26.781L95.647 26.8235ZM86.7608 25.7923L86.8436 25.7362L86.8436 25.7362L86.7608 25.7923ZM91.4201 19.4321L91.3367 19.4873L91.3367 19.4874L91.4201 19.4321ZM117.723 17.31L117.627 17.2848L117.627 17.285L117.723 17.31ZM114.453 30V30.1H114.531L114.55 30.025L114.453 30ZM111.723 30L111.628 30.0286L111.649 30.1H111.723V30ZM108.123 17.94L108.219 17.9114L108.124 17.5917L108.028 17.9112L108.123 17.94ZM104.493 30V30.1H104.568L104.589 30.0288L104.493 30ZM102.003 30L101.907 30.0247L101.926 30.1H102.003V30ZM98.7634 17.31L98.8603 17.2853L98.8602 17.2848L98.7634 17.31ZM98.4634 16.35L98.3669 16.379L98.3721 16.3906L98.4634 16.35ZM98.2234 15.96L98.2749 15.8742L98.2234 15.96ZM97.7734 15.84L97.7608 15.9392L97.7635 15.9395L97.7734 15.84ZM96.1234 15.63H96.0234V15.7181L96.1108 15.7292L96.1234 15.63ZM96.1234 14.79V14.69H96.0234V14.79H96.1234ZM104.103 14.79H104.203V14.69H104.103V14.79ZM104.103 15.63L104.116 15.7292L104.203 15.7181V15.63H104.103ZM102.453 15.84L102.466 15.9392L102.466 15.9392L102.453 15.84ZM101.913 16.11L102.008 16.1417L102.01 16.1375L101.913 16.11ZM102.123 17.31L102.22 17.2849L102.22 17.2844L102.123 17.31ZM104.463 26.34L104.367 26.3651L104.457 26.7123L104.559 26.3686L104.463 26.34ZM107.913 14.79V14.69H107.839L107.818 14.7614L107.913 14.79ZM110.553 14.79L110.649 14.7616L110.628 14.69H110.553V14.79ZM114.123 26.85L114.028 26.8784L114.131 27.2267L114.22 26.8747L114.123 26.85ZM116.553 17.31L116.457 17.2844L116.457 17.2853L116.553 17.31ZM116.763 16.11L116.667 16.1375L116.669 16.1416L116.763 16.11ZM116.223 15.84L116.211 15.9392L116.211 15.9392L116.223 15.84ZM114.573 15.63H114.473V15.7181L114.561 15.7292L114.573 15.63ZM114.573 14.79V14.69H114.473V14.79H114.573ZM120.363 14.79H120.463V14.69H120.363V14.79ZM120.363 15.63L120.376 15.7292L120.463 15.7181V15.63H120.363ZM118.713 15.84L118.723 15.9395L118.726 15.9392L118.713 15.84ZM117.993 16.35L117.9 16.3128L117.899 16.3184L117.993 16.35ZM123.419 11.64L123.346 11.7089L123.348 11.7107L123.419 11.64ZM123.419 8.61L123.348 8.53929L123.419 8.61ZM126.419 8.61L126.488 8.5375L126.419 8.61ZM126.419 11.64L126.488 11.7125L126.49 11.7107L126.419 11.64ZM120.899 15.63H120.799V15.7181L120.886 15.7292L120.899 15.63ZM120.899 14.79V14.69H120.799V14.79H120.899ZM126.659 14.79H126.759V14.69H126.659V14.79ZM126.749 28.71L126.657 28.7495L126.66 28.7547L126.749 28.71ZM127.319 28.95L127.332 28.8508L127.331 28.8508L127.319 28.95ZM128.969 29.16H129.069V29.0719L128.982 29.0608L128.969 29.16ZM128.969 30V30.1H129.069V30H128.969ZM120.899 30H120.799V30.1H120.899V30ZM120.899 29.16L120.886 29.0608L120.799 29.0719V29.16H120.899ZM122.549 28.95L122.537 28.8508L122.536 28.8508L122.549 28.95ZM123.119 28.71L123.209 28.7548L123.211 28.7494L123.119 28.71ZM123.119 16.11L123.027 16.1495L123.03 16.1547L123.119 16.11ZM122.549 15.84L122.536 15.9392L122.537 15.9392L122.549 15.84ZM135.587 29.16H135.688V29.0719L135.6 29.0608L135.587 29.16ZM135.587 30V30.1H135.688V30H135.587ZM129.587 30H129.487V30.1H129.587V30ZM129.587 29.16L129.575 29.0608L129.487 29.0719V29.16H129.587ZM131.238 28.95L131.25 29.0494L131.257 29.0481L131.238 28.95ZM131.688 28.83L131.725 28.9232L131.732 28.9194L131.688 28.83ZM132.107 28.44L132.186 28.5025L132.107 28.44ZM132.798 27.48L132.715 27.4234L132.715 27.4237L132.798 27.48ZM136.008 22.8L136.09 22.8566L136.126 22.8043L136.094 22.7495L136.008 22.8ZM132.798 17.31L132.71 17.3592L132.711 17.3605L132.798 17.31ZM132.197 16.35L132.115 16.4074L132.119 16.4114L132.197 16.35ZM131.327 15.84L131.315 15.9392L131.318 15.9395L131.327 15.84ZM129.677 15.63H129.577V15.7181L129.665 15.7292L129.677 15.63ZM129.677 14.79V14.69H129.577V14.79H129.677ZM137.988 14.79H138.088V14.69H137.988V14.79ZM137.988 15.63L138 15.7292L138.088 15.7181V15.63H137.988ZM136.337 15.84L136.35 15.9392L136.35 15.9392L136.337 15.84ZM135.887 16.08L135.789 16.0964V16.0964L135.887 16.08ZM136.518 17.31L136.431 17.3596L136.431 17.3607L136.518 17.31ZM138.527 20.73L138.441 20.7807L138.522 20.9174L138.61 20.786L138.527 20.73ZM140.837 17.31L140.755 17.254L140.755 17.254L140.837 17.31ZM141.527 16.11L141.428 16.0959L141.427 16.1029V16.11H141.527ZM141.077 15.84L141.065 15.9392L141.065 15.9392L141.077 15.84ZM139.427 15.63H139.327V15.7181L139.415 15.7292L139.427 15.63ZM139.427 14.79V14.69H139.327V14.79H139.427ZM145.428 14.79H145.528V14.69H145.428V14.79ZM145.428 15.63L145.44 15.7292L145.528 15.7181V15.63H145.428ZM143.777 15.84L143.787 15.9395L143.79 15.9392L143.777 15.84ZM143.298 15.96L143.253 15.8703L143.246 15.8742L143.298 15.96ZM142.908 16.35L142.829 16.2875L142.829 16.2886L142.908 16.35ZM142.217 17.31L142.135 17.2529L142.135 17.2538L142.217 17.31ZM139.158 21.81L139.075 21.7538L139.039 21.8059L139.071 21.8603L139.158 21.81ZM142.458 27.48L142.371 27.5303L142.372 27.532L142.458 27.48ZM143.057 28.47L142.971 28.5218L142.979 28.5314L143.057 28.47ZM143.447 28.83L143.403 28.9194L143.409 28.9226L143.416 28.9249L143.447 28.83ZM143.927 28.95L143.908 29.0483L143.915 29.0492L143.927 28.95ZM145.577 29.16H145.678V29.0719L145.59 29.0608L145.577 29.16ZM145.577 30V30.1H145.678V30H145.577ZM137.268 30H137.167V30.1H137.268V30ZM137.268 29.16L137.255 29.0608L137.167 29.0719V29.16H137.268ZM138.917 28.95L138.905 28.8508L138.905 28.8508L138.917 28.95ZM139.367 28.71L139.268 28.7241L139.269 28.7264L139.367 28.71ZM138.738 27.48L138.651 27.5301L138.651 27.5307L138.738 27.48ZM136.637 23.85L136.724 23.7999L136.644 23.6619L136.555 23.7939L136.637 23.85ZM134.177 27.48L134.095 27.4239L134.095 27.424L134.177 27.48ZM133.458 28.71L133.359 28.6959L133.357 28.7029V28.71H133.458ZM133.938 28.95L133.95 28.8508L133.95 28.8508L133.938 28.95ZM44.8019 0.904267C37.56 0.9128 30.3194 0.911376 23.0788 0.911376V1.11138C30.3194 1.11138 37.5601 1.1128 44.8022 1.10427L44.8019 0.904267ZM23.0788 0.911376C15.8382 0.911376 8.55925 0.911378 1.29883 0.9L1.29851 1.1C8.55912 1.11138 15.8382 1.11138 23.0788 1.11138V0.911376ZM1.29867 0.9C1.18793 0.9 1.07526 0.908428 0.997263 0.978327C0.915815 1.05132 0.9 1.16426 0.9 1.28587H1.1C1.1 1.16712 1.11974 1.13713 1.13074 1.12727C1.14518 1.11433 1.18186 1.1 1.29867 1.1V0.9ZM0.9 1.28592C0.907111 13.5726 0.907111 25.8592 0.901423 38.1459L1.10142 38.146C1.10711 25.8593 1.10711 13.5725 1.1 1.28581L0.9 1.28592ZM0.901423 38.146C0.901423 38.2588 0.912437 38.3709 0.985876 38.4476C1.06052 38.5257 1.17314 38.5404 1.29298 38.5404V38.3404C1.1753 38.3404 1.14214 38.3217 1.13039 38.3094C1.11743 38.2958 1.10142 38.2607 1.10142 38.146H0.901423ZM1.29307 38.5404C7.88367 38.5347 14.4742 38.5333 21.0648 38.5418L21.065 38.3418C14.4743 38.3333 7.88358 38.3347 1.29289 38.3404L1.29307 38.5404ZM21.0644 38.5418C21.1948 38.5425 21.3128 38.5257 21.3894 38.4425C21.4635 38.3619 21.4735 38.2448 21.4735 38.1275H21.2735C21.2735 38.2491 21.258 38.2899 21.2422 38.3071C21.2288 38.3216 21.1924 38.3425 21.0655 38.3418L21.0644 38.5418ZM21.4735 38.1274C21.4678 28.0808 21.4678 18.0341 21.4735 7.98608L21.2735 7.98596C21.2678 18.0341 21.2678 28.0808 21.2735 38.1275L21.4735 38.1274ZM21.4735 7.98602C21.4735 7.8724 21.4616 7.76039 21.3871 7.68377C21.3119 7.60641 21.1992 7.59162 21.0791 7.59162V7.79162C21.1966 7.79162 21.2311 7.81024 21.2437 7.8232C21.257 7.83689 21.2735 7.87209 21.2735 7.98602H21.4735ZM21.0789 7.59162C16.7441 7.60015 12.4064 7.59873 8.06865 7.59304L8.06838 7.79304C12.4063 7.79873 16.7442 7.80015 21.0793 7.79162L21.0789 7.59162ZM8.06851 7.59304C7.96222 7.59304 7.85336 7.60215 7.77745 7.67077C7.69846 7.74218 7.68265 7.85137 7.68265 7.96753H7.88265C7.88265 7.85614 7.90168 7.82807 7.91157 7.81913C7.92455 7.8074 7.95863 7.79304 8.06851 7.79304V7.59304ZM7.68265 7.9678C7.69118 11.1378 7.68976 14.3063 7.68265 17.475L7.88265 17.4754C7.88976 14.3066 7.89118 11.1376 7.88265 7.96726L7.68265 7.9678ZM7.68265 17.4752C7.68265 17.5759 7.69193 17.6813 7.75987 17.7548C7.83031 17.831 7.93673 17.8454 8.04849 17.844L8.04588 17.644C7.94004 17.6454 7.91419 17.6271 7.90676 17.6191C7.89683 17.6083 7.88265 17.5779 7.88265 17.4752H7.68265ZM8.04854 17.844C8.99068 17.8312 10.1218 17.8298 11.0622 17.844L11.0653 17.644C10.1226 17.6298 8.98957 17.6312 8.04582 17.644L8.04854 17.844ZM11.062 17.844C11.1241 17.8451 11.1809 17.8427 11.2293 17.8311C11.2803 17.8188 11.3281 17.7949 11.3634 17.7496C11.3967 17.7069 11.4103 17.6559 11.4168 17.6074C11.4234 17.5588 11.4244 17.5013 11.424 17.4376L11.224 17.4388C11.2244 17.5024 11.2232 17.5473 11.2187 17.5805C11.2141 17.6139 11.2076 17.6243 11.2057 17.6267C11.2051 17.6275 11.2042 17.6284 11.2019 17.6297C11.1992 17.6313 11.1935 17.634 11.1827 17.6366C11.1596 17.6421 11.1235 17.645 11.0655 17.644L11.062 17.844ZM11.424 17.4376C11.4112 15.3968 11.434 13.3494 11.424 11.3065L11.224 11.3074C11.2339 13.3349 11.2113 15.4091 11.224 17.4388L11.424 17.4376ZM11.424 11.3063C11.4237 11.249 11.4258 11.2114 11.4307 11.1857C11.433 11.1734 11.4355 11.1663 11.4373 11.1623C11.4382 11.1604 11.4389 11.1594 11.4392 11.1589C11.4395 11.1584 11.4397 11.1583 11.4398 11.1582C11.4398 11.1582 11.44 11.158 11.4406 11.1576C11.4412 11.1572 11.4424 11.1564 11.4445 11.1555C11.4489 11.1536 11.4565 11.1511 11.4693 11.1488C11.4959 11.144 11.5343 11.1421 11.5922 11.1424L11.5934 10.9424C11.534 10.9421 11.4799 10.9437 11.434 10.9519C11.3871 10.9603 11.3388 10.9772 11.3 11.0151C11.261 11.0533 11.2431 11.1013 11.2342 11.1484C11.2254 11.1943 11.2237 11.2483 11.224 11.3076L11.424 11.3063ZM11.5923 11.1424C13.6478 11.1524 15.3306 11.1524 17.3861 11.1424L17.3851 10.9424C15.3303 10.9524 13.6481 10.9524 11.5933 10.9424L11.5923 11.1424ZM17.3861 11.1424C17.4495 11.1421 17.4895 11.1439 17.5163 11.1488C17.5416 11.1534 17.5421 11.1585 17.539 11.1549C17.5374 11.153 17.5434 11.158 17.5477 11.1904C17.5519 11.2226 17.553 11.2673 17.553 11.334H17.753C17.753 11.2691 17.7522 11.2114 17.7459 11.164C17.7396 11.1169 17.7262 11.0651 17.6894 11.0231C17.6511 10.9793 17.6006 10.9608 17.552 10.952C17.505 10.9434 17.4483 10.9421 17.385 10.9424L17.3861 11.1424ZM17.553 11.3339C17.5444 19.1335 17.5473 26.9573 17.553 34.7554L17.753 34.7553C17.7473 26.9572 17.7444 19.1335 17.753 11.3341L17.553 11.3339ZM17.553 34.7554C17.553 34.8188 17.5532 34.8644 17.55 34.9011C17.5467 34.938 17.5407 34.9523 17.5372 34.9578C17.5363 34.9593 17.5243 34.9839 17.3856 34.9839V35.1839C17.5199 35.1839 17.6417 35.1665 17.7061 35.0649C17.7353 35.0189 17.745 34.9663 17.7492 34.9187C17.7534 34.8709 17.753 34.8142 17.753 34.7554H17.553ZM17.3858 34.9839C13.0677 34.9739 9.32568 34.9754 5.00766 34.9839L5.00806 35.1839C9.32586 35.1754 13.0676 35.1739 17.3854 35.1839L17.3858 34.9839ZM5.00786 34.9839C4.88422 34.9839 4.84733 34.9609 4.83281 34.944C4.81441 34.9226 4.79924 34.8761 4.79924 34.7554H4.59924C4.59924 34.8736 4.60967 34.9913 4.68122 35.0745C4.75666 35.1621 4.87408 35.1839 5.00786 35.1839V34.9839ZM4.79924 34.7554C4.80635 24.7173 4.81061 14.6976 4.80493 4.65935L4.60493 4.65947C4.61061 14.6976 4.60635 24.7172 4.59924 34.7553L4.79924 34.7554ZM4.80493 4.65941C4.80493 4.53313 4.82181 4.49652 4.83513 4.48288C4.8477 4.47002 4.88239 4.45221 5.00786 4.45221V4.25221C4.88586 4.25221 4.76909 4.26427 4.69206 4.34313C4.61578 4.42123 4.60493 4.53822 4.60493 4.65941H4.80493ZM5.0078 4.45221C17.2462 4.45932 28.9057 4.45932 41.1427 4.45221L41.1426 4.25221C28.9057 4.25932 17.2462 4.25932 5.00792 4.25221L5.0078 4.45221ZM41.1426 4.45221C41.2028 4.45221 41.2413 4.45598 41.2666 4.46236C41.2898 4.46822 41.2948 4.47449 41.2962 4.47614C41.2989 4.47951 41.3057 4.49021 41.3106 4.52213C41.3155 4.5543 41.3171 4.59771 41.3171 4.65941H41.5171C41.5171 4.59738 41.5157 4.54052 41.5083 4.49189C41.5008 4.44301 41.4859 4.39237 41.4513 4.34988C41.4153 4.30566 41.3674 4.28153 41.3156 4.26846C41.2659 4.25591 41.2076 4.25221 41.1426 4.25221V4.45221ZM41.3171 4.65934C41.31 14.6961 41.3114 24.7357 41.3171 34.7739L41.5171 34.7738C41.5114 24.7357 41.51 14.6961 41.5171 4.65948L41.3171 4.65934ZM41.3171 34.7738C41.3171 34.8336 41.316 34.8765 41.3115 34.9094C41.3071 34.9422 41.3005 34.9546 41.2968 34.9595C41.2929 34.9647 41.2735 34.9867 41.1426 34.9867V35.1867C41.2706 35.1867 41.3884 35.1711 41.457 35.0792C41.4897 35.0355 41.5031 34.9847 41.5097 34.9364C41.5163 34.8884 41.5171 34.8328 41.5171 34.7738H41.3171ZM41.1429 34.9867C36.8248 34.9768 33.1325 34.9782 28.8145 34.9853L28.8148 35.1853C33.1327 35.1782 36.8247 35.1768 41.1424 35.1867L41.1429 34.9867ZM28.8147 34.9853C28.7004 34.9853 28.6466 34.9669 28.6189 34.9425C28.5945 34.921 28.5691 34.8751 28.5691 34.7568H28.3691C28.3691 34.8958 28.3977 35.0142 28.4867 35.0926C28.5725 35.1682 28.6914 35.1853 28.8147 35.1853V34.9853ZM28.5691 34.7569C28.5776 26.9402 28.5762 19.152 28.5691 11.3353L28.3691 11.3355C28.3762 19.152 28.3776 26.9401 28.3691 34.7567L28.5691 34.7569ZM28.5691 11.3354C28.5691 11.2302 28.5946 11.1955 28.6159 11.1796C28.6451 11.1578 28.7013 11.1431 28.8141 11.1438L28.8153 10.9438C28.6991 10.9431 28.5825 10.9548 28.4961 11.0194C28.4019 11.0899 28.3691 11.2017 28.3691 11.3354H28.5691ZM28.8143 11.1438C30.8594 11.1524 32.204 11.1595 34.2484 11.1438L34.2469 10.9438C32.2038 10.9595 30.8603 10.9524 28.8151 10.9438L28.8143 11.1438ZM34.2486 11.1438C34.3228 11.1431 34.3741 11.146 34.4104 11.1529C34.446 11.1596 34.4581 11.1685 34.4627 11.1729C34.4668 11.1769 34.4746 11.1868 34.4806 11.2178C34.4869 11.2502 34.4893 11.2955 34.489 11.3619L34.689 11.3629C34.6893 11.2949 34.6873 11.2328 34.677 11.1798C34.6665 11.1254 34.6457 11.072 34.6022 11.0296C34.5591 10.9876 34.5045 10.9671 34.4475 10.9563C34.3912 10.9457 34.3239 10.9431 34.2467 10.9438L34.2486 11.1438ZM34.489 11.3619C34.4833 12.3707 34.4858 13.3951 34.4884 14.4191C34.4911 15.4432 34.4939 16.4668 34.489 17.4747L34.689 17.4757C34.6939 16.4669 34.6911 15.4425 34.6884 14.4185C34.6858 13.3945 34.6833 12.3709 34.689 11.363L34.489 11.3619ZM34.489 17.4752C34.489 17.5343 34.4906 17.5881 34.4985 17.6337C34.5066 17.68 34.5228 17.7285 34.5601 17.7677C34.598 17.8074 34.6461 17.8255 34.6934 17.8345C34.7394 17.8431 34.7936 17.8447 34.8533 17.844L34.8509 17.644C34.7932 17.6447 34.7558 17.6427 34.7305 17.6379C34.7185 17.6357 34.7117 17.6332 34.7081 17.6315C34.7064 17.6307 34.7056 17.6301 34.7052 17.6299C34.705 17.6298 34.7049 17.6297 34.7049 17.6297C34.7049 17.6297 34.7049 17.6297 34.7049 17.6297C34.7049 17.6297 34.7049 17.6297 34.7049 17.6296C34.7049 17.6296 34.7049 17.6296 34.7048 17.6295C34.7047 17.6294 34.7046 17.6292 34.7044 17.6289C34.704 17.6283 34.7032 17.627 34.7023 17.6249C34.7004 17.6203 34.6979 17.6125 34.6956 17.5995C34.6909 17.5722 34.689 17.5335 34.689 17.4752H34.489ZM34.8534 17.844C35.787 17.8312 37.0958 17.8312 38.0262 17.8468L38.0296 17.6468C37.0969 17.6312 35.786 17.6312 34.8507 17.644L34.8534 17.844ZM38.0262 17.8468C38.1507 17.8489 38.2692 17.8367 38.3485 17.7579C38.4279 17.6791 38.4408 17.5609 38.4394 17.4371L38.2394 17.4394C38.2408 17.563 38.2224 17.6013 38.2076 17.6159C38.1928 17.6307 38.154 17.649 38.0296 17.6468L38.0262 17.8468ZM38.4394 17.4379C38.4309 14.2964 38.4309 11.1563 38.4394 8.01474L38.2394 8.01419C38.2309 11.1561 38.2309 14.2966 38.2394 17.4385L38.4394 17.4379ZM38.4394 8.01502C38.4401 7.88466 38.4246 7.76454 38.3411 7.68549C38.2595 7.60822 38.1389 7.59589 38.0123 7.59589V7.79589C38.1416 7.79589 38.1853 7.81342 38.2036 7.83073C38.22 7.84625 38.2401 7.88542 38.2394 8.01392L38.4394 8.01502ZM38.0121 7.59589C33.7042 7.603 29.395 7.60442 25.0858 7.59446L25.0853 7.79446C29.3949 7.80442 33.7044 7.803 38.0124 7.79589L38.0121 7.59589ZM25.0856 7.59446C24.9466 7.59446 24.8219 7.61107 24.7403 7.69588C24.6597 7.77961 24.6471 7.90361 24.6471 8.03438H24.8471C24.8471 7.90061 24.865 7.85465 24.8844 7.83456C24.9027 7.81554 24.9473 7.79446 25.0856 7.79446V7.59446ZM24.6471 8.03445C24.6542 18.0555 24.6542 28.0737 24.6471 38.0933L24.8471 38.0934C24.8542 28.0737 24.8542 18.0554 24.8471 8.03431L24.6471 8.03445ZM24.6471 38.0933C24.6471 38.2289 24.6591 38.3571 24.7413 38.4435C24.8248 38.5314 24.954 38.5489 25.1012 38.5489V38.3489C24.954 38.3489 24.9061 38.3266 24.8862 38.3057C24.8649 38.2833 24.8471 38.2337 24.8471 38.0933H24.6471ZM25.1014 38.5489C31.662 38.5389 38.2256 38.5389 44.7862 38.5489L44.7865 38.3489C38.2257 38.3389 31.6619 38.3389 25.1011 38.3489L25.1014 38.5489ZM44.7864 38.5489C44.9387 38.5489 45.0676 38.5277 45.1479 38.4348C45.1876 38.389 45.2078 38.334 45.2186 38.2776C45.2293 38.2219 45.232 38.1585 45.232 38.0905H45.032C45.032 38.1555 45.0292 38.2034 45.0222 38.2398C45.0153 38.2755 45.0057 38.2936 44.9966 38.304C44.9795 38.3238 44.9356 38.3489 44.7864 38.3489V38.5489ZM45.232 38.0904C45.2249 25.8408 45.2249 13.5911 45.232 1.34139L45.032 1.34128C45.0249 13.591 45.0249 25.8408 45.032 38.0906L45.232 38.0904ZM45.232 1.34134C45.232 1.21357 45.2216 1.08994 45.1431 1.00626C45.0628 0.920666 44.9384 0.904267 44.7992 0.904267V1.10427C44.9387 1.10427 44.9808 1.12556 44.9972 1.14308C45.0154 1.1625 45.032 1.20741 45.032 1.34134H45.232ZM58.1175 26.7749C57.9282 26.8094 57.7394 26.8273 57.5523 26.8273V27.0273C57.7521 27.0273 57.953 27.0082 58.1534 26.9716L58.1175 26.7749ZM57.5523 26.8273C57.1533 26.8273 56.8395 26.7305 56.6024 26.5467L56.4799 26.7048C56.7604 26.9222 57.1208 27.0273 57.5523 27.0273V26.8273ZM56.6024 26.5467C56.3812 26.3754 56.2514 26.0294 56.2514 25.4681H56.0514C56.0514 26.0474 56.1833 26.4751 56.4799 26.7048L56.6024 26.5467ZM56.2514 25.4681V18.2303H56.0514V25.4681H56.2514ZM56.1514 18.3303H58.9632V18.1303H56.1514V18.3303ZM59.0632 18.2303V15.1185H58.8632V18.2303H59.0632ZM58.9632 15.0185H56.1514V15.2185H58.9632V15.0185ZM56.2514 15.1185V11.5387H56.0514V15.1185H56.2514ZM56.1514 11.4387H52.0085V11.6387H56.1514V11.4387ZM51.9085 11.5387V15.1185H52.1085V11.5387H51.9085ZM52.0085 15.0185H49.9661V15.2185H52.0085V15.0185ZM49.8661 15.1185V18.2303H50.0661V15.1185H49.8661ZM49.9661 18.3303H52.0085V18.1303H49.9661V18.3303ZM51.9085 18.2303V26.0128H52.1085V18.2303H51.9085ZM51.9085 26.0123C51.9012 27.4991 52.3613 28.6246 53.3035 29.364L53.427 29.2067C52.5459 28.5153 52.1014 27.4563 52.1085 26.0133L51.9085 26.0123ZM53.3034 29.3639C54.2375 30.0995 55.4722 30.4285 56.9921 30.3623L56.9834 30.1625C55.4966 30.2272 54.3135 29.9048 53.4271 29.2068L53.3034 29.3639ZM56.9914 30.3624C57.5343 30.3423 57.9978 30.2892 58.3816 30.1991L58.3359 30.0044C57.9688 30.0906 57.5191 30.1427 56.984 30.1625L56.9914 30.3624ZM58.3813 30.1992C58.7577 30.1122 59.0537 30.0347 59.2637 29.9681L59.2032 29.7774C59.0007 29.8417 58.7107 29.9178 58.3362 30.0043L58.3813 30.1992ZM59.3313 29.8521L58.6799 26.7687L58.4842 26.81L59.1356 29.8934L59.3313 29.8521ZM58.5632 26.6911C58.4599 26.7109 58.3113 26.7378 58.1161 26.7735L58.152 26.9702C58.3464 26.9347 58.4965 26.9076 58.6009 26.8875L58.5632 26.6911ZM68.6644 15.5388C68.0021 16.0307 67.5335 16.7535 67.257 17.6973L67.449 17.7535C67.7158 16.8427 68.163 16.1603 68.7836 15.6993L68.6644 15.5388ZM67.353 17.6254H67.1965V17.8254H67.353V17.6254ZM67.2965 17.7254V15.1184H67.0965V17.7254H67.2965ZM67.1965 15.0184H63.1787V15.2184H67.1965V15.0184ZM63.0787 15.1184V30.059H63.2787V15.1184H63.0787ZM63.1787 30.159H67.3231V29.959H63.1787V30.159ZM67.4231 30.059V21.6067H67.2231V30.059H67.4231ZM67.4231 21.6067C67.4231 20.7105 67.7143 19.9897 68.2924 19.4376L68.1543 19.2929C67.5321 19.8871 67.2231 20.6625 67.2231 21.6067H67.4231ZM68.2925 19.4375C68.8721 18.8826 69.603 18.6048 70.4947 18.6048V18.4048C69.5574 18.4048 68.775 18.6987 68.1542 19.293L68.2925 19.4375ZM70.4947 18.6048C70.7757 18.6048 71.0859 18.6258 71.4257 18.6666L71.4496 18.4681C71.1038 18.4265 70.7854 18.4048 70.4947 18.4048V18.6048ZM71.4253 18.6666C71.7666 18.7089 72.0282 18.762 72.2143 18.8231L72.2767 18.6331C72.0731 18.5662 71.7971 18.5112 71.4499 18.4681L71.4253 18.6666ZM72.3455 18.7281V15.0516H72.1455V18.7281H72.3455ZM72.2685 14.9543C71.8521 14.8556 71.4091 14.8065 70.9427 14.8065V15.0065C71.3951 15.0065 71.8225 15.0541 72.2224 15.1489L72.2685 14.9543ZM70.9427 14.8065C70.086 14.8065 69.3253 15.0518 68.6658 15.5416L68.7851 15.7022C69.4084 15.2391 70.1269 15.0065 70.9427 15.0065V14.8065ZM74.3717 15.2185H78.5161V15.0185H74.3717V15.2185ZM78.4161 15.1185V30.0591H78.6161V15.1185H78.4161ZM78.5161 29.9591H74.3717V30.1591H78.5161V29.9591ZM74.4717 30.0591V15.1185H74.2717V30.0591H74.4717ZM76.4524 8.9C75.8174 8.9 75.2683 9.1141 74.8087 9.5396L74.9445 9.68636C75.3667 9.29551 75.8672 9.1 76.4524 9.1V8.9ZM74.8087 9.5396C74.3483 9.96585 74.1153 10.4856 74.1153 11.0907H74.3153C74.3153 10.5438 74.5232 10.0765 74.9445 9.68636L74.8087 9.5396ZM74.1153 11.0907C74.1153 11.6958 74.3482 12.2167 74.8083 12.6471L74.9449 12.501C74.5232 12.1065 74.3153 11.6376 74.3153 11.0907H74.1153ZM74.8083 12.6471C75.268 13.0772 75.8174 13.2913 76.4524 13.2913V13.0913C75.8672 13.0913 75.367 12.8959 74.9449 12.501L74.8083 12.6471ZM76.4524 13.2913C77.0872 13.2913 77.6465 13.076 78.1064 12.6472L77.9701 12.5009C77.5482 12.8942 77.038 13.0913 76.4524 13.0913V13.2913ZM78.1066 12.6471C78.5666 12.2168 78.7996 11.6973 78.7996 11.0907H78.5996C78.5996 11.639 78.3917 12.1065 77.9699 12.501L78.1066 12.6471ZM78.7996 11.0907C78.7996 10.4841 78.5666 9.96582 78.1062 9.5396L77.9703 9.68636C78.3917 10.0765 78.5996 10.5424 78.5996 11.0907H78.7996ZM78.1062 9.5396C77.6463 9.11388 77.0928 8.9 76.4524 8.9V9.1C77.0437 9.1 77.5484 9.29573 77.9703 9.68636L78.1062 9.5396ZM93.471 15.6906C92.5404 15.1131 91.5166 14.8236 90.4032 14.8236V15.0236C91.48 15.0236 92.4672 15.303 93.3656 15.8605L93.471 15.6906ZM90.4032 14.8236C89.5618 14.8236 88.8486 14.9662 88.2678 15.2566L88.3572 15.4355C88.9028 15.1627 89.5834 15.0236 90.4032 15.0236V14.8236ZM88.2677 15.2566C87.6928 15.5448 87.2274 15.9013 86.8744 16.3276L87.0284 16.4551C87.3609 16.0537 87.8029 15.7133 88.3573 15.4354L88.2677 15.2566ZM86.8744 16.3276C86.5258 16.7482 86.2547 17.1666 86.0626 17.5856L86.2444 17.669C86.4278 17.2688 86.6887 16.8651 87.0284 16.4552L86.8744 16.3276ZM86.1535 17.5273H85.9686V17.7273H86.1535V17.5273ZM86.0686 17.6273V15.117H85.8686V17.6273H86.0686ZM85.9686 15.017H81.884V15.217H85.9686V15.017ZM81.784 15.117V35.6612H81.984V15.117H81.784ZM81.884 35.7612H86.0269V35.5612H81.884V35.7612ZM86.1269 35.6612V27.6654H85.9269V35.6612H86.1269ZM86.0269 27.7654H86.1535V27.5654H86.0269V27.7654ZM86.063 27.7079C86.2624 28.1329 86.541 28.5502 86.9003 28.9615L87.0509 28.8299C86.7019 28.4305 86.4344 28.0286 86.2441 27.6229L86.063 27.7079ZM86.9003 28.9615C87.2647 29.3785 87.7329 29.722 88.3053 29.993L88.3908 29.8122C87.8396 29.5513 87.3948 29.2235 87.0509 28.8299L86.9003 28.9615ZM88.3052 29.9929C88.8823 30.2669 89.5806 30.4008 90.3946 30.4008V30.2008C89.6016 30.2008 88.9345 30.0702 88.3909 29.8123L88.3052 29.9929ZM90.3946 30.4008C91.5478 30.4008 92.5908 30.1028 93.5221 29.5046L93.414 29.3363C92.5164 29.9129 91.5113 30.2008 90.3946 30.2008V30.4008ZM93.5221 29.5046C94.4548 28.9055 95.1932 28.0251 95.7375 26.866L95.5564 26.781C95.0255 27.9116 94.3103 28.7606 93.414 29.3363L93.5221 29.5046ZM95.7374 26.8661C96.2844 25.7043 96.5548 24.2836 96.5548 22.6065H96.3548C96.3548 24.2632 96.0876 25.6528 95.5565 26.7809L95.7374 26.8661ZM96.5548 22.6065C96.5548 20.9298 96.276 19.443 95.7127 18.2875L95.5329 18.3751C96.0789 19.4952 96.3548 20.9495 96.3548 22.6065H96.5548ZM95.7127 18.2875C95.1512 17.1358 94.4057 16.2668 93.4725 15.6877L93.367 15.8577C94.2628 16.4135 94.985 17.2512 95.5329 18.3751L95.7127 18.2875ZM91.3308 25.719C90.8111 26.5102 90.0652 26.9041 89.0805 26.9041V27.1041C90.1296 27.1041 90.9396 26.6788 91.498 25.8288L91.3308 25.719ZM89.0805 26.9041C88.0962 26.9041 87.3722 26.5161 86.8436 25.7362L86.678 25.8484C87.2445 26.6842 88.031 27.1041 89.0805 27.1041V26.9041ZM86.8436 25.7362C86.3106 24.9513 86.0388 23.9035 86.0388 22.588H85.8388C85.8388 23.9294 86.1159 25.0205 86.6781 25.8485L86.8436 25.7362ZM86.0388 22.588C86.0388 21.2721 86.308 20.2248 86.8374 19.4591L86.6729 19.3454C86.1128 20.1555 85.8388 21.2472 85.8388 22.588H86.0388ZM86.8374 19.4591C87.3624 18.6998 88.1059 18.3204 89.0805 18.3204V18.1204C88.0441 18.1204 87.2373 18.5289 86.6729 19.3454L86.8374 19.4591ZM89.0805 18.3204C90.0552 18.3204 90.8219 18.7096 91.3367 19.4873L91.5034 19.3769C90.9487 18.5389 90.1168 18.1204 89.0805 18.1204V18.3204ZM91.3367 19.4874C91.8575 20.2727 92.1222 21.3041 92.1222 22.588H92.3222C92.3222 21.2779 92.0522 20.2044 91.5034 19.3768L91.3367 19.4874ZM92.1222 22.588C92.1222 23.872 91.8561 24.9192 91.3308 25.719L91.498 25.8288C92.0507 24.9872 92.3222 23.8983 92.3222 22.588H92.1222ZM117.627 17.285L114.357 29.975L114.55 30.025L117.82 17.335L117.627 17.285ZM114.453 29.9H111.723V30.1H114.453V29.9ZM111.819 29.9714L108.219 17.9114L108.028 17.9686L111.628 30.0286L111.819 29.9714ZM108.028 17.9112L104.398 29.9712L104.589 30.0288L108.219 17.9688L108.028 17.9112ZM104.493 29.9H102.003V30.1H104.493V29.9ZM102.1 29.9753L98.8603 17.2853L98.6665 17.3347L101.907 30.0247L102.1 29.9753ZM98.8602 17.2848C98.7402 16.8248 98.6385 16.4976 98.5548 16.3094L98.3721 16.3906C98.4484 16.5624 98.5467 16.8752 98.6667 17.3352L98.8602 17.2848ZM98.5592 16.3213C98.4972 16.1144 98.4077 15.954 98.2749 15.8742L98.172 16.0457C98.2391 16.086 98.3097 16.1856 98.3677 16.3787L98.5592 16.3213ZM98.2749 15.8742C98.1562 15.803 97.9889 15.761 97.7834 15.7405L97.7635 15.9395C97.958 15.959 98.0907 15.997 98.172 16.0457L98.2749 15.8742ZM97.7861 15.7408L96.1361 15.5308L96.1108 15.7292L97.7608 15.9392L97.7861 15.7408ZM96.2234 15.63V14.79H96.0234V15.63H96.2234ZM96.1234 14.89H104.103V14.69H96.1234V14.89ZM104.003 14.79V15.63H104.203V14.79H104.003ZM104.091 15.5308L102.441 15.7408L102.466 15.9392L104.116 15.7292L104.091 15.5308ZM102.441 15.7408C102.276 15.7614 102.138 15.7959 102.034 15.8481C101.929 15.9006 101.848 15.9765 101.817 16.0825L102.01 16.1375C102.019 16.1035 102.048 16.0644 102.123 16.0269C102.199 15.9891 102.311 15.9586 102.466 15.9392L102.441 15.7408ZM101.819 16.0784C101.802 16.1275 101.8 16.1911 101.804 16.2583C101.808 16.3286 101.82 16.4153 101.837 16.5172C101.873 16.7214 101.936 16.9945 102.027 17.3356L102.22 17.2844C102.13 16.9455 102.069 16.6786 102.034 16.4828C102.017 16.3847 102.007 16.3064 102.004 16.2467C102 16.1839 102.005 16.1525 102.008 16.1416L101.819 16.0784ZM102.027 17.3351L104.367 26.3651L104.56 26.3149L102.22 17.2849L102.027 17.3351ZM104.559 26.3686L108.009 14.8186L107.818 14.7614L104.368 26.3114L104.559 26.3686ZM107.913 14.89H110.553V14.69H107.913V14.89ZM110.458 14.8184L114.028 26.8784L114.219 26.8216L110.649 14.7616L110.458 14.8184ZM114.22 26.8747L116.65 17.3347L116.457 17.2853L114.027 26.8253L114.22 26.8747ZM116.65 17.3356C116.74 16.9945 116.804 16.7214 116.839 16.5172C116.857 16.4153 116.869 16.3286 116.873 16.2583C116.877 16.1911 116.875 16.1275 116.858 16.0784L116.669 16.1416C116.672 16.1525 116.677 16.1839 116.673 16.2467C116.67 16.3064 116.66 16.3847 116.642 16.4828C116.608 16.6786 116.546 16.9455 116.457 17.2844L116.65 17.3356ZM116.86 16.0825C116.829 15.9765 116.748 15.9006 116.643 15.8481C116.539 15.7959 116.401 15.7614 116.236 15.7408L116.211 15.9392C116.366 15.9586 116.478 15.9891 116.554 16.0269C116.629 16.0644 116.658 16.1035 116.667 16.1375L116.86 16.0825ZM116.236 15.7408L114.586 15.5308L114.561 15.7292L116.211 15.9392L116.236 15.7408ZM114.673 15.63V14.79H114.473V15.63H114.673ZM114.573 14.89H120.363V14.69H114.573V14.89ZM120.263 14.79V15.63H120.463V14.79H120.263ZM120.351 15.5308L118.701 15.7408L118.726 15.9392L120.376 15.7292L120.351 15.5308ZM118.703 15.7405C118.498 15.761 118.331 15.803 118.212 15.8742L118.315 16.0457C118.396 15.997 118.529 15.959 118.723 15.9395L118.703 15.7405ZM118.212 15.8742C118.083 15.9516 117.983 16.1075 117.901 16.3129L118.086 16.3871C118.164 16.1925 118.244 16.0884 118.315 16.0457L118.212 15.8742ZM117.899 16.3184C117.837 16.5019 117.747 16.8249 117.627 17.2848L117.82 17.3352C117.94 16.8751 118.029 16.5581 118.088 16.3816L117.899 16.3184ZM124.919 12.11C124.321 12.11 123.848 11.9276 123.49 11.5693L123.348 11.7107C123.75 12.1124 124.277 12.31 124.919 12.31V12.11ZM123.491 11.5711C123.131 11.1921 122.949 10.7078 122.949 10.11H122.749C122.749 10.7522 122.947 11.2879 123.346 11.7089L123.491 11.5711ZM122.949 10.11C122.949 9.5121 123.131 9.03905 123.49 8.68071L123.348 8.53929C122.947 8.94095 122.749 9.46789 122.749 10.11H122.949ZM123.49 8.68071C123.848 8.32237 124.321 8.14 124.919 8.14V7.94C124.277 7.94 123.75 8.13763 123.348 8.53929L123.49 8.68071ZM124.919 8.14C125.496 8.14 125.97 8.32177 126.35 8.6825L126.488 8.5375C126.068 8.13822 125.542 7.94 124.919 7.94V8.14ZM126.35 8.6825C126.728 9.04119 126.919 9.51368 126.919 10.11H127.119C127.119 9.46632 126.91 8.93881 126.488 8.5375L126.35 8.6825ZM126.919 10.11C126.919 10.7063 126.728 11.1899 126.348 11.5693L126.49 11.7107C126.91 11.2901 127.119 10.7537 127.119 10.11H126.919ZM126.35 11.5675C125.97 11.9282 125.496 12.11 124.919 12.11V12.31C125.542 12.31 126.068 12.1118 126.488 11.7125L126.35 11.5675ZM120.999 15.63V14.79H120.799V15.63H120.999ZM120.899 14.89H126.659V14.69H120.899V14.89ZM126.559 14.79V27.48H126.759V14.79H126.559ZM126.559 27.48C126.559 27.8211 126.566 28.0963 126.582 28.3048C126.597 28.5081 126.62 28.6619 126.657 28.7494L126.841 28.6706C126.818 28.6181 126.796 28.4969 126.781 28.2902C126.766 28.0887 126.759 27.8189 126.759 27.48H126.559ZM126.66 28.7547C126.705 28.8449 126.792 28.9077 126.898 28.9522C127.004 28.9971 127.142 29.0287 127.307 29.0492L127.331 28.8508C127.176 28.8313 127.059 28.8029 126.975 28.7678C126.891 28.7323 126.853 28.6951 126.838 28.6653L126.66 28.7547ZM127.306 29.0492L128.956 29.2592L128.982 29.0608L127.332 28.8508L127.306 29.0492ZM128.869 29.16V30H129.069V29.16H128.869ZM128.969 29.9H120.899V30.1H128.969V29.9ZM120.999 30V29.16H120.799V30H120.999ZM120.912 29.2592L122.562 29.0492L122.536 28.8508L120.886 29.0608L120.912 29.2592ZM122.561 29.0492C122.726 29.0287 122.864 28.9971 122.97 28.9522C123.076 28.9077 123.163 28.8449 123.208 28.7547L123.03 28.6653C123.015 28.6951 122.977 28.7323 122.893 28.7678C122.809 28.8029 122.692 28.8313 122.537 28.8508L122.561 29.0492ZM123.211 28.7494C123.248 28.6619 123.271 28.5081 123.286 28.3048C123.301 28.0963 123.309 27.8211 123.309 27.48H123.109C123.109 27.8189 123.101 28.0887 123.087 28.2902C123.072 28.4969 123.05 28.6181 123.027 28.6706L123.211 28.7494ZM123.309 27.48V17.31H123.109V27.48H123.309ZM123.309 17.31C123.309 16.969 123.301 16.6961 123.286 16.4925C123.279 16.3908 123.269 16.3048 123.257 16.2354C123.245 16.1682 123.23 16.1088 123.208 16.0653L123.03 16.1547C123.038 16.1712 123.049 16.2068 123.06 16.2696C123.07 16.3302 123.079 16.4092 123.087 16.5075C123.101 16.7039 123.109 16.971 123.109 17.31H123.309ZM123.211 16.0706C123.168 15.9709 123.083 15.8986 122.974 15.8471C122.866 15.7958 122.727 15.7615 122.561 15.7408L122.537 15.9392C122.691 15.9585 122.807 15.9892 122.889 16.0279C122.97 16.0664 123.01 16.1091 123.027 16.1494L123.211 16.0706ZM122.562 15.7408L120.912 15.5308L120.886 15.7292L122.536 15.9392L122.562 15.7408ZM135.487 29.16V30H135.688V29.16H135.487ZM135.587 29.9H129.587V30.1H135.587V29.9ZM129.688 30V29.16H129.487V30H129.688ZM129.6 29.2592L131.25 29.0492L131.225 28.8508L129.575 29.0608L129.6 29.2592ZM131.257 29.0481C131.459 29.0077 131.616 28.9663 131.725 28.9228L131.65 28.7372C131.559 28.7737 131.416 28.8123 131.218 28.8519L131.257 29.0481ZM131.732 28.9194C131.872 28.8494 132.023 28.7053 132.186 28.5025L132.029 28.3775C131.872 28.5747 131.743 28.6906 131.643 28.7406L131.732 28.9194ZM132.186 28.5025C132.348 28.2993 132.58 27.9767 132.88 27.5363L132.715 27.4237C132.415 27.8633 132.187 28.1807 132.029 28.3775L132.186 28.5025ZM132.88 27.5366L136.09 22.8566L135.925 22.7434L132.715 27.4234L132.88 27.5366ZM136.094 22.7495L132.884 17.2595L132.711 17.3605L135.921 22.8505L136.094 22.7495ZM132.885 17.2608C132.624 16.8006 132.421 16.4749 132.276 16.2886L132.119 16.4114C132.254 16.5851 132.451 16.8994 132.71 17.3592L132.885 17.2608ZM132.279 16.2927C132.137 16.0885 131.995 15.9419 131.852 15.8706L131.763 16.0494C131.86 16.0981 131.978 16.2115 132.116 16.4073L132.279 16.2927ZM131.852 15.8706C131.717 15.8031 131.544 15.7612 131.337 15.7405L131.318 15.9395C131.511 15.9588 131.658 15.9969 131.763 16.0494L131.852 15.8706ZM131.34 15.7408L129.69 15.5308L129.665 15.7292L131.315 15.9392L131.34 15.7408ZM129.777 15.63V14.79H129.577V15.63H129.777ZM129.677 14.89H137.988V14.69H129.677V14.89ZM137.887 14.79V15.63H138.088V14.79H137.887ZM137.975 15.5308L136.325 15.7408L136.35 15.9392L138 15.7292L137.975 15.5308ZM136.325 15.7408C136.162 15.7612 136.029 15.7929 135.938 15.8418C135.891 15.8665 135.849 15.8991 135.821 15.943C135.79 15.9894 135.78 16.0423 135.789 16.0964L135.986 16.0636C135.985 16.0577 135.986 16.0556 135.988 16.052C135.992 16.0459 136.004 16.0335 136.032 16.0182C136.09 15.9871 136.193 15.9588 136.35 15.9392L136.325 15.7408ZM135.789 16.0964C135.796 16.1398 135.818 16.1979 135.846 16.2642C135.876 16.3332 135.918 16.4197 135.971 16.5231C136.077 16.7301 136.23 17.0091 136.431 17.3596L136.604 17.2604C136.405 16.9109 136.253 16.6349 136.149 16.4319C136.097 16.3303 136.057 16.2481 136.03 16.1846C136.001 16.1184 135.989 16.0802 135.986 16.0636L135.789 16.0964ZM136.431 17.3607L138.441 20.7807L138.614 20.6793L136.604 17.2593L136.431 17.3607ZM138.61 20.786L140.92 17.366L140.755 17.254L138.445 20.674L138.61 20.786ZM140.92 17.366C141.151 17.0253 141.325 16.753 141.442 16.5498C141.5 16.4484 141.545 16.3625 141.576 16.2929C141.605 16.228 141.628 16.1632 141.628 16.11H141.427C141.427 16.1098 141.427 16.1121 141.426 16.1175C141.425 16.1228 141.424 16.13 141.421 16.1392C141.415 16.1577 141.406 16.1818 141.393 16.212C141.366 16.2725 141.325 16.3516 141.268 16.4502C141.155 16.647 140.984 16.9147 140.755 17.254L140.92 17.366ZM141.626 16.1241C141.634 16.0689 141.626 16.0145 141.598 15.9652C141.571 15.9173 141.529 15.8804 141.481 15.8517C141.388 15.7959 141.254 15.7613 141.09 15.7408L141.065 15.9392C141.221 15.9587 141.322 15.9891 141.379 16.0232C141.406 16.0396 141.418 16.054 141.424 16.0636C141.428 16.0717 141.431 16.0811 141.428 16.0959L141.626 16.1241ZM141.09 15.7408L139.44 15.5308L139.415 15.7292L141.065 15.9392L141.09 15.7408ZM139.527 15.63V14.79H139.327V15.63H139.527ZM139.427 14.89H145.428V14.69H139.427V14.89ZM145.327 14.79V15.63H145.528V14.79H145.327ZM145.415 15.5308L143.765 15.7408L143.79 15.9392L145.44 15.7292L145.415 15.5308ZM143.768 15.7405C143.561 15.7612 143.388 15.8031 143.253 15.8706L143.342 16.0494C143.447 15.9969 143.594 15.9588 143.787 15.9395L143.768 15.7405ZM143.246 15.8742C143.13 15.9442 142.99 16.0867 142.829 16.2875L142.986 16.4125C143.145 16.2133 143.265 16.0958 143.349 16.0457L143.246 15.8742ZM142.829 16.2886C142.687 16.4709 142.455 16.7929 142.135 17.2529L142.3 17.3671C142.62 16.9071 142.848 16.5891 142.986 16.4114L142.829 16.2886ZM142.135 17.2538L139.075 21.7538L139.24 21.8662L142.3 17.3662L142.135 17.2538ZM139.071 21.8603L142.371 27.5303L142.544 27.4297L139.244 21.7597L139.071 21.8603ZM142.372 27.532C142.652 27.992 142.852 28.3217 142.972 28.5215L143.143 28.4186C143.023 28.2183 142.823 27.888 142.543 27.428L142.372 27.532ZM142.979 28.5314C143.122 28.716 143.263 28.8496 143.403 28.9194L143.492 28.7406C143.392 28.6904 143.273 28.584 143.136 28.4086L142.979 28.5314ZM143.416 28.9249C143.541 28.9667 143.706 29.0077 143.908 29.0481L143.947 28.8519C143.749 28.8123 143.594 28.7733 143.479 28.7351L143.416 28.9249ZM143.915 29.0492L145.565 29.2592L145.59 29.0608L143.94 28.8508L143.915 29.0492ZM145.477 29.16V30H145.678V29.16H145.477ZM145.577 29.9H137.268V30.1H145.577V29.9ZM137.368 30V29.16H137.167V30H137.368ZM137.28 29.2592L138.93 29.0492L138.905 28.8508L137.255 29.0608L137.28 29.2592ZM138.93 29.0492C139.093 29.0288 139.225 28.9971 139.317 28.9482C139.364 28.9235 139.406 28.8909 139.434 28.847C139.465 28.8006 139.475 28.7477 139.466 28.6936L139.269 28.7264C139.27 28.7323 139.269 28.7344 139.267 28.738C139.263 28.7441 139.251 28.7565 139.223 28.7718C139.165 28.8029 139.062 28.8312 138.905 28.8508L138.93 29.0492ZM139.466 28.6959C139.46 28.6475 139.438 28.5857 139.409 28.5158C139.379 28.4438 139.337 28.3556 139.284 28.2519C139.178 28.0444 139.024 27.77 138.824 27.4293L138.651 27.5307C138.851 27.87 139.002 28.1406 139.106 28.3431C139.158 28.4444 139.197 28.5275 139.225 28.593C139.253 28.6605 139.265 28.7025 139.268 28.7241L139.466 28.6959ZM138.824 27.4299L136.724 23.7999L136.551 23.9001L138.651 27.5301L138.824 27.4299ZM136.555 23.7939L134.095 27.4239L134.26 27.5361L136.72 23.9061L136.555 23.7939ZM134.095 27.424C133.864 27.7647 133.688 28.0392 133.566 28.247C133.505 28.3508 133.458 28.4392 133.423 28.5116C133.39 28.5815 133.366 28.6449 133.359 28.6959L133.557 28.7241C133.559 28.7051 133.572 28.6648 133.604 28.5971C133.635 28.5321 133.68 28.4492 133.739 28.348C133.857 28.1458 134.031 27.8753 134.26 27.536L134.095 27.424ZM133.357 28.71C133.357 28.825 133.438 28.9018 133.533 28.9494C133.628 28.9971 133.761 29.0288 133.925 29.0492L133.95 28.8508C133.794 28.8312 133.687 28.8029 133.622 28.7706C133.557 28.7382 133.558 28.715 133.558 28.71H133.357ZM133.925 29.0492L135.575 29.2592L135.6 29.0608L133.95 28.8508L133.925 29.0492Z" fill="#1F3345" mask="url(#path-1-outside-1_1786_491)"/>
</svg>
