<svg width="154" height="37" viewBox="0 0 154 37" fill="none" xmlns="http://www.w3.org/2000/svg">
<path d="M43.6345 0.00706781C36.4191 0.0141356 29.2073 0.0141356 21.9954 0.0141356C14.7836 0.0141356 7.53253 0.0141356 0.299306 0.00353391C0.0712633 0.00353391 0 0.0494747 0 0.286246C0.00712633 12.4252 0.00712633 24.5642 0 36.7032C0 36.9258 0.0534475 36.9929 0.29218 36.9929C6.85909 36.9859 13.4224 36.9859 19.9894 36.9929C20.2459 36.9929 20.2958 36.9187 20.2958 36.6819C20.2887 26.7552 20.2887 16.8285 20.2958 6.90172C20.2958 6.67555 20.2388 6.61194 20.0036 6.61194C15.6851 6.61901 11.3629 6.61901 7.04438 6.61194C6.83059 6.61194 6.75932 6.65788 6.75932 6.88405C6.76645 10.0151 6.76645 13.1461 6.75932 16.2772C6.75932 16.4786 6.80565 16.5457 7.023 16.5422C7.96011 16.5281 9.08963 16.5281 10.0303 16.5422C10.269 16.5457 10.2904 16.4927 10.2904 16.2383C10.2762 14.2275 10.3011 12.192 10.2904 10.1812C10.2904 9.95148 10.3261 9.91967 10.5577 9.91967C12.6029 9.93028 14.2812 9.93028 16.3264 9.91967C16.5794 9.91967 16.5937 9.94795 16.5937 10.2095C16.5865 17.9169 16.5865 25.6456 16.5937 33.3495C16.5937 33.5898 16.5972 33.6746 16.3264 33.6746C12.0257 33.664 8.29861 33.6675 3.99431 33.6746C3.73776 33.6746 3.68788 33.5862 3.68788 33.3495C3.695 23.4333 3.69857 13.5313 3.695 3.61519C3.695 3.37135 3.75201 3.31127 3.99787 3.31127C16.191 3.31834 27.8069 3.31834 39.9965 3.31127C40.246 3.31127 40.2709 3.37135 40.2709 3.61519C40.2638 13.5313 40.2638 23.451 40.2709 33.3671C40.2709 33.6004 40.2566 33.6746 39.9965 33.6746C35.6958 33.664 32.0186 33.6675 27.7143 33.6746C27.4756 33.6746 27.3687 33.6039 27.3687 33.3495C27.3758 25.6279 27.3758 17.931 27.3687 10.2095C27.3687 9.97268 27.4863 9.91967 27.7143 9.91967C29.7524 9.92674 31.0886 9.93381 33.1267 9.91967C33.4296 9.91967 33.4688 9.96915 33.4652 10.2342C33.4546 12.2273 33.4759 14.2805 33.4652 16.2736C33.4652 16.5069 33.4938 16.5422 33.7289 16.5387C34.6589 16.5245 35.963 16.5245 36.893 16.5387C37.1424 16.5422 37.2066 16.4786 37.203 16.2348C37.1923 13.132 37.1923 10.0292 37.203 6.92292C37.203 6.66848 37.1317 6.60841 36.8752 6.60841C32.5816 6.61547 28.2915 6.61547 23.9979 6.60841C23.7236 6.60841 23.6594 6.68262 23.6594 6.94413C23.6665 16.8461 23.6665 26.7446 23.6594 36.6431C23.6594 36.9152 23.72 36.9929 24.0122 36.9929C30.547 36.9823 37.0854 36.9823 43.6238 36.9929C43.9231 36.9929 43.9695 36.9011 43.9695 36.6395C43.9623 24.5359 43.9623 12.4358 43.9695 0.332187C43.9695 0.074212 43.916 0 43.6381 0" fill="#1F3345"/>
<path d="M62.2056 25.3874C61.9775 25.4298 61.7495 25.451 61.525 25.451C61.0404 25.451 60.6485 25.3344 60.3456 25.1012C60.0427 24.8679 59.8895 24.4226 59.8895 23.7618V15.3829H63.1712V11.7783H59.8895V7.63306H55.0508V11.7783H52.667V15.3829H55.0508V24.3944C55.0436 26.0907 55.571 27.3558 56.6364 28.1827C57.6982 29.0132 59.1092 29.3913 60.8658 29.3136C61.493 29.2924 62.0274 29.2288 62.4657 29.1263C62.904 29.0238 63.246 28.9354 63.4883 28.8612L62.7294 25.292C62.6082 25.3132 62.4336 25.345 62.2056 25.3874Z" fill="#1F3345"/>
<path d="M71.8906 12.3545C71.1424 12.9058 70.6079 13.7186 70.2908 14.7929H70.109V11.775H65.4199V29.0734H70.2587V19.288C70.2587 18.2208 70.6079 17.355 71.3098 16.6906C72.0082 16.0263 72.8954 15.6941 73.9608 15.6941C74.2958 15.6941 74.6592 15.7188 75.0618 15.7683C75.4645 15.8178 75.778 15.8778 76.0061 15.9556V11.6972C75.5286 11.5841 75.0226 11.5276 74.4846 11.5276C73.5083 11.5276 72.646 11.8032 71.8942 12.3545" fill="#1F3345"/>
<path d="M82.4335 11.7749H77.5947V29.0734H82.4335V11.7749Z" fill="#1F3345"/>
<path d="M80.0249 4.69287C79.3123 4.69287 78.6994 4.92964 78.1863 5.40319C77.6732 5.87673 77.4131 6.44569 77.4131 7.1136C77.4131 7.78151 77.6696 8.354 78.1863 8.83108C78.703 9.30815 79.3158 9.54492 80.0249 9.54492C80.734 9.54492 81.3611 9.30815 81.8742 8.83108C82.3908 8.354 82.6474 7.78151 82.6474 7.1136C82.6474 6.44569 82.3908 5.8732 81.8742 5.40319C81.3611 4.92964 80.7411 4.69287 80.0249 4.69287Z" fill="#1F3345"/>
<path d="M98.8636 12.5348C97.7947 11.8775 96.6224 11.5488 95.3432 11.5488C94.374 11.5488 93.5617 11.7114 92.9025 12.04C92.2433 12.3687 91.7124 12.7716 91.3133 13.2522C90.9107 13.7328 90.6007 14.2099 90.3833 14.6834H90.166V11.7785H85.3984V35.5653H90.2372V26.3064H90.3833C90.6114 26.787 90.9285 27.2606 91.3418 27.7306C91.7551 28.2006 92.2896 28.5893 92.9452 28.8968C93.6008 29.2042 94.3954 29.3597 95.3361 29.3597C96.6616 29.3597 97.8553 29.0205 98.9242 28.342C99.9932 27.6634 100.841 26.6598 101.468 25.3346C102.095 24.0094 102.413 22.3838 102.413 20.4507C102.413 18.5177 102.088 16.8179 101.44 15.4997C100.791 14.1816 99.9362 13.1956 98.8672 12.5383M96.5226 24.1119C95.8955 25.0625 94.9869 25.536 93.7968 25.536C92.6067 25.536 91.7266 25.0696 91.0888 24.1331C90.4474 23.2001 90.1303 21.9597 90.1303 20.4225C90.1303 18.8852 90.4474 17.6448 91.0853 16.7331C91.7195 15.8213 92.6245 15.3654 93.8004 15.3654C94.9762 15.3654 95.9062 15.8319 96.5298 16.7684C97.1533 17.7014 97.4669 18.9206 97.4669 20.4225C97.4669 21.9244 97.1533 23.1612 96.5226 24.1119Z" fill="#1F3345"/>
<path d="M121.362 23.3308H121.216L118.355 11.7749H113.551L110.736 23.3979H110.576L107.872 11.7749H102.979L107.726 29.0734H112.835L115.832 18.196H116.049L119.046 29.0734H124.166L128.902 11.7749H124.02L121.362 23.3308Z" fill="#1F3345"/>
<path d="M135.411 11.7749H130.572V29.0734H135.411V11.7749Z" fill="#1F3345"/>
<path d="M133.002 4.69287C132.29 4.69287 131.677 4.92964 131.164 5.40319C130.651 5.87673 130.391 6.44569 130.391 7.1136C130.391 7.78151 130.647 8.354 131.164 8.83108C131.68 9.30815 132.293 9.54492 133.002 9.54492C133.711 9.54492 134.339 9.30815 134.852 8.83108C135.368 8.354 135.625 7.78151 135.625 7.1136C135.625 6.44569 135.368 5.8732 134.852 5.40319C134.339 4.92964 133.719 4.69287 133.002 4.69287Z" fill="#1F3345"/>
<path d="M148.812 20.4259L153.865 11.7749H148.902L145.62 17.8249L142.417 11.7749H137.421L142.417 20.4259L137.239 29.0734H142.235L145.62 23.094L149.062 29.0734H154L148.812 20.4259Z" fill="#1F3345"/>
</svg>
