<svg width="128" height="31" viewBox="0 0 128 31" fill="none" xmlns="http://www.w3.org/2000/svg">
<path d="M36.1753 0.00585958C30.1933 0.0117192 24.2143 0.0117192 18.2353 0.0117192C12.2564 0.0117192 6.24486 0.0117192 0.24814 0.00292979C0.059081 0.00292979 0 0.0410171 0 0.237313C0.0059081 10.3011 0.0059081 20.365 0 30.4288C0 30.6134 0.0443107 30.6691 0.242232 30.6691C5.68655 30.6632 11.1279 30.6632 16.5722 30.6691C16.7849 30.6691 16.8263 30.6075 16.8263 30.4112C16.8204 22.1815 16.8204 13.9517 16.8263 5.72188C16.8263 5.53438 16.779 5.48164 16.584 5.48164C13.0037 5.4875 9.42046 5.4875 5.84016 5.48164C5.66291 5.48164 5.60383 5.51973 5.60383 5.70724C5.60974 8.30303 5.60974 10.8988 5.60383 13.4946C5.60383 13.6616 5.64223 13.7173 5.82243 13.7144C6.59935 13.7026 7.53578 13.7026 8.31565 13.7144C8.51357 13.7173 8.5313 13.6733 8.5313 13.4624C8.51948 11.7953 8.54016 10.1078 8.5313 8.44073C8.5313 8.2503 8.56084 8.22393 8.75285 8.22393C10.4485 8.23272 11.8398 8.23272 13.5355 8.22393C13.7452 8.22393 13.757 8.24736 13.757 8.46417C13.7511 14.854 13.7511 21.2615 13.757 27.6485C13.757 27.8477 13.76 27.918 13.5355 27.918C9.96992 27.9092 6.87998 27.9121 3.31149 27.918C3.0988 27.918 3.05744 27.8447 3.05744 27.6485C3.06335 19.4275 3.0663 11.2182 3.06335 2.99718C3.06335 2.79502 3.11061 2.74522 3.31444 2.74522C13.4232 2.75108 23.0534 2.75108 33.1592 2.74522C33.366 2.74522 33.3867 2.79502 33.3867 2.99718C33.3808 11.2182 33.3808 19.4421 33.3867 27.6631C33.3867 27.8565 33.3749 27.918 33.1592 27.918C29.5937 27.9092 26.5451 27.9121 22.9766 27.918C22.7787 27.918 22.6901 27.8594 22.6901 27.6485C22.696 21.2469 22.696 14.8658 22.6901 8.46417C22.6901 8.26787 22.7875 8.22393 22.9766 8.22393C24.6663 8.22979 25.7741 8.23565 27.4638 8.22393C27.7149 8.22393 27.7474 8.26495 27.7444 8.48468C27.7356 10.1371 27.7533 11.8393 27.7444 13.4917C27.7444 13.6851 27.7681 13.7144 27.963 13.7114C28.734 13.6997 29.8152 13.6997 30.5862 13.7114C30.793 13.7144 30.8462 13.6616 30.8432 13.4595C30.8344 10.8871 30.8344 8.31475 30.8432 5.73946C30.8432 5.52852 30.7842 5.47871 30.5715 5.47871C27.0118 5.48457 23.4552 5.48457 19.8955 5.47871C19.6681 5.47871 19.6149 5.54024 19.6149 5.75704C19.6208 13.9663 19.6208 22.1727 19.6149 30.379C19.6149 30.6046 19.6651 30.6691 19.9073 30.6691C25.3251 30.6603 30.7457 30.6603 36.1664 30.6691C36.4146 30.6691 36.453 30.5929 36.453 30.3761C36.4471 20.3415 36.4471 10.3099 36.453 0.2754C36.453 0.0615256 36.4087 0 36.1782 0" fill="white"/>
<path d="M51.5721 21.0476C51.383 21.0828 51.1939 21.1004 51.0078 21.1004C50.6061 21.1004 50.2811 21.0037 50.03 20.8103C49.7789 20.617 49.6519 20.2478 49.6519 19.6999V12.7534H52.3726V9.76502H49.6519V6.32837H45.6403V9.76502H43.6641V12.7534H45.6403V20.2244C45.6344 21.6307 46.0716 22.6795 46.9549 23.3651C47.8352 24.0536 49.005 24.3671 50.4613 24.3026C50.9812 24.2851 51.4244 24.2323 51.7877 24.1474C52.151 24.0624 52.4346 23.9892 52.6355 23.9276L52.0063 20.9685C51.9059 20.9861 51.7611 21.0125 51.5721 21.0476Z" fill="white"/>
<path d="M59.6009 10.2425C58.9805 10.6995 58.5374 11.3734 58.2745 12.264H58.1239V9.76197H54.2363V24.1033H58.2479V15.9907C58.2479 15.1059 58.5374 14.3881 59.1194 13.8373C59.6984 13.2865 60.4339 13.0111 61.3172 13.0111C61.5949 13.0111 61.8962 13.0316 62.23 13.0726C62.5638 13.1137 62.8237 13.1635 63.0128 13.2279V9.69751C62.617 9.60376 62.1975 9.55688 61.7514 9.55688C60.942 9.55688 60.2271 9.78541 59.6038 10.2425" fill="white"/>
<path d="M68.3417 9.76196H64.3301V24.1033H68.3417V9.76196Z" fill="white"/>
<path d="M66.345 3.89062C65.7542 3.89062 65.2461 4.08692 64.8207 4.47951C64.3953 4.87211 64.1797 5.3438 64.1797 5.89753C64.1797 6.45126 64.3924 6.92589 64.8207 7.32141C65.2491 7.71693 65.7572 7.91323 66.345 7.91323C66.9329 7.91323 67.4528 7.71693 67.8782 7.32141C68.3065 6.92589 68.5192 6.45126 68.5192 5.89753C68.5192 5.3438 68.3065 4.86918 67.8782 4.47951C67.4528 4.08692 66.9388 3.89062 66.345 3.89062Z" fill="white"/>
<path d="M81.9632 10.3919C81.0769 9.84693 80.1051 9.57446 79.0446 9.57446C78.2411 9.57446 77.5675 9.70923 77.021 9.98171C76.4745 10.2542 76.0344 10.5882 75.7035 10.9866C75.3697 11.3851 75.1127 11.7806 74.9325 12.1732H74.7523V9.7649H70.7998V29.4853H74.8114V21.8093H74.9325C75.1216 22.2077 75.3845 22.6003 75.7272 22.99C76.0698 23.3796 76.5129 23.7019 77.0565 23.9568C77.6 24.2117 78.2588 24.3406 79.0386 24.3406C80.1376 24.3406 81.1272 24.0594 82.0134 23.4968C82.8996 22.9343 83.6027 22.1023 84.1226 21.0036C84.6425 19.9049 84.9054 18.5572 84.9054 16.9546C84.9054 15.352 84.6366 13.9428 84.0989 12.85C83.5613 11.7572 82.8523 10.9397 81.9661 10.3948M80.0224 19.9899C79.5024 20.778 78.7492 21.1706 77.7625 21.1706C76.7758 21.1706 76.0462 20.7838 75.5174 20.0075C74.9857 19.234 74.7228 18.2056 74.7228 16.9312C74.7228 15.6567 74.9857 14.6284 75.5145 13.8725C76.0403 13.1166 76.7906 12.7386 77.7655 12.7386C78.7403 12.7386 79.5113 13.1254 80.0283 13.9018C80.5452 14.6752 80.8052 15.686 80.8052 16.9312C80.8052 18.1763 80.5452 19.2018 80.0224 19.9899Z" fill="white"/>
<path d="M100.615 19.3424H100.494L98.1217 9.76196H94.1397L91.806 19.398H91.673L89.4309 9.76196H85.375L89.3098 24.1033H93.5459L96.0302 15.0854H96.2105L98.6948 24.1033H102.94L106.866 9.76196H102.819L100.615 19.3424Z" fill="white"/>
<path d="M112.263 9.76196H108.251V24.1033H112.263V9.76196Z" fill="white"/>
<path d="M110.266 3.89062C109.675 3.89062 109.167 4.08692 108.742 4.47951C108.316 4.87211 108.101 5.3438 108.101 5.89753C108.101 6.45126 108.313 6.92589 108.742 7.32141C109.17 7.71693 109.678 7.91323 110.266 7.91323C110.854 7.91323 111.374 7.71693 111.799 7.32141C112.227 6.92589 112.44 6.45126 112.44 5.89753C112.44 5.3438 112.227 4.86918 111.799 4.47951C111.374 4.08692 110.86 3.89062 110.266 3.89062Z" fill="white"/>
<path d="M123.373 16.9341L127.562 9.76196H123.447L120.726 14.7778L118.071 9.76196H113.929L118.071 16.9341L113.778 24.1033H117.92L120.726 19.1461L123.58 24.1033H127.674L123.373 16.9341Z" fill="white"/>
</svg>
