<svg width="189" height="48" viewBox="0 0 189 48" fill="none" xmlns="http://www.w3.org/2000/svg">
<path d="M57.2605 0.00546862C47.7933 0.0164063 38.328 0.0145811 28.8627 0.0145811C19.3973 0.0145811 9.8818 0.0145836 0.390438 0C0.0929612 0 0 0.0583305 0 0.366408C0.00929614 16.1148 0.00929654 31.8633 0.00185963 47.6117C0.00185963 47.9034 0.0725095 47.9891 0.383001 47.9891C8.99867 47.9818 17.6143 47.98 26.23 47.9909C26.5665 47.9927 26.6335 47.8943 26.6335 47.588C26.626 34.7107 26.626 21.8334 26.6335 8.95431C26.6335 8.66264 26.5591 8.57696 26.2486 8.57696C20.5817 8.58789 14.911 8.58607 9.24037 8.57878C8.95776 8.57878 8.86666 8.63894 8.86666 8.93061C8.87782 12.994 8.87596 17.0555 8.86666 21.117C8.86666 21.3777 8.92802 21.4652 9.21248 21.4616C10.4451 21.4451 11.9251 21.4433 13.1559 21.4616C13.4701 21.467 13.498 21.3959 13.4961 21.0696C13.4794 18.461 13.5092 15.8195 13.4961 13.2109C13.4943 12.9119 13.5408 12.87 13.8475 12.8718C16.5341 12.8846 18.7336 12.8846 21.4202 12.8718C21.7511 12.87 21.7697 12.9083 21.7697 13.2455C21.7586 23.2426 21.7623 33.2706 21.7697 43.2658C21.7697 43.5794 21.7771 43.6869 21.4202 43.6869C15.7756 43.6742 10.8839 43.676 5.23931 43.6869C4.90279 43.6869 4.83585 43.5721 4.83585 43.2658C4.84515 30.3995 4.85073 17.5568 4.84329 4.69044C4.84329 4.37325 4.9158 4.29668 5.23931 4.29668C21.238 4.3058 36.4799 4.3058 52.4767 4.29668C52.804 4.29668 52.8356 4.37325 52.8356 4.69044C52.8263 17.555 52.8281 30.4232 52.8356 43.2895C52.8356 43.5939 52.8151 43.6906 52.4767 43.6906C46.8321 43.6778 42.0056 43.6796 36.3609 43.6887C36.0505 43.6887 35.9091 43.5976 35.9091 43.2676C35.9203 33.2487 35.9184 23.2663 35.9091 13.2474C35.9091 12.9411 36.0616 12.8718 36.3609 12.8736C39.0345 12.8846 40.7915 12.8937 43.4632 12.8736C43.8592 12.87 43.9113 12.9375 43.9094 13.282C43.8945 15.8669 43.9224 18.5321 43.9094 21.117C43.9094 21.4178 43.9466 21.4652 44.2534 21.4616C45.4749 21.4451 47.1872 21.4451 48.405 21.4652C48.7304 21.4707 48.8159 21.3868 48.8122 21.0696C48.801 17.0427 48.801 13.0177 48.8122 8.99077C48.8141 8.65899 48.7192 8.58243 48.3846 8.58243C42.753 8.59155 37.1195 8.59337 31.486 8.58061C31.1235 8.58061 31.0435 8.67722 31.0435 9.01629C31.0528 21.8608 31.0528 34.7016 31.0435 47.5443C31.0435 47.8979 31.1216 48 31.5065 48C40.0831 47.9872 48.6635 47.9872 57.2401 48C57.6342 48 57.6919 47.8815 57.6919 47.5406C57.6826 31.8396 57.6826 16.1385 57.6919 0.437506C57.6919 0.102084 57.6212 0.00546862 57.2568 0.00546862" fill="white"/>
<path d="M74.6907 33.163C74.436 33.2085 74.1813 33.2322 73.9285 33.2322C73.3856 33.2322 72.9449 33.1028 72.6065 32.8458C72.2682 32.5887 72.0971 32.0929 72.0971 31.3619V22.0849H75.7728V18.0963H72.0971V13.5079H66.6812V18.0963H64.0113V22.0849H66.6812V32.0601C66.6719 33.9377 67.2631 35.3377 68.4549 36.2547C69.6448 37.1734 71.2251 37.5909 73.1903 37.507C73.895 37.4815 74.4918 37.4141 74.9826 37.301C75.4735 37.1898 75.8565 37.0914 76.1261 37.0075L75.2745 33.0554C75.1388 33.0809 74.9436 33.1156 74.6889 33.1611" fill="white"/>
<path d="M88.5327 18.7379C87.6942 19.3486 87.0955 20.2492 86.7404 21.4377H86.5359V18.0963H81.2836V37.2463H86.7014V26.4125C86.7014 25.2331 87.0937 24.2742 87.8783 23.5396C88.6629 22.8031 89.652 22.4367 90.8475 22.4367C91.2212 22.4367 91.632 22.464 92.0801 22.5169C92.5301 22.5716 92.8815 22.6409 93.1362 22.7229V18.0106C92.6026 17.8866 92.0336 17.8246 91.4331 17.8246C90.3399 17.8246 89.3731 18.1309 88.5346 18.7416" fill="white"/>
<path d="M101.333 18.0963H95.9157V37.2463H101.333V18.0963Z" fill="white"/>
<path d="M98.6358 10.254C97.8382 10.254 97.1521 10.5165 96.5757 11.0397C95.9994 11.5628 95.7112 12.1954 95.7112 12.9337C95.7112 13.672 95.9994 14.3064 96.5757 14.835C97.1521 15.3637 97.8382 15.6262 98.6358 15.6262C99.4334 15.6262 100.132 15.3619 100.709 14.835C101.285 14.3064 101.573 13.6738 101.573 12.9337C101.573 12.1936 101.285 11.5628 100.709 11.0397C100.132 10.5165 99.4408 10.254 98.6358 10.254Z" fill="white"/>
<path d="M120.815 18.9385C119.619 18.2111 118.305 17.8465 116.873 17.8465C115.787 17.8465 114.876 18.027 114.14 18.388C113.402 18.7507 112.809 19.1973 112.361 19.7278C111.911 20.2601 111.563 20.787 111.318 21.312H111.076V18.0945H105.736V44.4269H111.152V34.1783H111.318C111.572 34.7106 111.929 35.2356 112.392 35.7552C112.855 36.2747 113.452 36.7049 114.186 37.0458C114.919 37.3867 115.811 37.5562 116.862 37.5562C118.345 37.5562 119.684 37.1807 120.88 36.4278C122.075 35.675 123.025 34.5666 123.728 33.0991C124.433 31.6317 124.784 29.8306 124.784 27.6941C124.784 25.5576 124.421 23.6727 123.696 22.2143C122.971 20.756 122.012 19.6622 120.816 18.9348M118.195 31.7538C117.49 32.8056 116.473 33.3307 115.144 33.3307C113.815 33.3307 112.827 32.8129 112.111 31.7775C111.396 30.7439 111.037 29.373 111.037 27.6704C111.037 25.9678 111.392 24.5969 112.104 23.587C112.816 22.5771 113.829 22.0721 115.144 22.0721C116.458 22.0721 117.503 22.5899 118.202 23.6253C118.901 24.6589 119.251 26.0079 119.251 27.6704C119.251 29.3329 118.9 30.702 118.195 31.7538Z" fill="white"/>
<path d="M152.588 20.9053L148.313 37.1706H144.744L140.038 21.7128L135.293 37.1706H132.037L127.802 20.9053C127.645 20.3157 127.514 19.9055 127.41 19.6748C127.331 19.4185 127.227 19.2518 127.096 19.1749C126.965 19.098 126.769 19.0468 126.508 19.0211L124.351 18.752V17.6753H134.783V18.752L132.626 19.0211C132.207 19.0724 131.972 19.1877 131.92 19.3672C131.868 19.521 131.959 20.0337 132.194 20.9053L135.253 32.4795L139.763 17.6753H143.215L147.881 33.1332L151.058 20.9053C151.293 20.0337 151.385 19.521 151.333 19.3672C151.28 19.1877 151.045 19.0724 150.627 19.0211L148.47 18.752V17.6753H156.039V18.752L153.882 19.0211C153.62 19.0468 153.424 19.098 153.293 19.1749C153.163 19.2518 153.045 19.4185 152.941 19.6748C152.862 19.9055 152.744 20.3157 152.588 20.9053Z" fill="white"/>
<path d="M161.994 14.3684C161.184 14.3684 160.53 14.1248 160.033 13.6378C159.536 13.1251 159.288 12.4714 159.288 11.6767C159.288 10.882 159.536 10.2412 160.033 9.75409C160.53 9.26703 161.184 9.02349 161.994 9.02349C162.778 9.02349 163.432 9.26703 163.955 9.75409C164.478 10.2412 164.739 10.882 164.739 11.6767C164.739 12.4714 164.478 13.1251 163.955 13.6378C163.432 14.1248 162.778 14.3684 161.994 14.3684ZM156.739 18.752V17.6753H164.269V33.9406C164.269 34.8122 164.308 35.3378 164.386 35.5172C164.465 35.671 164.713 35.7735 165.131 35.8248L167.288 36.094V37.1706H156.739V36.094L158.896 35.8248C159.314 35.7735 159.563 35.671 159.641 35.5172C159.719 35.3378 159.759 34.8122 159.759 33.9406V20.9053C159.759 20.0337 159.719 19.521 159.641 19.3672C159.563 19.1877 159.314 19.0724 158.896 19.0211L156.739 18.752Z" fill="white"/>
<path d="M175.94 36.094V37.1706H168.097V36.094L170.254 35.8248C170.515 35.7735 170.711 35.7223 170.842 35.671C170.999 35.5941 171.182 35.4275 171.391 35.1711C171.6 34.9148 171.901 34.5046 172.293 33.9406L176.49 27.9421L172.293 20.9053C171.953 20.3157 171.692 19.9055 171.509 19.6748C171.326 19.4185 171.156 19.2518 170.999 19.1749C170.842 19.098 170.633 19.0468 170.372 19.0211L168.215 18.752V17.6753H179.078V18.752L176.921 19.0211C176.503 19.0724 176.307 19.1749 176.333 19.3287C176.359 19.4825 176.633 20.0081 177.156 20.9053L179.784 25.2889L182.804 20.9053C183.405 20.0337 183.706 19.521 183.706 19.3672C183.732 19.1877 183.536 19.0724 183.117 19.0211L180.96 18.752V17.6753H188.804V18.752L186.647 19.0211C186.385 19.0468 186.176 19.098 186.019 19.1749C185.889 19.2518 185.719 19.4185 185.51 19.6748C185.327 19.9055 185.026 20.3157 184.608 20.9053L180.607 26.6731L184.921 33.9406C185.287 34.5303 185.549 34.9532 185.706 35.2096C185.889 35.4403 186.059 35.5941 186.216 35.671C186.372 35.7223 186.582 35.7735 186.843 35.8248L189 36.094V37.1706H178.137V36.094L180.294 35.8248C180.712 35.7735 180.908 35.671 180.882 35.5172C180.856 35.3378 180.581 34.8122 180.058 33.9406L177.313 29.2879L174.097 33.9406C173.496 34.8122 173.182 35.3378 173.156 35.5172C173.156 35.671 173.365 35.7735 173.784 35.8248L175.94 36.094Z" fill="white"/>
</svg>
