<svg width="22" height="23" viewBox="0 0 22 23" fill="none" xmlns="http://www.w3.org/2000/svg">
<path d="M20.5833 10.625C20.3533 10.625 20.1667 10.429 20.1667 10.1875C20.1667 5.60425 16.615 1.875 12.25 1.875C12.02 1.875 11.8333 1.679 11.8333 1.4375C11.8333 1.196 12.02 1 12.25 1C17.075 1 21 5.12125 21 10.1875C21 10.429 20.8133 10.625 20.5833 10.625ZM17.6667 10.1875C17.6667 7.0515 15.2367 4.5 12.25 4.5C12.02 4.5 11.8333 4.696 11.8333 4.9375C11.8333 5.179 12.02 5.375 12.25 5.375C14.7775 5.375 16.8333 7.53363 16.8333 10.1875C16.8333 10.429 17.02 10.625 17.25 10.625C17.48 10.625 17.6667 10.429 17.6667 10.1875ZM19.5283 20.4871L20.3433 19.5028C20.7667 19.0583 21 18.4667 21 17.8385C21 17.2102 20.7667 16.6179 20.3025 16.1366L18.2642 14.4977C17.3908 13.5807 15.97 13.5799 15.095 14.4951L13.8183 15.8024C10.7517 14.4908 8.25333 11.8649 6.90667 8.53725L8.14667 7.20288C9.02083 6.285 9.02083 4.79137 8.1825 3.91637L6.55 1.69125C5.7025 0.801375 4.20583 0.822375 3.4 1.67112L2.42167 2.56712C1.50417 3.52525 1 4.82637 1 6.229C1 13.0094 9.5625 22 16.02 22C17.3558 22 18.5942 21.4706 19.5283 20.4871ZM5.92417 2.26525L7.55667 4.49038C8.10583 5.067 8.10583 6.00588 7.55333 6.58687L6.11833 8.13212C6.00333 8.25637 5.96833 8.44013 6.03 8.60113C7.47083 12.368 10.2908 15.3281 13.7683 16.7211C13.92 16.7824 14.0917 16.7447 14.2075 16.6266L15.6792 15.1199C15.6792 15.1199 15.6817 15.1173 15.6825 15.1155C16.215 14.5555 17.1025 14.5196 17.7158 15.1531L19.7542 16.792C20.3033 17.3686 20.3033 18.3066 19.735 18.906L18.9192 19.8904C18.1625 20.6866 17.1325 21.125 16.02 21.125C10.0533 21.125 1.83333 12.494 1.83333 6.229C1.83333 5.06087 2.25083 3.97937 2.98917 3.205L3.96833 2.30813C4.24833 2.01412 4.6175 1.87063 4.98083 1.87063C5.33 1.87063 5.67333 2.00363 5.925 2.26612L5.92417 2.26525Z" fill="white" stroke="white" stroke-width="0.3"/>
</svg>
