<svg width="31" height="30" viewBox="0 0 31 30" fill="none" xmlns="http://www.w3.org/2000/svg">
<path d="M16 3C9.383 3 4 8.383 4 15C4 21.617 9.383 27 16 27C22.617 27 28 21.617 28 15C28 8.383 22.617 3 16 3ZM11 24.797V24C11 21.243 13.243 19 16 19C18.757 19 21 21.243 21 24V24.797C19.499 25.566 17.799 26 16 26C14.201 26 12.501 25.566 11 24.797ZM22 24.215V24C22 20.691 19.309 18 16 18C12.691 18 10 20.691 10 24V24.215C6.992 22.25 5 18.853 5 15C5 8.935 9.935 4 16 4C22.065 4 27 8.935 27 15C27 18.853 25.008 22.25 22 24.215ZM16 8C13.794 8 12 9.794 12 12C12 14.206 13.794 16 16 16C18.206 16 20 14.206 20 12C20 9.794 18.206 8 16 8ZM16 15C14.346 15 13 13.654 13 12C13 10.346 14.346 9 16 9C17.654 9 19 10.346 19 12C19 13.654 17.654 15 16 15Z" fill="#1F3345" stroke="#1F3345" stroke-width="0.4"/>
</svg>
