<svg width="61" height="61" viewBox="0 0 61 61" fill="none" xmlns="http://www.w3.org/2000/svg">
<path d="M51.1614 26.028C51.1614 41.6804 30.5002 55.0969 30.5002 55.0969C30.5002 55.0969 9.83887 41.6804 9.83887 26.028C9.83887 20.6906 12.0157 15.5718 15.8904 11.7977C19.7652 8.02359 25.0204 5.90332 30.5002 5.90332C35.9799 5.90332 41.2351 8.02359 45.1099 11.7977C48.9846 15.5718 51.1614 20.6906 51.1614 26.028Z" fill="#1F3345"/>
<g clip-path="url(#clip0_2360_4606)">
<path d="M43.0957 15.7443C38.8979 15.7488 34.7022 15.7488 30.5065 15.7488C26.3108 15.7488 22.0923 15.7488 17.8841 15.742C17.7514 15.742 17.71 15.7713 17.71 15.9224C17.7141 23.6694 17.7141 31.4163 17.71 39.1632C17.71 39.3053 17.7411 39.3481 17.8799 39.3481C21.7005 39.3436 25.5189 39.3436 29.3394 39.3481C29.4887 39.3481 29.5177 39.3008 29.5177 39.1497C29.5135 32.8146 29.5135 26.4794 29.5177 20.1443C29.5177 20 29.4845 19.9594 29.3477 19.9594C26.8352 19.9639 24.3207 19.9639 21.8083 19.9594C21.6839 19.9594 21.6424 19.9887 21.6424 20.1331C21.6466 22.1312 21.6466 24.1294 21.6424 26.1276C21.6424 26.2562 21.6694 26.299 21.7958 26.2968C22.341 26.2877 22.9981 26.2877 23.5454 26.2968C23.6843 26.299 23.6967 26.2652 23.6967 26.1028C23.6885 24.8195 23.703 23.5205 23.6967 22.2372C23.6967 22.0906 23.7175 22.0703 23.8522 22.0703C25.0421 22.0771 26.0185 22.0771 27.2084 22.0703C27.3556 22.0703 27.3639 22.0884 27.3639 22.2553C27.3597 27.1741 27.3597 32.1064 27.3639 37.0229C27.3639 37.1763 27.3659 37.2304 27.2084 37.2304C24.7063 37.2237 22.5379 37.2259 20.0338 37.2304C19.8845 37.2304 19.8555 37.174 19.8555 37.0229C19.8596 30.6946 19.8617 24.3753 19.8596 18.0469C19.8596 17.8913 19.8928 17.853 20.0359 17.853C27.1296 17.8575 33.8875 17.8575 40.9792 17.853C41.1243 17.853 41.1388 17.8913 41.1388 18.0469C41.1347 24.3753 41.1347 30.7059 41.1388 37.0342C41.1388 37.1831 41.1306 37.2304 40.9792 37.2304C38.4771 37.2237 36.3378 37.2259 33.8336 37.2304C33.6948 37.2304 33.6326 37.1853 33.6326 37.0229C33.6367 32.0951 33.6367 27.1831 33.6326 22.2553C33.6326 22.1042 33.701 22.0703 33.8336 22.0703C35.0194 22.0749 35.7968 22.0794 36.9825 22.0703C37.1587 22.0703 37.1815 22.1019 37.1794 22.2711C37.1732 23.5431 37.1857 24.8534 37.1794 26.1254C37.1794 26.2742 37.196 26.2968 37.3328 26.2945C37.8739 26.2855 38.6326 26.2855 39.1737 26.2945C39.3188 26.2968 39.3561 26.2562 39.354 26.1006C39.3478 24.1204 39.3478 22.1403 39.354 20.1579C39.354 19.9955 39.3125 19.9571 39.1633 19.9571C36.6653 19.9617 34.1695 19.9617 31.6715 19.9571C31.5119 19.9571 31.4746 20.0045 31.4746 20.1714C31.4787 26.4907 31.4787 32.8078 31.4746 39.1249C31.4746 39.2985 31.5098 39.3481 31.6798 39.3481C35.4817 39.3414 39.2856 39.3414 43.0895 39.3481C43.2637 39.3481 43.2906 39.2895 43.2906 39.1226C43.2865 31.3982 43.2865 23.6761 43.2906 15.9517C43.2906 15.7871 43.2595 15.7397 43.0978 15.7397" fill="white"/>
</g>
<defs>
<clipPath id="clip0_2360_4606">
<rect width="25.5806" height="23.6129" fill="white" transform="translate(17.71 15.7419)"/>
</clipPath>
</defs>
</svg>
